<?xml version="1.0" standalone="no"?>
<!DOCTYPE svg PUBLIC "-//W3C//DTD SVG 1.1//EN" "http://www.w3.org/Graphics/SVG/1.1/DTD/svg11.dtd" >
<svg xmlns="http://www.w3.org/2000/svg">
<metadata>Generated by IcoMoon</metadata>
<defs>
<font id="icomoon" horiz-adv-x="1024">
<font-face units-per-em="1024" ascent="960" descent="-64" />
<missing-glyph horiz-adv-x="1024" />
<glyph unicode="&#x20;" horiz-adv-x="512" d="" />
<glyph unicode="&#xe900;" glyph-name="icons-activity" d="M611.413 106.667c-2.901 0-5.845 0.128-8.789 0.427-37.547 3.669-66.987 30.165-75.093 67.499l-114.475 528.811-117.888-272.341c-6.741-15.659-22.187-25.728-39.168-25.728h-128c-23.595 0-42.667 19.115-42.667 42.667 0 23.595 19.072 42.667 42.667 42.667h100.011l106.923 247.040c15.147 34.816 48.512 55.040 86.443 51.285 37.547-3.712 66.987-30.208 75.093-67.541l114.475-528.768 117.888 272.341c6.827 15.616 22.187 25.643 39.168 25.643h128c23.595 0 42.667-19.072 42.667-42.667 0-23.552-19.072-42.667-42.667-42.667h-100.011l-106.923-246.912c-13.952-32.128-43.861-51.712-77.653-51.712z" />
<glyph unicode="&#xe901;" glyph-name="icons-alert-circle" d="M512 320c23.552 0 42.667-19.115 42.667-42.667s-19.115-42.667-42.667-42.667-42.667 19.115-42.667 42.667 19.115 42.667 42.667 42.667zM512 661.333c23.552 0 42.667-19.115 42.667-42.667v-213.333c0-23.552-19.115-42.667-42.667-42.667s-42.667 19.115-42.667 42.667v213.333c0 23.552 19.115 42.667 42.667 42.667zM512 106.667c-188.203 0-341.333 153.131-341.333 341.333s153.131 341.333 341.333 341.333 341.333-153.131 341.333-341.333-153.131-341.333-341.333-341.333zM512 874.667c-235.648 0-426.667-191.019-426.667-426.667s191.019-426.667 426.667-426.667 426.667 191.019 426.667 426.667-191.019 426.667-426.667 426.667z" />
<glyph unicode="&#xe902;" glyph-name="icons-alert-triangle" d="M512 320c23.552 0 42.667-19.115 42.667-42.667s-19.115-42.667-42.667-42.667-42.667 19.115-42.667 42.667 19.115 42.667 42.667 42.667zM512 618.667c23.552 0 42.667-19.115 42.667-42.667v-170.667c0-23.552-19.115-42.667-42.667-42.667s-42.667 19.115-42.667 42.667v170.667c0 23.552 19.115 42.667 42.667 42.667zM890.24 176.939c-9.813-17.28-28.8-27.605-50.901-27.605h-654.677c-22.101 0-41.131 10.325-50.859 27.605-4.608 8.107-10.667 24.619 0.725 43.392l327.253 542.635c19.968 33.024 80.469 33.024 100.395 0l327.339-542.635c11.349-18.773 5.333-35.285 0.725-43.392zM962.603 264.405l-327.339 542.677c-25.6 42.325-71.68 67.584-123.307 67.584s-97.707-25.259-123.179-67.584l-327.339-542.677c-24.32-40.235-25.003-88.619-1.963-129.408 24.704-43.819 72.704-70.997 125.184-70.997h654.677c52.48 0 100.48 27.179 125.227 70.997 23.040 40.789 22.315 89.173-1.963 129.408z" />
<glyph unicode="&#xe903;" glyph-name="icons-all-done" d="M649.088 687.616c14.549 18.56 41.387 21.888 59.861 7.296 18.603-14.507 21.845-41.344 7.296-59.861l-334.080-426.667c-8.064-10.24-20.352-16.299-33.28-16.384-13.227 0-25.472 5.845-33.621 15.915l-177.877 220.928c-14.72 18.347-11.861 45.227 6.528 59.989 18.347 14.805 45.141 11.819 59.989-6.485l144.213-179.072zM862.421 687.616c14.549 18.56 41.301 21.888 59.861 7.296 18.603-14.507 21.845-41.344 7.296-59.861l-334.080-426.667c-8.064-10.24-20.352-16.299-33.28-16.384-13.227 0-25.472 5.845-33.621 15.915l-46.933 58.325 53.973 68.992 25.771-31.957zM357.248 488.832c18.347 14.763 45.227 11.819 59.989-6.485l8.533-10.667-54.016-68.907-20.992 26.027c-14.763 18.347-11.947 45.227 6.485 60.032z" />
<glyph unicode="&#xe904;" glyph-name="icons-archive" d="M420.949 362.667h182.101c20.309 0 36.949 16.64 36.949 36.949v11.435c0 20.309-16.64 36.949-36.949 36.949h-182.101c-20.352 0-36.949-16.64-36.949-36.949v-11.435c0-20.309 16.64-36.949 36.949-36.949zM768 192c0-23.509-19.115-42.667-42.667-42.667h-426.667c-23.509 0-42.667 19.157-42.667 42.667v384h512v-384zM256 746.667h512c23.552 0 42.667-19.157 42.667-42.667s-19.115-42.667-42.667-42.667h-512c-23.509 0-42.667 19.157-42.667 42.667s19.157 42.667 42.667 42.667zM896 704c0 70.571-57.429 128-128 128h-512c-70.571 0-128-57.429-128-128 0-37.675 16.683-71.253 42.667-94.72v-417.28c0-70.571 57.429-128 128-128h426.667c70.571 0 128 57.429 128 128v417.28c25.984 23.467 42.667 57.045 42.667 94.72z" />
<glyph unicode="&#xe905;" glyph-name="icons-arrow-arrow-1-down" d="M345.259 533.333l166.827-205.739 170.027 205.739h-336.853zM512 234.667c-21.589 0-42.24 9.941-56.576 27.392l-179.797 217.515c-21.504 26.069-25.771 63.061-11.093 94.336 13.141 27.605 39.040 44.757 67.755 44.757h359.509c28.715 0 54.613-17.152 67.627-44.757 14.763-31.275 10.453-68.267-11.008-94.293l-179.797-217.557c-14.336-17.451-34.987-27.392-56.576-27.392z" />
<glyph unicode="&#xe906;" glyph-name="icons-arrow-arrow-1-left" d="M370.261 447.915l205.739-169.941v336.768l-205.739-166.827zM577.877 191.957c-20.053 0-39.893 6.699-55.595 19.669l-217.6 179.797c-17.365 14.336-27.307 34.987-27.307 56.576s9.941 42.24 27.307 56.576l217.6 179.755c25.941 21.504 62.933 25.813 94.293 11.093 27.563-13.056 44.8-38.955 44.8-67.669v-359.509c0-28.715-17.237-54.613-44.8-67.669-12.373-5.803-25.6-8.619-38.699-8.619z" />
<glyph unicode="&#xe907;" glyph-name="icons-arrow-arrow-1-right" d="M448 618.027v-336.811l205.696 166.869-205.696 169.941zM446.123 192c-13.099 0-26.325 2.816-38.656 8.619-27.648 13.013-44.8 38.955-44.8 67.669v359.467c0 28.672 17.152 54.613 44.8 67.627 31.232 14.72 68.267 10.453 94.251-11.008l217.557-179.797c17.451-14.336 27.392-34.987 27.392-56.576s-9.941-42.24-27.392-56.619l-217.557-179.712c-15.701-13.013-35.499-19.712-55.595-19.712z" />
<glyph unicode="&#xe908;" glyph-name="icons-arrow-arrow-1-up" d="M341.931 362.667h336.853l-166.869 205.739-169.984-205.739zM691.755 277.333h-359.509c-28.672 0-54.613 17.152-67.627 44.757-14.72 31.275-10.453 68.267 11.008 94.293l179.797 217.557c28.672 34.859 84.48 34.859 113.152 0l179.755-217.515c21.504-26.069 25.813-63.061 11.051-94.336-13.013-27.605-38.912-44.757-67.627-44.757z" />
<glyph unicode="&#xe909;" glyph-name="icons-arrow-arrow-2-down" d="M800.768 389.973c-15.104 18.091-41.984 20.565-60.075 5.461l-186.027-155.008v506.24c0 23.552-19.115 42.667-42.667 42.667s-42.667-19.115-42.667-42.667v-506.24l-186.027 155.008c-18.133 15.104-45.013 12.629-60.075-5.461-15.104-18.091-12.672-45.013 5.461-60.075l256-213.333c2.005-1.707 4.395-2.517 6.613-3.797 1.749-1.024 3.285-2.219 5.205-2.987 4.992-1.963 10.24-3.115 15.488-3.115 5.291 0 10.496 1.152 15.488 3.115 1.92 0.768 3.456 1.963 5.205 2.987 2.219 1.28 4.608 2.091 6.613 3.797l256 213.333c18.091 15.061 20.565 41.984 5.461 60.075z" />
<glyph unicode="&#xe90a;" glyph-name="icons-arrow-arrow-2-left" d="M810.667 490.667h-506.24l155.008 186.027c15.104 18.091 12.629 45.013-5.461 60.075-18.133 15.104-45.013 12.629-60.075-5.461l-213.333-256c-1.664-2.005-2.517-4.352-3.755-6.571-1.024-1.792-2.261-3.328-3.029-5.291-1.92-4.907-3.072-10.069-3.072-15.275l-0.043-0.171 0.043-0.171c0-5.205 1.152-10.368 3.072-15.275 0.768-1.963 2.005-3.499 3.029-5.291 1.237-2.219 2.091-4.565 3.755-6.571l213.333-256c8.448-10.112 20.565-15.36 32.768-15.36 9.643 0 19.328 3.243 27.307 9.899 18.091 15.061 20.565 41.984 5.461 60.075l-155.008 186.027h506.24c23.552 0 42.667 19.115 42.667 42.667s-19.115 42.667-42.667 42.667z" />
<glyph unicode="&#xe90b;" glyph-name="icons-arrow-arrow-2-right" d="M213.333 405.333h506.24l-155.008-186.027c-15.104-18.091-12.629-45.013 5.461-60.075 18.133-15.104 45.013-12.629 60.117 5.461l213.333 256c1.664 2.005 2.475 4.352 3.712 6.571 1.024 1.792 2.261 3.328 3.029 5.291 1.92 4.907 3.072 10.069 3.072 15.275l0.043 0.171-0.043 0.171c0 5.205-1.152 10.368-3.072 15.275-0.768 1.963-2.005 3.499-3.029 5.291-1.237 2.219-2.048 4.565-3.712 6.571l-213.333 256c-8.491 10.112-20.608 15.36-32.811 15.36-9.643 0-19.328-3.243-27.307-9.899-18.091-15.061-20.565-41.984-5.461-60.075l155.008-186.027h-506.24c-23.552 0-42.667-19.115-42.667-42.667s19.115-42.667 42.667-42.667z" />
<glyph unicode="&#xe90c;" glyph-name="icons-arrow-arrow-2-up" d="M223.232 506.027c15.104-18.091 41.984-20.565 60.075-5.461l186.027 155.008v-506.24c0-23.552 19.115-42.667 42.667-42.667s42.667 19.115 42.667 42.667v506.24l186.027-155.008c18.133-15.104 45.013-12.629 60.075 5.461 15.104 18.091 12.672 45.013-5.461 60.075l-256 213.333c-2.005 1.707-4.395 2.517-6.613 3.797-1.749 1.024-3.285 2.219-5.205 2.987-4.992 1.963-10.24 3.115-15.488 3.115-5.291 0-10.496-1.152-15.488-3.115-1.92-0.768-3.456-1.963-5.205-2.987-2.219-1.28-4.608-2.133-6.613-3.84l-256-213.333c-18.091-15.019-20.565-41.941-5.461-60.032z" />
<glyph unicode="&#xe90d;" glyph-name="icons-arrow-arrowhead-down" d="M223.232 432.64c15.061 18.091 41.941 20.565 60.075 5.461l229.163-190.976 228.779 184.107c18.347 14.72 45.269 11.819 59.989-6.485 14.763-18.347 11.861-45.227-6.485-60.032l-256-205.995c-7.808-6.272-17.28-9.387-26.752-9.387-9.728 0-19.413 3.285-27.307 9.899l-256 213.333c-18.133 15.061-20.565 41.941-5.461 60.075zM223.232 731.307c15.104 18.133 41.941 20.48 60.075 5.461l229.12-190.933 228.821 184.064c18.347 14.763 45.227 11.861 59.989-6.485 14.805-18.347 11.861-45.227-6.485-59.989l-256-205.995c-7.808-6.272-17.28-9.429-26.752-9.429-9.685 0-19.413 3.285-27.307 9.899l-256 213.333c-18.091 15.104-20.523 41.984-5.461 60.075z" />
<glyph unicode="&#xe90e;" glyph-name="icons-arrow-arrowhead-left" d="M436.565 731.307c15.061 18.091 41.941 20.523 60.075 5.461 18.091-15.104 20.523-41.984 5.461-60.075l-190.976-229.12 184.107-228.821c14.763-18.347 11.861-45.227-6.485-59.989-7.893-6.357-17.323-9.387-26.752-9.387-12.459 0-24.832 5.376-33.237 15.872l-205.995 256c-12.757 15.829-12.544 38.443 0.469 54.059zM735.232 731.307c15.104 18.133 41.941 20.48 60.117 5.461 18.091-15.061 20.48-41.984 5.461-60.075l-190.976-229.163 184.107-228.779c14.72-18.347 11.819-45.227-6.485-59.989-7.936-6.4-17.365-9.429-26.795-9.429-12.416 0-24.789 5.461-33.28 15.915l-205.952 256c-12.757 15.787-12.544 38.485 0.427 54.059z" />
<glyph unicode="&#xe90f;" glyph-name="icons-arrow-arrowhead-right" d="M535.253 737.237c18.347 14.805 45.227 11.861 59.989-6.485l205.995-256c12.8-15.829 12.544-38.443-0.427-54.059l-213.333-256c-8.491-10.112-20.608-15.36-32.853-15.36-9.6 0-19.285 3.243-27.264 9.899-18.133 15.061-20.565 41.984-5.461 60.075l190.976 229.163-184.149 228.779c-14.763 18.347-11.861 45.227 6.528 59.989zM236.587 737.237c18.347 14.763 45.227 11.861 59.989-6.485l205.995-256c12.715-15.829 12.544-38.443-0.427-54.059l-213.333-256c-8.491-10.112-20.608-15.36-32.853-15.36-9.6 0-19.285 3.243-27.264 9.899-18.133 15.061-20.565 41.984-5.461 60.075l190.933 229.163-184.107 228.779c-14.763 18.347-11.819 45.227 6.528 59.989z" />
<glyph unicode="&#xe910;" glyph-name="icons-arrow-arrowhead-up" d="M485.248 438.613c15.829 12.715 38.443 12.544 54.059-0.512l256-213.333c18.091-15.104 20.523-41.984 5.461-60.075-8.448-10.155-20.565-15.36-32.811-15.36-9.6 0-19.285 3.243-27.264 9.899l-229.12 190.933-228.821-184.064c-18.347-14.805-45.184-11.904-59.989 6.485-14.805 18.347-11.861 45.227 6.485 59.989zM485.248 737.28c15.829 12.715 38.443 12.587 54.059-0.512l256-213.333c18.133-15.061 20.565-41.941 5.461-60.075-8.448-10.112-20.565-15.36-32.768-15.36-9.643 0-19.328 3.285-27.307 9.899l-229.163 190.976-228.779-184.107c-18.347-14.763-45.184-11.861-59.989 6.485-14.763 18.347-11.861 45.227 6.485 60.032z" />
<glyph unicode="&#xe911;" glyph-name="icons-arrow-chevron-down" d="M512 298.667c-10.923 0-21.845 4.181-30.165 12.501l-170.667 170.667c-16.683 16.683-16.683 43.648 0 60.331s43.648 16.683 60.331 0l141.013-141.013 140.501 135.68c17.024 16.341 43.947 15.872 60.331-1.067s15.915-43.989-1.024-60.331l-170.667-164.779c-8.32-8.021-18.987-11.989-29.653-11.989z" />
<glyph unicode="&#xe912;" glyph-name="icons-arrow-chevron-left" d="M570.125 234.667c-11.179 0-22.315 4.352-30.677 13.013l-164.821 170.667c-16.128 16.768-15.915 43.349 0.555 59.819l170.667 170.667c16.64 16.683 43.648 16.683 60.331 0 16.64-16.683 16.64-43.648 0-60.331l-141.013-141.013 135.637-140.501c16.384-16.981 15.915-43.989-1.024-60.331-8.32-8.021-18.987-11.989-29.653-11.989z" />
<glyph unicode="&#xe913;" glyph-name="icons-arrow-chevron-right" d="M448 234.667c-10.923 0-21.845 4.181-30.165 12.501-16.683 16.683-16.683 43.648 0 60.331l141.013 141.013-135.68 140.501c-16.341 16.981-15.872 43.989 1.067 60.331 16.981 16.341 43.989 15.872 60.331-1.024l164.779-170.667c16.171-16.768 15.957-43.349-0.512-59.819l-170.667-170.667c-8.32-8.32-19.243-12.501-30.165-12.501z" />
<glyph unicode="&#xe914;" glyph-name="icons-arrow-chevron-up" d="M682.667 341.333c-10.923 0-21.845 4.181-30.165 12.501l-141.013 141.013-140.501-135.68c-16.981-16.384-43.947-15.957-60.331 1.067-16.384 16.939-15.915 43.989 1.024 60.331l170.667 164.779c16.768 16.171 43.392 15.957 59.819-0.512l170.667-170.667c16.683-16.683 16.683-43.648 0-60.331-8.32-8.32-19.243-12.501-30.165-12.501z" />
<glyph unicode="&#xe915;" glyph-name="icons-arrow-circle-down" d="M610.56 430.336l-55.893-53.333v241.664c0 23.552-19.072 42.667-42.667 42.667-23.552 0-42.667-19.115-42.667-42.667v-238.336l-55.168 55.168c-16.64 16.64-43.648 16.64-60.331 0-16.64-16.683-16.64-43.648 0-60.331l128-128c3.925-3.925 8.661-7.040 13.867-9.216s10.752-3.285 16.299-3.285c5.504 0 10.965 1.152 16.085 3.243 2.56 1.067 4.651 2.901 6.912 4.437 2.133 1.408 4.565 2.261 6.485 4.096l128 122.155c17.024 16.213 17.664 43.264 1.408 60.331-16.299 17.067-43.264 17.664-60.331 1.408zM512 106.667c-188.203 0-341.333 153.131-341.333 341.333s153.131 341.333 341.333 341.333 341.333-153.131 341.333-341.333-153.131-341.333-341.333-341.333zM512 874.667c-235.264 0-426.667-191.403-426.667-426.667s191.403-426.667 426.667-426.667 426.667 191.403 426.667 426.667-191.403 426.667-426.667 426.667z" />
<glyph unicode="&#xe916;" glyph-name="icons-arrow-circle-left" d="M682.667 490.667h-241.664l53.333 55.893c16.256 17.024 15.616 44.032-1.408 60.331-17.067 16.213-44.032 15.616-60.331-1.451l-122.155-128c-1.621-1.707-2.347-3.84-3.669-5.76-1.749-2.517-3.712-4.821-4.864-7.723-1.579-3.883-2.091-7.936-2.432-12.075-0.128-1.323-0.811-2.517-0.811-3.883 0-0.085 0.043-0.128 0.043-0.213 0.043-5.547 1.109-11.051 3.285-16.256 2.133-5.163 5.291-9.813 9.173-13.739l128-127.957c8.32-8.32 19.243-12.501 30.165-12.501s21.845 4.181 30.165 12.501c16.683 16.683 16.683 43.648 0 60.331l-55.168 55.168h238.336c23.552 0 42.667 19.115 42.667 42.667s-19.115 42.667-42.667 42.667zM512 106.667c-188.203 0-341.333 153.131-341.333 341.333s153.131 341.333 341.333 341.333c188.203 0 341.333-153.131 341.333-341.333s-153.131-341.333-341.333-341.333zM512 874.667c-235.264 0-426.667-191.403-426.667-426.667s191.403-426.667 426.667-426.667c235.264 0 426.667 191.403 426.667 426.667s-191.403 426.667-426.667 426.667z" />
<glyph unicode="&#xe917;" glyph-name="icons-arrow-circle-right" d="M725.291 447.787l0.043 0.213c0 1.408-0.683 2.56-0.811 3.925-0.341 4.096-0.853 8.192-2.432 12.032-1.152 2.901-3.115 5.205-4.864 7.765-1.323 1.877-2.048 4.053-3.669 5.76l-122.155 128c-16.299 17.067-43.264 17.664-60.331 1.408-17.024-16.256-17.664-43.264-1.408-60.331l53.333-55.893h-241.664c-23.552 0-42.667-19.072-42.667-42.667 0-23.552 19.115-42.667 42.667-42.667h238.336l-55.168-55.168c-16.683-16.64-16.683-43.648 0-60.331 8.32-8.32 19.243-12.501 30.165-12.501s21.845 4.181 30.165 12.501l128 128c3.883 3.84 7.040 8.533 9.173 13.739 2.176 5.12 3.243 10.667 3.285 16.213zM512 106.667c-188.203 0-341.333 153.131-341.333 341.333s153.131 341.333 341.333 341.333 341.333-153.131 341.333-341.333-153.131-341.333-341.333-341.333zM512 874.667c-235.264 0-426.667-191.403-426.667-426.667s191.403-426.667 426.667-426.667 426.667 191.403 426.667 426.667-191.403 426.667-426.667 426.667z" />
<glyph unicode="&#xe918;" glyph-name="icons-arrow-circle-up" d="M542.165 648.832c-3.84 3.883-8.533 7.040-13.739 9.173-5.12 2.133-10.667 3.285-16.213 3.285h-0.213c-1.536 0-2.816-0.64-4.309-0.853-3.925-0.427-7.851-0.853-11.563-2.304-2.987-1.237-5.376-3.2-7.979-4.992-1.792-1.28-3.883-2.005-5.547-3.627l-128-122.112c-17.067-16.299-17.707-43.264-1.451-60.331 16.341-17.067 43.264-17.621 60.373-1.365l55.808 53.291v-241.664c0-23.552 19.115-42.667 42.667-42.667 23.595 0 42.667 19.115 42.667 42.667v238.293l55.168-55.168c8.405-8.277 19.328-12.501 30.165-12.501 10.923 0 21.845 4.181 30.208 12.501 16.64 16.725 16.64 43.691 0 60.373l-128 128zM512 106.667c-188.203 0-341.333 153.131-341.333 341.333s153.131 341.333 341.333 341.333 341.333-153.131 341.333-341.333-153.131-341.333-341.333-341.333zM512 874.667c-235.264 0-426.667-191.403-426.667-426.667s191.403-426.667 426.667-426.667 426.667 191.403 426.667 426.667-191.403 426.667-426.667 426.667z" />
<glyph unicode="&#xe919;" glyph-name="icons-arrow-diagonal-left-down" d="M755.499 691.499c-16.683 16.683-43.648 16.683-60.331 0l-353.835-353.835v238.336c0 23.552-19.072 42.667-42.667 42.667s-42.667-19.115-42.667-42.667v-341.333c0-23.552 19.072-42.667 42.667-42.667h341.333c23.595 0 42.667 19.115 42.667 42.667s-19.072 42.667-42.667 42.667h-238.336l353.835 353.835c16.683 16.683 16.683 43.648 0 60.331z" />
<glyph unicode="&#xe91a;" glyph-name="icons-arrow-diagonal-left-up" d="M755.499 264.832l-353.664 353.664 238.208 0.171c23.552 0 42.624 19.157 42.624 42.709s-19.115 42.624-42.667 42.624l-339.243-0.256c-23.467-0.043-42.453-18.987-42.624-42.411l-2.133-341.077c-0.171-23.552 18.816-42.795 42.411-42.923h0.256c23.467 0 42.496 18.944 42.667 42.411l1.493 237.099 352.341-352.341c8.32-8.32 19.243-12.501 30.165-12.501s21.845 4.181 30.165 12.501c16.683 16.683 16.683 43.648 0 60.331z" />
<glyph unicode="&#xe91b;" glyph-name="icons-arrow-diagonal-right-down" d="M725.333 618.667c-23.595 0-42.667-19.115-42.667-42.667v-238.336l-353.835 353.835c-16.683 16.683-43.648 16.683-60.331 0s-16.683-43.648 0-60.331l353.835-353.835h-238.336c-23.595 0-42.667-19.115-42.667-42.667s19.072-42.667 42.667-42.667h341.333c23.595 0 42.667 19.115 42.667 42.667v341.333c0 23.552-19.072 42.667-42.667 42.667z" />
<glyph unicode="&#xe91c;" glyph-name="icons-arrow-diagonal-right-up" d="M767.701 659.243c0 23.467-18.944 42.496-42.411 42.667l-341.291 2.091c-23.467 0-42.496-18.987-42.667-42.453-0.171-23.552 18.816-42.795 42.411-42.923l237.141-1.493-352.384-352.341c-16.64-16.64-16.64-43.691 0-60.331 8.32-8.363 19.243-12.501 30.165-12.501s21.845 4.139 30.165 12.501l353.621 353.621 0.213-238.080c0-23.552 19.115-42.624 42.667-42.624h0.043c23.552 0 42.667 19.2 42.667 42.709l-0.341 339.2z" />
<glyph unicode="&#xe91d;" glyph-name="icons-arrow-ios-down" d="M512 277.333c-9.728 0-19.413 3.285-27.307 9.899l-256 213.333c-18.091 15.061-20.565 41.984-5.461 60.075 15.061 18.091 41.941 20.523 60.075 5.461l229.163-190.976 228.779 184.107c18.347 14.763 45.227 11.861 59.989-6.485s11.861-45.184-6.485-59.989l-256-205.995c-7.808-6.272-17.28-9.429-26.752-9.429z" />
<glyph unicode="&#xe91e;" glyph-name="icons-arrow-ios-left" d="M590.037 149.333c-12.459 0-24.832 5.419-33.28 15.915l-205.995 256c-12.715 15.829-12.544 38.443 0.427 54.059l213.333 256c15.104 18.091 42.027 20.523 60.16 5.461 18.091-15.061 20.48-41.984 5.419-60.075l-190.933-229.163 184.107-228.779c14.763-18.347 11.861-45.227-6.528-59.989-7.851-6.357-17.323-9.429-26.709-9.429z" />
<glyph unicode="&#xe91f;" glyph-name="icons-arrow-ios-right" d="M426.667 149.333c-9.643 0-19.371 3.243-27.307 9.899-18.133 15.061-20.523 41.984-5.461 60.075l190.976 229.163-184.149 228.779c-14.72 18.347-11.819 45.227 6.485 59.989 18.389 14.763 45.227 11.861 60.032-6.485l206.037-256c12.715-15.829 12.501-38.443-0.469-54.059l-213.333-256c-8.491-10.112-20.565-15.36-32.853-15.36z" />
<glyph unicode="&#xe920;" glyph-name="icons-arrow-ios-up" d="M768 320c-9.685 0-19.328 3.243-27.307 9.899l-229.163 190.976-228.821-184.107c-18.304-14.805-45.184-11.904-59.947 6.485-14.763 18.347-11.904 45.184 6.485 59.989l256 205.995c15.787 12.757 38.485 12.587 54.101-0.469l256-213.333c18.091-15.061 20.48-41.984 5.461-60.075-8.448-10.112-20.565-15.36-32.853-15.36z" />
<glyph unicode="&#xe921;" glyph-name="icons-at" d="M477.099 316.16c-72.704 0-131.883 59.136-131.883 131.84s59.179 131.883 131.84 131.883c72.747 0 131.925-59.179 131.925-131.84 0-72.747-59.179-131.925-131.883-131.925zM552.747 872.789c-128.043 12.032-253.269-33.28-343.467-124.117-90.155-90.752-134.571-216.32-121.771-344.448 15.275-152.405 111.317-285.099 250.709-346.24 55.765-24.448 114.901-36.437 173.611-36.437 92.501 0 184.021 29.867 259.584 87.68 18.731 14.336 22.272 41.131 7.936 59.861-14.336 18.645-41.088 22.187-59.819 7.893-98.901-75.733-231.851-91.264-347.051-40.832-109.568 48.043-188.032 156.587-200.107 276.608-10.24 102.613 25.301 203.136 97.493 275.797 72.107 72.619 172.459 108.971 274.987 99.243 173.013-16.085 308.48-169.557 308.48-349.397v-28.8c0-19.968-7.936-38.571-22.4-52.395-14.421-13.824-33.536-20.907-53.461-20.053-38.144 1.707-69.205 37.547-69.205 79.957v184.491c0 23.595-19.072 42.667-42.667 42.667-21.76 0-38.869-16.341-41.6-37.333-38.741 35.84-90.112 58.283-146.901 58.283-119.765 0-217.216-97.493-217.216-217.173 0-119.808 97.451-217.259 217.173-217.259 72.533 0 136.533 36.096 176 90.88 27.52-40.107 71.168-67.584 120.661-69.76 43.221-2.304 84.779 13.568 116.224 43.648s48.725 70.571 48.725 114.048v28.8c0 223.445-169.472 414.208-385.92 434.389z" />
<glyph unicode="&#xe922;" glyph-name="icons-attach-attach-1" d="M512 21.333c-141.184 0-256 109.099-256 243.115v433.92c0 97.195 82.944 176.299 184.875 176.299 101.973 0 184.917-79.104 184.917-176.299l-0.256-434.219c0-60.331-51.072-109.44-113.792-109.44s-113.749 49.109-113.749 109.483l0.213 400.683c0.043 23.552 19.157 42.624 42.667 42.624h0.043c23.552 0 42.667-19.115 42.624-42.709l-0.213-400.64c0-13.269 12.715-24.107 28.416-24.107s28.459 10.837 28.459 24.149l0.256 434.219c0 50.133-44.672 90.923-99.584 90.923-54.869 0-99.541-40.789-99.541-90.965v-433.92c0-86.997 76.544-157.781 170.667-157.781s170.667 70.784 170.667 157.781v433.92c0 23.595 19.115 42.667 42.667 42.667s42.667-19.072 42.667-42.667v-433.92c0-134.016-114.816-243.115-256-243.115z" />
<glyph unicode="&#xe923;" glyph-name="icons-attach-attach-2" d="M396.501 64c-70.613 0-137.813 28.416-189.056 80-101.931 102.528-106.069 265.088-9.387 362.411l315.136 317.013c32.853 33.024 77.099 51.243 124.672 51.243 50.944 0 99.328-20.437 136.192-57.557 73.429-73.856 76.288-191.232 6.229-261.632l-315.52-316.971c-20.437-20.608-47.915-31.915-77.483-31.915-31.147 0-60.715 12.459-83.2 35.029-44.928 45.269-46.293 117.419-3.072 160.939l291.2 292.48c16.64 16.725 43.563 16.811 60.288 0.171s16.811-43.648 0.171-60.331l-291.2-292.523c-10.24-10.325-8.832-28.544 3.2-40.576 6.229-6.272 14.507-9.856 22.613-9.856 4.693 0 11.435 1.152 17.024 6.741l315.477 316.971c36.992 37.248 34.219 100.608-6.229 141.312-38.656 38.912-104.363 41.984-139.819 6.315l-315.136-317.013c-63.787-64.128-59.563-172.757 9.387-242.091 35.115-35.371 80.768-54.827 128.512-54.827 42.667 0 82.261 16.128 111.36 45.397l315.179 317.013c16.64 16.683 43.648 16.811 60.373 0.171 16.64-16.64 16.768-43.605 0.128-60.331l-315.136-317.013c-45.227-45.483-106.325-70.571-171.904-70.571z" />
<glyph unicode="&#xe924;" glyph-name="icons-award" d="M525.056 247.168c-13.269 7.296-29.312 7.168-42.24-0.555l-159.915-93.867 62.635 243.627c37.333-21.333 80.469-33.707 126.464-33.707s89.131 12.373 126.507 33.707l63.531-247.125-176.981 97.92zM512 789.333c94.123 0 170.667-76.544 170.667-170.667s-76.544-170.667-170.667-170.667-170.667 76.544-170.667 170.667 76.544 170.667 170.667 170.667zM809.344 74.624l-98.56 383.104c35.755 44.032 57.216 99.968 57.216 160.939 0 141.184-114.773 256-256 256-141.099 0-256-114.816-256-256 0-60.971 21.547-116.907 57.173-160.939l-98.432-383.104c-4.309-16.725 1.877-34.347 15.659-44.715 13.739-10.368 32.427-11.307 47.232-2.688l227.413 133.504 242.347-134.059c6.4-3.584 13.568-5.333 20.651-5.333 9.259 0 18.475 2.987 26.155 8.917 13.44 10.411 19.456 27.861 15.189 44.373z" />
<glyph unicode="&#xe925;" glyph-name="icons-backspace" d="M481.835 332.501c8.32-8.32 19.243-12.501 30.165-12.501s21.845 4.181 30.165 12.501l55.168 55.168 55.168-55.168c8.32-8.32 19.243-12.501 30.165-12.501s21.845 4.181 30.165 12.501c16.683 16.683 16.683 43.648 0 60.331l-55.168 55.168 55.168 55.168c16.683 16.683 16.683 43.648 0 60.331s-43.648 16.683-60.331 0l-55.168-55.168-55.168 55.168c-16.683 16.683-43.648 16.683-60.331 0s-16.683-43.648 0-60.331l55.168-55.168-55.168-55.168c-16.683-16.683-16.683-43.648 0-60.331zM853.333 192h-410.88c-10.624 0-20.821 3.968-28.715 11.136l-227.328 206.72 229.419 284.8c7.552 6.059 16.939 9.344 26.624 9.344h410.88v-512zM859.349 789.333h-416.896c-31.915 0-62.507-11.819-86.101-33.323-1.664-1.451-3.157-3.115-4.523-4.821l-257.024-319.104c-14.165-17.579-12.203-43.136 4.48-58.325l257.067-233.771c23.595-21.504 54.187-33.323 86.101-33.323h416.896c43.733 0 79.317 34.773 79.317 77.568v527.531c0 42.795-35.584 77.568-79.317 77.568z" />
<glyph unicode="&#xe926;" glyph-name="icons-bar-chart-1" d="M512 789.333c23.467 0 42.667-19.2 42.667-42.667v-640c0-23.467-19.2-42.667-42.667-42.667s-42.667 19.2-42.667 42.667v640c0 23.467 19.2 42.667 42.667 42.667zM810.667 448c23.467 0 42.667-19.2 42.667-42.667v-298.667c0-23.467-19.2-42.667-42.667-42.667s-42.667 19.2-42.667 42.667v298.667c0 23.467 19.2 42.667 42.667 42.667zM213.333 618.667c23.467 0 42.667-19.2 42.667-42.667v-469.333c0-23.467-19.2-42.667-42.667-42.667s-42.667 19.2-42.667 42.667v469.333c0 23.467 19.2 42.667 42.667 42.667z" />
<glyph unicode="&#xe927;" glyph-name="icons-bar-chart-2" d="M512 618.667c23.467 0 42.667-19.2 42.667-42.667v-469.333c0-23.467-19.2-42.667-42.667-42.667s-42.667 19.2-42.667 42.667v469.333c0 23.467 19.2 42.667 42.667 42.667zM810.667 789.333c23.467 0 42.667-19.2 42.667-42.667v-640c0-23.467-19.2-42.667-42.667-42.667s-42.667 19.2-42.667 42.667v640c0 23.467 19.2 42.667 42.667 42.667zM213.333 448c23.467 0 42.667-19.2 42.667-42.667v-298.667c0-23.467-19.2-42.667-42.667-42.667s-42.667 19.2-42.667 42.667v298.667c0 23.467 19.2 42.667 42.667 42.667z" />
<glyph unicode="&#xe928;" glyph-name="icons-battery-battery" d="M938.667 533.333v-170.667c0-23.552-19.115-42.667-42.667-42.667s-42.667 19.115-42.667 42.667v170.667c0 23.552 19.115 42.667 42.667 42.667s42.667-19.115 42.667-42.667zM682.667 295.637c0-10.795-5.163-17.323-7.339-18.304l-497.152-0.043c-2.133 0.768-7.509 7.296-7.509 18.347v304.725c0 11.051 5.376 17.579 7.125 18.304l497.365 0.043c2.133-0.768 7.509-7.296 7.509-18.347v-304.725zM675.541 704h-497.749c-50.987 0-92.459-46.464-92.459-103.637v-304.725c0-57.173 41.472-103.637 92.459-103.637h497.749c50.987 0 92.459 46.464 92.459 103.637v304.725c0 57.173-41.472 103.637-92.459 103.637z" />
<glyph unicode="&#xe929;" glyph-name="icons-batttery-charging" d="M490.496 783.701c20.48-11.691 27.563-37.76 15.872-58.197l-134.187-234.837h182.485c15.189 0 29.269-8.107 36.907-21.248s7.68-29.397 0.128-42.581l-170.667-298.667c-7.851-13.781-22.272-21.504-37.077-21.504-7.168 0-14.464 1.792-21.12 5.632-20.48 11.691-27.563 37.76-15.872 58.197l134.187 234.837h-182.485c-15.189 0-29.269 8.107-36.907 21.248s-7.68 29.397-0.128 42.581l170.667 298.667c11.691 20.437 37.803 27.52 58.197 15.872zM675.584 704c50.987 0 92.416-46.464 92.416-103.637v-304.725c0-57.173-41.387-103.637-92.416-103.637h-168.875l48.725 85.333h119.893c2.219 0.981 7.339 7.509 7.339 18.304v304.725c0 11.051-5.376 17.579-7.467 18.347h-180.736l48.768 85.291zM346.667 704l-48.768-85.333h-120.107c-1.749-0.683-7.125-7.253-7.125-18.261v-304.768c0-11.008 5.376-17.579 7.509-18.347h180.651l-48.725-85.333h-132.309c-50.987 0.043-92.459 46.549-92.459 103.723v304.725c0 57.088 41.472 103.595 92.459 103.595h168.875zM896 576c23.552 0 42.667-19.115 42.667-42.667v-170.667c0-23.552-19.115-42.667-42.667-42.667s-42.667 19.115-42.667 42.667v170.667c0 23.552 19.115 42.667 42.667 42.667z" />
<glyph unicode="&#xe92a;" glyph-name="icons-behance" d="M565.333 546.005h128v21.333h-128v-21.333zM673.621 435.456h-87.936v0.427c0 26.368 17.579 46.763 44.288 46.763 26.453 0 43.648-20.181 43.648-46.763v-0.427zM629.547 520.661c-57.771 0-97.28-35.712-97.28-96.085v-18.816c0-63.104 39.296-98.432 99.541-98.432 58.795 0 87.339 32.853 92.544 65.835h-50.517c-4.565-16.725-19.883-26.795-41.6-26.795-27.733 0-46.549 19.797-46.549 51.029v5.632h140.715v20.224c0 59.221-37.035 97.408-96.853 97.408zM393.344 352.555h-40.917v82.475h52.352c32.299 0 49.92-16.043 49.92-42.24 0-26.411-17.792-40.235-61.355-40.235zM352.427 547.413h48.853c25.813 0 40.917-13.824 40.917-36.352 0-24.192-16.341-37.803-53.376-37.803h-36.395v74.155zM448.768 457.216v2.389c27.605 6.741 47.872 27.051 47.872 60.757 0 42.453-32.725 68.309-82.645 68.309h-116.395v-277.333h116.181c56.661 0 97.152 28.629 97.152 78.208 0 41.6-28.629 64.427-62.165 67.669zM512 106.667c-188.203 0-341.333 153.131-341.333 341.333s153.131 341.333 341.333 341.333 341.333-153.131 341.333-341.333-153.131-341.333-341.333-341.333zM512 874.667c-235.264 0-426.667-191.403-426.667-426.667s191.403-426.667 426.667-426.667 426.667 191.403 426.667 426.667-191.403 426.667-426.667 426.667z" />
<glyph unicode="&#xe92b;" glyph-name="icons-bell-off" d="M883.499 136.875l-682.667 682.667c-16.64 16.64-43.648 16.64-60.331 0-16.64-16.683-16.64-43.648 0-60.331l682.667-682.624c8.32-8.32 19.243-12.501 30.165-12.501s21.845 4.181 30.165 12.501c16.683 16.64 16.683 43.648 0 60.331zM597.333 177.493v14.507h-170.667v-14.507c0-38.4 39.083-70.827 85.333-70.827s85.333 32.427 85.333 70.827zM647.339 192l33.28-33.28c-10.283-77.099-81.536-137.387-168.619-137.387-94.123 0-170.667 70.059-170.667 156.16v14.507h-143.488c-28.331 0-53.632 16.939-64.512 43.093-10.837 26.197-4.907 56.021 15.061 76.075l76.843 76.971 0.043 199.552c0 8.405 0.64 16.725 1.323 25.045l84.053-83.968v-140.629c0-22.784-8.917-44.203-25.045-60.331l-50.304-50.475h326.699l85.333-85.333zM361.301 719.36l-61.141 61.227c7.339 8.064 15.104 15.787 23.381 23.040 62.165 54.4 144.768 79.445 226.859 68.48 141.653-18.773 248.363-144.896 248.363-293.419v-190.592l76.8-76.971c20.053-20.053 25.941-49.92 15.061-76.075-4.267-10.325-11.264-18.645-19.328-25.6l-153.813 153.771c-2.389 7.979-4.053 16.213-4.053 24.875v190.635c0 105.899-74.88 195.669-174.165 208.853-58.709 7.68-115.2-9.387-159.488-48.213-6.912-6.016-12.501-13.141-18.432-19.968z" />
<glyph unicode="&#xe92c;" glyph-name="icons-bell-on" d="M235.307 277.333l50.347 50.432c16.128 16.128 25.003 37.547 25.003 60.331v199.552c0 57.899 25.173 113.237 69.12 151.723 44.288 38.827 100.693 55.893 159.445 48.171 99.285-13.184 174.165-102.955 174.165-208.853v-190.592c0-22.784 8.875-44.203 24.96-60.288l50.347-50.475h-553.344zM597.333 177.451c0-38.357-39.083-70.784-85.333-70.784s-85.333 32.427-85.333 70.784v14.549h170.667v-14.549zM875.52 311.125l-76.8 76.971v190.592c0 148.523-106.752 274.688-248.32 293.419-82.005 10.923-164.779-14.123-226.859-68.565-62.464-54.699-98.261-133.376-98.261-215.893l-0.043-199.552-76.843-76.971c-20.053-20.053-25.941-49.877-15.104-76.032 10.88-26.197 36.181-43.093 64.512-43.093h143.531v-14.549c0-86.101 76.544-156.117 170.667-156.117s170.667 70.016 170.667 156.117v14.549h143.488c28.331 0 53.589 16.896 64.427 43.051 10.88 26.197 4.992 56.064-15.019 76.075z" />
<glyph unicode="&#xe92d;" glyph-name="icons-bluetooth" d="M554.667 181.333v173.739l105.259-101.547-105.259-72.192zM554.667 714.24l106.539-73.984-106.539-100.523v174.507zM581.504 447.701l171.307 161.707c10.709 10.197 16.171 24.32 15.061 38.955-1.152 14.635-8.747 27.819-20.907 36.267l-199.424 138.368c-15.317 10.752-35.2 11.947-51.84 3.285-16.256-8.491-26.368-25.045-26.368-43.179v-264.747l-136.235 169.685c-14.805 18.389-41.6 21.333-59.989 6.528-18.389-14.72-21.333-41.557-6.571-59.904l148.224-184.661-149.547-188.885c-14.635-18.475-11.52-45.227 6.955-59.947 7.851-6.187 17.195-9.173 26.496-9.173 12.544 0 25.003 5.547 33.451 16.213l137.216 173.227v-268.501c0-18.091 10.027-34.603 26.155-43.136 7.424-3.883 15.445-5.803 23.467-5.803 9.899 0 19.755 2.944 28.331 8.789l198.059 135.936c12.16 8.32 19.84 21.547 20.992 36.096 1.195 14.549-4.181 28.757-14.72 38.827l-170.112 164.053z" />
<glyph unicode="&#xe92e;" glyph-name="icons-book-close" d="M298.667 149.333c-23.509 0-42.667 19.157-42.667 42.667s19.157 42.667 42.667 42.667h469.333v-85.333h-469.333zM298.667 746.667h469.333v-426.667h-469.333c-15.061 0-29.269-3.072-42.667-7.851v391.851c0 23.509 19.157 42.667 42.667 42.667zM810.667 832h-512c-70.571 0-128-57.429-128-128v-512c0-70.571 57.429-128 128-128h512c23.552 0 42.667 19.115 42.667 42.667v682.667c0 23.552-19.115 42.667-42.667 42.667z" />
<glyph unicode="&#xe92f;" glyph-name="icons-book-open" d="M810.667 260.181l-256-57.515v433.195l256 57.472v-433.152zM213.333 693.333l256-57.472v-433.195l-256 57.515v433.152zM880 780.032c-10.155 8.064-23.381 11.093-36.053 8.277l-331.947-74.581-331.947 74.581c-12.715 2.901-25.899-0.213-36.053-8.277-10.112-8.192-16-20.395-16-33.365v-520.619c0-19.968 13.824-37.248 33.28-41.6l341.333-76.715c3.157-0.725 6.272-1.067 9.387-1.067s6.229 0.341 9.387 1.067l341.333 76.715c19.456 4.352 33.28 21.632 33.28 41.6v520.619c0 12.971-5.888 25.173-16 33.365z" />
<glyph unicode="&#xe930;" glyph-name="icons-bookmark" d="M504.363 298.411c7.253 0 14.507-1.835 20.992-5.504l199.979-113.067v552.533c0 8.576-5.12 14.251-8.533 14.251h-409.6c-3.413 0-8.533-5.675-8.533-14.251v-550.4l183.723 110.293c6.827 4.053 14.379 6.101 21.973 6.101zM256.043 64c-7.253 0-14.507 1.835-21.077 5.547-13.355 7.552-21.632 21.76-21.632 37.12v625.749c0 54.912 42.112 99.584 93.867 99.584h409.6c51.755 0 93.867-44.672 93.867-99.584v-625.749c0-15.189-8.064-29.227-21.163-36.864-13.141-7.68-29.269-7.808-42.496-0.299l-242.005 136.875-227.072-136.32c-6.741-4.011-14.336-6.059-21.931-6.059z" />
<glyph unicode="&#xe931;" glyph-name="icons-briefcase" d="M426.667 725.333c0 11.776 9.557 21.333 21.333 21.333h128c11.776 0 21.333-9.557 21.333-21.333v-64h-170.667v64zM640 576v-426.667h-256v426.667h256zM810.667 576c23.509 0 42.667-19.157 42.667-42.667v-341.333c0-23.509-19.157-42.667-42.667-42.667h-85.333v426.667h85.333zM298.667 576v-426.667h-85.333c-23.509 0-42.667 19.157-42.667 42.667v341.333c0 23.509 19.157 42.667 42.667 42.667h85.333zM810.667 661.333h-128v64c0 58.795-47.872 106.667-106.667 106.667h-128c-58.795 0-106.667-47.872-106.667-106.667v-64h-128c-70.571 0-128-57.429-128-128v-341.333c0-70.571 57.429-128 128-128h597.333c70.571 0 128 57.429 128 128v341.333c0 70.571-57.429 128-128 128z" />
<glyph unicode="&#xe932;" glyph-name="icons-browser" d="M341.333 704c23.552 0 42.667-19.072 42.667-42.667s-19.115-42.667-42.667-42.667-42.667 19.072-42.667 42.667c0 23.595 19.115 42.667 42.667 42.667zM512 704c23.552 0 42.667-19.072 42.667-42.667s-19.115-42.667-42.667-42.667-42.667 19.072-42.667 42.667c0 23.595 19.115 42.667 42.667 42.667zM213.333 576v128c0 23.552 19.157 42.667 42.667 42.667h512c23.509 0 42.667-19.115 42.667-42.667v-128h-597.333zM810.667 192c0-23.552-19.157-42.667-42.667-42.667h-512c-23.509 0-42.667 19.115-42.667 42.667v298.667h597.333v-298.667zM768 832h-512c-70.571 0-128-57.429-128-128v-512c0-70.571 57.429-128 128-128h512c70.571 0 128 57.429 128 128v512c0 70.571-57.429 128-128 128z" />
<glyph unicode="&#xe933;" glyph-name="icons-brush" d="M758.016 644.565l-250.325-250.24c-6.443 9.643-13.824 18.773-22.229 27.136-8.405 8.405-17.536 15.787-27.179 22.059l250.411 250.325c13.056 13.099 36.181 13.141 49.365 0 6.528-6.571 10.069-15.104 9.941-25.173 0.128-8.96-3.456-17.493-9.984-24.107zM351.829 194.56l-95.061-1.707 1.664 95.147c0.853 54.016 45.653 98.816 99.797 99.755l1.707 0.043c24.917 0 48-9.387 65.195-26.624 17.621-17.579 27.051-41.301 26.624-66.816-0.896-54.101-45.739-98.859-99.925-99.797zM853.333 668.672c0.427 32.256-12.032 62.635-34.987 85.504-45.269 45.269-124.757 45.397-169.984 0l-282.155-282.027c-3.2 0.171-6.272 0.853-9.472 0.896-99.584-1.792-181.973-84.181-183.637-183.637l-2.432-139.349c-0.213-11.52 4.352-22.741 12.501-30.891 8.021-8.021 18.901-12.501 30.165-12.501h0.811l139.349 2.56c99.499 1.707 181.845 84.096 183.595 183.637 0 3.2-0.64 6.229-0.725 9.472l281.984 281.899c22.955 22.955 35.413 53.333 34.987 84.48z" />
<glyph unicode="&#xe934;" glyph-name="icons-bulb" d="M817.835 684.075l-61.355-59.307c-8.277-7.979-18.987-11.947-29.653-11.947-11.179 0-22.315 4.352-30.677 13.013-16.341 16.896-15.915 43.947 1.067 60.288l61.355 59.307c16.939 16.299 44.075 15.872 60.288-1.067 16.384-16.896 15.915-43.947-1.024-60.288zM327.851 625.835c-8.363-8.661-19.499-13.056-30.677-13.056-10.667 0-21.376 3.968-29.653 11.947l-61.397 59.307c-16.939 16.384-17.408 43.435-1.024 60.331 16.384 16.939 43.349 17.493 60.331 1.067l61.397-59.264c16.939-16.384 17.408-43.435 1.024-60.331zM256 448c0-23.595-19.115-42.667-42.667-42.667h-85.333c-23.552 0-42.667 19.072-42.667 42.667s19.115 42.667 42.667 42.667h85.333c23.552 0 42.667-19.072 42.667-42.667zM938.667 448c0-23.595-19.072-42.667-42.667-42.667h-85.333c-23.595 0-42.667 19.072-42.667 42.667s19.072 42.667 42.667 42.667h85.333c23.595 0 42.667-19.072 42.667-42.667zM469.333 746.667v85.333c0 23.595 19.115 42.667 42.667 42.667s42.667-19.072 42.667-42.667v-85.333c0-23.595-19.115-42.667-42.667-42.667s-42.667 19.072-42.667 42.667zM576.043 337.365c-13.227-7.637-21.376-21.76-21.376-36.992v-193.707h-85.333v193.707c0 15.232-8.149 29.355-21.376 36.992-39.467 22.656-63.957 65.067-63.957 110.635 0 70.571 57.429 128 128 128s128-57.429 128-128c0-45.568-24.491-87.979-63.957-110.635zM512 661.333c-117.632 0-213.333-95.701-213.333-213.333 0-67.371 32.128-130.645 85.333-170.496v-170.837c0-47.061 38.272-85.333 85.333-85.333h85.333c47.061 0 85.333 38.272 85.333 85.333v170.837c53.163 39.851 85.333 103.125 85.333 170.496 0 117.632-95.701 213.333-213.333 213.333z" />
<glyph unicode="&#xe935;" glyph-name="icons-calendar" d="M341.333 320c23.467 0 42.667-19.2 42.667-42.667s-19.2-42.667-42.667-42.667-42.667 19.2-42.667 42.667 19.2 42.667 42.667 42.667zM682.667 320c23.467 0 42.667-19.2 42.667-42.667s-19.2-42.667-42.667-42.667h-170.667c-23.467 0-42.667 19.2-42.667 42.667s19.2 42.667 42.667 42.667zM768 106.667h-512c-23.509 0-42.667 19.157-42.667 42.667v256h597.333v-256c0-23.509-19.157-42.667-42.667-42.667zM256 704h42.667v-42.667c0-23.467 19.2-42.667 42.667-42.667s42.667 19.2 42.667 42.667v42.667h256v-42.667c0-23.467 19.2-42.667 42.667-42.667s42.667 19.2 42.667 42.667v42.667h42.667c23.509 0 42.667-19.157 42.667-42.667v-170.667h-597.333v170.667c0 23.509 19.157 42.667 42.667 42.667zM768 789.333h-42.667v42.667c0 23.467-19.2 42.667-42.667 42.667s-42.667-19.2-42.667-42.667v-42.667h-256v42.667c0 23.467-19.2 42.667-42.667 42.667s-42.667-19.2-42.667-42.667v-42.667h-42.667c-70.571 0-128-57.429-128-128v-512c0-70.571 57.429-128 128-128h512c70.571 0 128 57.429 128 128v512c0 70.571-57.429 128-128 128z" />
<glyph unicode="&#xe936;" glyph-name="icons-camera" d="M512 298.667c-35.285 0-64 28.715-64 64s28.715 64 64 64 64-28.715 64-64-28.715-64-64-64zM512 512c-82.347 0-149.333-66.987-149.333-149.333s66.987-149.333 149.333-149.333 149.333 66.987 149.333 149.333-66.987 149.333-149.333 149.333zM853.333 192c0-23.509-19.115-42.667-42.667-42.667h-597.333c-23.552 0-42.667 19.157-42.667 42.667v341.333c0 23.509 19.115 42.667 42.667 42.667h597.333c23.552 0 42.667-19.157 42.667-42.667v-341.333zM426.667 725.333c0 11.776 9.6 21.333 21.333 21.333h128c11.733 0 21.333-9.557 21.333-21.333v-64h-170.667v64zM810.667 661.333h-128v64c0 58.795-47.829 106.667-106.667 106.667h-128c-58.837 0-106.667-47.872-106.667-106.667v-64h-128c-70.571 0-128-57.429-128-128v-341.333c0-70.571 57.429-128 128-128h597.333c70.571 0 128 57.429 128 128v341.333c0 70.571-57.429 128-128 128z" />
<glyph unicode="&#xe937;" glyph-name="icons-car" d="M810.667 192c0-23.552-19.115-42.667-42.667-42.667s-42.667 19.115-42.667 42.667 19.115 42.667 42.667 42.667 42.667-19.115 42.667-42.667zM512 320h-341.333l0.683 426.667h468.651l-0.683-426.667h-127.317zM298.667 192c0-23.552-19.115-42.667-42.667-42.667s-42.667 19.115-42.667 42.667 19.115 42.667 42.667 42.667 42.667-19.115 42.667-42.667zM853.333 427.52v-107.52h-128v209.877l128-102.357zM922.667 481.323l-197.333 157.867v107.477c0 47.061-34.688 85.333-77.355 85.333h-485.333c-42.624 0-77.312-38.272-77.312-85.333v-426.667c0-37.248 21.888-68.651 52.096-80.299-5.973-14.763-9.429-30.805-9.429-47.701 0-70.571 57.429-128 128-128s128 57.429 128 128c0 15.061-3.072 29.269-7.893 42.667h271.787c-4.821-13.397-7.893-27.605-7.893-42.667 0-70.571 57.429-128 128-128s128 57.429 128 128c0 15.061-3.072 29.269-7.893 42.667h7.893c23.595 0 42.667 19.072 42.667 42.667v170.667c0 12.971-5.888 25.216-16 33.323z" />
<glyph unicode="&#xe938;" glyph-name="icons-cast" d="M785.067 832c61.184 0 110.933-53.163 110.933-118.485v-531.029c0-65.323-49.749-118.485-110.933-118.485h-59.733c-23.595 0-42.667 19.072-42.667 42.667s19.072 42.667 42.667 42.667h59.733c13.867 0 25.6 15.189 25.6 33.152v531.029c0 17.963-11.733 33.152-25.6 33.152h-546.133c-13.909 0-25.6-15.189-25.6-33.152v-52.181c0-23.595-19.115-42.667-42.667-42.667-23.595 0-42.667 19.072-42.667 42.667v52.181c0 65.323 49.749 118.485 110.933 118.485zM164.821 360.832c60.587 8.277 119.723-11.563 162.731-54.528 57.045-57.131 72.533-144.597 38.443-217.685-7.253-15.488-22.613-24.619-38.699-24.619-6.059 0-12.203 1.28-18.005 4.011-21.333 9.941-30.592 35.328-20.651 56.704 18.987 40.661 10.411 89.429-21.419 121.216-23.979 23.936-57.003 34.901-90.752 30.421-23.595-3.371-44.885 13.056-48.085 36.395-3.243 23.339 13.099 44.885 36.437 48.085zM164.821 530.048c107.563 14.933 212.907-20.48 289.493-97.024 88.405-88.491 121.643-218.112 86.656-338.261-5.419-18.688-22.443-30.763-40.96-30.763-3.84 0-7.893 0.555-11.904 1.707-22.613 6.571-35.627 30.251-29.013 52.864 26.24 90.325 1.28 187.691-65.109 254.123-57.557 57.515-136.789 83.883-217.472 72.875-23.424-3.285-44.885 13.056-48.128 36.352-3.243 23.339 13.056 44.885 36.395 48.128zM170.667 192c23.595 0 42.667-19.072 42.667-42.667s-19.072-42.667-42.667-42.667c-23.595 0-42.667 19.072-42.667 42.667s19.072 42.667 42.667 42.667z" />
<glyph unicode="&#xe939;" glyph-name="icons-checkmark-checkmark-1" d="M420.821 192c-11.776 0-23.040 4.864-31.104 13.44l-207.488 220.971c-16.171 17.152-15.275 44.16 1.877 60.288 17.195 16.128 44.203 15.275 60.288-1.877l176-187.349 358.741 392.619c15.957 17.451 42.923 18.603 60.331 2.731 17.365-15.872 18.56-42.88 2.688-60.245l-389.845-426.667c-7.979-8.789-19.328-13.824-31.147-13.909h-0.341z" />
<glyph unicode="&#xe93a;" glyph-name="icons-checkmark-checkmark" d="M420.821 192c-11.776 0-23.040 4.864-31.104 13.44l-207.488 220.971c-16.171 17.152-15.275 44.16 1.877 60.288 17.195 16.128 44.203 15.275 60.288-1.877l176-187.349 358.741 392.619c15.957 17.451 42.923 18.603 60.331 2.731 17.365-15.872 18.56-42.88 2.688-60.245l-389.845-426.667c-7.979-8.789-19.328-13.824-31.147-13.909h-0.341z" />
<glyph unicode="&#xe93b;" glyph-name="icons-checkmark-circle-2" d="M510.763 874.667c33.92-0.512 68.48-3.925 101.589-11.861 22.869-5.547 36.992-28.587 31.445-51.499-5.504-22.869-28.672-36.949-51.456-31.488-26.496 6.4-54.613 9.088-81.323 9.515-91.179-0.256-176.811-36.011-241.067-100.693-64.299-64.555-99.541-150.4-99.285-241.579s36.011-176.768 100.651-241.067c64.427-64.085 149.845-99.328 240.683-99.328h0.981c91.179 0.256 176.811 36.011 241.067 100.651 64.299 64.683 99.541 150.485 99.285 241.664-0.043 23.552 18.987 42.752 42.539 42.795 23.637 0 42.752-19.029 42.795-42.539 0.341-113.963-43.733-221.269-124.117-302.080-80.341-80.811-187.349-125.483-301.312-125.867h-1.237c-113.536 0-220.331 44.075-300.843 124.16-80.811 80.341-125.483 187.307-125.824 301.269-0.341 114.005 43.733 221.269 124.117 302.080 80.341 80.853 187.349 125.44 301.312 125.867zM778.581 689.451c15.531 17.621 42.453 19.499 60.203 3.968 17.707-15.488 19.499-42.453 3.968-60.203l-298.667-341.333c-7.765-8.875-18.859-14.123-30.677-14.549h-1.408c-11.307 0-22.144 4.48-30.165 12.501l-128 128c-16.683 16.683-16.683 43.648 0 60.331s43.648 16.683 60.331 0l95.744-95.744z" />
<glyph unicode="&#xe93c;" glyph-name="icons-checkmark-circle" d="M627.413 601.813l-161.451-212.011-69.675 89.045c-14.507 18.56-41.387 21.803-59.904 7.253-18.56-14.507-21.845-41.344-7.296-59.819l103.68-132.565c8.107-10.325 20.48-16.341 33.664-16.341h0.299c13.184 0 25.6 6.272 33.621 16.811l194.944 256c14.293 18.773 10.667 45.483-8.107 59.733-18.816 14.293-45.525 10.667-59.776-8.107zM512 106.667c-188.203 0-341.333 153.131-341.333 341.333s153.131 341.333 341.333 341.333 341.333-153.131 341.333-341.333-153.131-341.333-341.333-341.333zM512 874.667c-235.648 0-426.667-191.061-426.667-426.667s191.019-426.667 426.667-426.667 426.667 191.061 426.667 426.667-191.019 426.667-426.667 426.667z" />
<glyph unicode="&#xe93d;" glyph-name="icons-checkmark-square-2" d="M647.125 831.979c23.552 0 42.667-19.072 42.667-42.667 0-23.552-19.115-42.667-42.667-42.667v0h-408.192c-14.123 0-25.6-11.477-25.6-25.6v0-546.091c0-14.123 11.477-25.643 25.6-25.643v0h546.133c14.123 0 25.6 11.52 25.6 25.643v0 237.483c0 23.552 19.115 42.667 42.667 42.667s42.667-19.115 42.667-42.667v0-237.483c0-61.184-49.792-110.976-110.933-110.976v0h-546.133c-61.141 0-110.933 49.792-110.933 110.976v0 546.091c0 61.184 49.792 110.933 110.933 110.933v0zM780.015 691.008c16.341 16.896 43.349 17.408 60.331 0.981 16.939-16.384 17.365-43.392 0.981-60.331v0l-289.152-298.667c-8.021-8.32-19.072-13.013-30.635-13.013v0c-11.776 0.043-22.869 4.821-30.891 13.227v0l-94.848 99.413c-16.299 17.067-15.616 44.075 1.408 60.331 17.067 16.299 44.032 15.616 60.331-1.408v0l64.213-67.328z" />
<glyph unicode="&#xe93e;" glyph-name="icons-checkmark-square" d="M627.413 601.813l-161.451-212.011-69.675 89.045c-14.549 18.56-41.387 21.803-59.904 7.253-18.56-14.507-21.845-41.344-7.296-59.819l103.68-132.565c8.107-10.325 20.48-16.341 33.664-16.341h0.299c13.184 0 25.6 6.272 33.621 16.811l194.944 256c14.293 18.773 10.667 45.483-8.107 59.733-18.773 14.293-45.568 10.667-59.776-8.107zM810.667 192c0-23.552-19.157-42.667-42.667-42.667h-512c-23.509 0-42.667 19.115-42.667 42.667v512c0 23.552 19.157 42.667 42.667 42.667h512c23.509 0 42.667-19.115 42.667-42.667v-512zM768 832h-512c-70.571 0-128-57.429-128-128v-512c0-70.571 57.429-128 128-128h512c70.571 0 128 57.429 128 128v512c0 70.571-57.429 128-128 128z" />
<glyph unicode="&#xe93f;" glyph-name="icons-clipboard" d="M810.667 149.333c0-23.552-19.157-42.667-42.667-42.667h-512c-23.509 0-42.667 19.115-42.667 42.667v469.333c0 23.552 19.157 42.667 42.667 42.667v-42.667c0-47.061 38.272-85.333 85.333-85.333h341.333c47.061 0 85.333 38.272 85.333 85.333v42.667c23.509 0 42.667-19.115 42.667-42.667v-469.333zM341.333 789.333l341.333-0.128v-170.539h-341.333v170.667zM768 746.667v42.667c0 47.061-38.272 85.333-85.333 85.333h-341.333c-47.061 0-85.333-38.272-85.333-85.333v-42.667c-70.571 0-128-57.429-128-128v-469.333c0-70.571 57.429-128 128-128h512c70.571 0 128 57.429 128 128v469.333c0 70.571-57.429 128-128 128z" />
<glyph unicode="&#xe940;" glyph-name="icons-clock" d="M682.667 490.667h-128v128c0 23.595-19.115 42.667-42.667 42.667s-42.667-19.072-42.667-42.667v-170.667c0-23.595 19.115-42.667 42.667-42.667h170.667c23.595 0 42.667 19.072 42.667 42.667s-19.072 42.667-42.667 42.667zM512 106.667c-188.203 0-341.333 153.131-341.333 341.333s153.131 341.333 341.333 341.333 341.333-153.131 341.333-341.333-153.131-341.333-341.333-341.333zM512 874.667c-235.264 0-426.667-191.403-426.667-426.667s191.403-426.667 426.667-426.667 426.667 191.403 426.667 426.667-191.403 426.667-426.667 426.667z" />
<glyph unicode="&#xe941;" glyph-name="icons-close-close-1" d="M572.331 448l183.168 183.168c16.683 16.683 16.683 43.648 0 60.331-16.64 16.683-43.648 16.683-60.331 0l-183.168-183.168-183.168 183.168c-16.64 16.683-43.648 16.683-60.331 0-16.64-16.683-16.64-43.648 0-60.331l183.168-183.168-183.168-183.168c-16.64-16.683-16.64-43.648 0-60.331 8.32-8.32 19.243-12.501 30.165-12.501s21.845 4.181 30.165 12.501l183.168 183.168 183.168-183.168c8.32-8.32 19.243-12.501 30.165-12.501s21.845 4.181 30.165 12.501c16.683 16.683 16.683 43.648 0 60.331l-183.168 183.168z" />
<glyph unicode="&#xe942;" glyph-name="icons-close-close" d="M627.499 563.499c-16.683 16.683-43.648 16.683-60.331 0l-55.168-55.168-55.168 55.168c-16.683 16.683-43.648 16.683-60.331 0s-16.683-43.648 0-60.331l55.168-55.168-55.168-55.168c-16.683-16.683-16.683-43.648 0-60.331 8.32-8.32 19.243-12.501 30.165-12.501s21.845 4.181 30.165 12.501l55.168 55.168 55.168-55.168c8.32-8.32 19.243-12.501 30.165-12.501s21.845 4.181 30.165 12.501c16.683 16.683 16.683 43.648 0 60.331l-55.168 55.168 55.168 55.168c16.683 16.683 16.683 43.648 0 60.331zM512 106.667c-188.203 0-341.333 153.131-341.333 341.333s153.131 341.333 341.333 341.333 341.333-153.131 341.333-341.333-153.131-341.333-341.333-341.333zM512 874.667c-235.264 0-426.667-191.403-426.667-426.667s191.403-426.667 426.667-426.667 426.667 191.403 426.667 426.667-191.403 426.667-426.667 426.667z" />
<glyph unicode="&#xe943;" glyph-name="icons-close-square" d="M627.499 563.499c-16.683 16.683-43.648 16.683-60.331 0l-55.168-55.168-55.168 55.168c-16.683 16.683-43.648 16.683-60.331 0s-16.683-43.648 0-60.331l55.168-55.168-55.168-55.168c-16.683-16.683-16.683-43.648 0-60.331 8.32-8.32 19.243-12.501 30.165-12.501s21.845 4.181 30.165 12.501l55.168 55.168 55.168-55.168c8.32-8.32 19.243-12.501 30.165-12.501s21.845 4.181 30.165 12.501c16.683 16.683 16.683 43.648 0 60.331l-55.168 55.168 55.168 55.168c16.683 16.683 16.683 43.648 0 60.331zM810.667 192c0-23.552-19.115-42.667-42.667-42.667h-512c-23.552 0-42.667 19.115-42.667 42.667v512c0 23.552 19.115 42.667 42.667 42.667h512c23.552 0 42.667-19.115 42.667-42.667v-512zM768 832h-512c-70.571 0-128-57.429-128-128v-512c0-70.571 57.429-128 128-128h512c70.571 0 128 57.429 128 128v512c0 70.571-57.429 128-128 128z" />
<glyph unicode="&#xe944;" glyph-name="icons-cloud-download" d="M512 490.667c23.552 0 42.667-19.072 42.667-42.667v-240.811l55.68 53.76c16.981 16.341 43.989 15.872 60.331-1.067 16.384-16.981 15.915-43.947-1.024-60.331l-128-123.605c-8.32-7.936-18.987-11.947-29.653-11.947-10.923 0-21.845 4.139-30.165 12.501l-128 128c-16.64 16.64-16.64 43.648 0 60.331 16.64 16.64 43.648 16.64 60.331 0l55.168-55.168v238.336c0 23.595 19.115 42.667 42.667 42.667zM512 832c110.080 0 207.147-70.827 242.133-172.587 104.064-14.080 184.533-103.552 184.533-211.413 0-52.053-18.944-102.229-53.333-141.184-8.448-9.515-20.181-14.421-32-14.421-10.027 0-20.096 3.499-28.245 10.667-17.621 15.659-19.328 42.581-3.712 60.288 20.608 23.296 31.957 53.419 31.957 84.651 0 70.571-57.429 128-128 128h-4.267c-20.309 0-37.803 14.336-41.813 34.261-15.957 79.019-86.272 136.405-167.253 136.405-80.939 0-151.296-57.387-167.253-136.405-3.968-19.925-21.504-34.261-41.813-34.261h-4.267c-70.571 0-128-57.429-128-128 0-31.232 11.349-61.355 32-84.651 15.573-17.707 13.909-44.629-3.755-60.288-17.707-15.616-44.629-13.867-60.203 3.755-34.432 38.955-53.376 89.131-53.376 141.227 0 107.819 80.469 197.248 184.533 211.371 34.987 101.76 132.053 172.587 242.133 172.587z" />
<glyph unicode="&#xe945;" glyph-name="icons-cloud-upload" d="M482.347 478.72c16.811 16.043 43.392 15.915 59.819-0.555l128-128c16.683-16.683 16.683-43.648 0-60.331-8.32-8.32-19.243-12.501-30.165-12.501s-21.845 4.181-30.165 12.501l-55.168 55.168v-238.336c0-23.595-19.115-42.667-42.667-42.667s-42.667 19.072-42.667 42.667v240.811l-55.68-53.76c-16.939-16.427-43.947-15.872-60.331 1.067-16.384 16.981-15.915 43.947 1.024 60.331zM512 832c110.080 0 207.147-70.827 242.133-172.587 104.064-14.080 184.533-103.552 184.533-211.413 0-52.053-18.944-102.229-53.333-141.184-8.448-9.515-20.181-14.421-32-14.421-10.027 0-20.096 3.499-28.245 10.667-17.621 15.659-19.328 42.581-3.712 60.288 20.608 23.296 31.957 53.419 31.957 84.651 0 70.571-57.429 128-128 128h-4.267c-20.309 0-37.803 14.336-41.813 34.261-15.957 79.019-86.272 136.405-167.253 136.405-80.939 0-151.296-57.387-167.253-136.405-3.968-19.925-21.504-34.261-41.813-34.261h-4.267c-70.571 0-128-57.429-128-128 0-31.232 11.349-61.355 32-84.651 15.573-17.707 13.909-44.629-3.755-60.288-17.664-15.616-44.629-13.867-60.203 3.755-34.432 38.955-53.376 89.131-53.376 141.227 0 107.819 80.469 197.248 184.533 211.371 34.987 101.76 132.053 172.587 242.133 172.587z" />
<glyph unicode="&#xe946;" glyph-name="icons-code-download" d="M308.523 731.307c15.147 18.091 41.984 20.523 60.16 5.461 18.048-15.061 20.523-41.984 5.461-60.117l-191.019-229.12 184.107-228.779c14.763-18.347 11.904-45.227-6.485-60.032-7.851-6.315-17.323-9.387-26.709-9.387-12.501 0-24.832 5.461-33.28 15.915l-205.995 256c-12.757 15.829-12.544 38.443 0.427 54.059zM663.253 737.237c18.347 14.848 45.141 11.861 59.989-6.485l205.995-256c12.8-15.829 12.544-38.443-0.427-54.101l-213.333-256c-8.491-10.112-20.608-15.317-32.853-15.317-9.643 0-19.285 3.243-27.307 9.856-18.091 15.104-20.48 42.027-5.461 60.16l191.019 229.12-184.149 228.779c-14.72 18.389-11.861 45.227 6.528 59.989zM512 661.291c23.595 0 42.667-19.029 42.667-42.667v-198.101l55.723 53.76c16.896 16.384 43.947 15.787 60.331-1.067 16.341-16.939 15.872-43.947-1.067-60.331l-128-123.605c-8.277-7.936-18.987-11.947-29.653-11.947-10.923 0-21.803 4.181-30.165 12.501l-128 128c-16.64 16.64-16.64 43.691 0 60.331s43.691 16.64 60.331 0l55.168-55.125v195.627c0 23.595 19.115 42.667 42.667 42.667z" />
<glyph unicode="&#xe947;" glyph-name="icons-code" d="M308.565 731.307c15.061 18.133 41.899 20.565 60.117 5.504 18.091-15.104 20.48-41.984 5.461-60.16l-191.019-229.12 184.149-228.779c14.72-18.347 11.861-45.227-6.528-59.989-7.851-6.315-17.323-9.429-26.709-9.429-12.459 0-24.832 5.461-33.28 15.915l-205.995 256c-12.8 15.872-12.544 38.485 0.427 54.101zM663.253 737.237c18.347 14.848 45.227 11.861 59.989-6.485l205.995-256c12.8-15.829 12.544-38.443-0.427-54.101l-213.333-256c-8.491-10.112-20.608-15.317-32.853-15.317-9.643 0-19.285 3.243-27.307 9.856-18.091 15.104-20.48 42.027-5.461 60.16l191.019 229.12-184.149 228.779c-14.72 18.389-11.861 45.227 6.528 59.989z" />
<glyph unicode="&#xe948;" glyph-name="icons-collapse" d="M213.547 405.333l213.205-1.067c23.467-0.128 42.411-19.2 42.411-42.667l0.213-212.224c0-23.552-19.115-42.709-42.667-42.709l-4.992 0.256c-21.248 2.475-37.717 20.523-37.717 42.411l-0.085 110.293-140.459-140.416c-8.32-8.363-19.243-12.544-30.123-12.544s-21.803 4.181-30.165 12.501c-16.64 16.64-16.64 43.691 0 60.331l139.947 139.947-109.995 0.555c-23.595 0.128-42.581 19.371-42.453 42.88 0.128 23.467 19.2 42.453 42.667 42.453h0.213zM597.333 789.333c23.467 0 42.581-18.944 42.667-42.453l0.512-109.995 139.947 139.947c16.683 16.683 43.691 16.683 60.373 0 16.64-16.683 16.64-43.648 0-60.331l-140.416-140.459 110.251-0.043c23.552 0 42.667-19.115 42.667-42.709 0-23.552-19.115-42.624-42.667-42.624l-212.309 0.128c-23.467 0-42.496 18.987-42.667 42.453l-1.024 213.205c-0.085 23.552 18.901 42.752 42.453 42.88z" />
<glyph unicode="&#xe949;" glyph-name="icons-color-palette" d="M262.869 479.701c29.312 19.797 69.12 12.032 88.832-17.237 19.797-29.312 12.032-69.077-17.237-88.832-29.312-19.797-69.077-12.075-88.832 17.237-19.797 29.269-12.075 69.12 17.237 88.832zM650.667 652.8c30.635 17.664 69.76 7.168 87.424-23.467 17.664-30.592 7.168-69.717-23.424-87.381-30.635-17.664-69.76-7.253-87.424 23.424-17.664 30.592-7.168 69.76 23.424 87.424zM285.909 629.333c17.664 30.635 56.832 41.131 87.424 23.467 30.635-17.664 41.088-56.832 23.424-87.467-17.664-30.592-56.789-41.045-87.424-23.381-30.592 17.664-41.088 56.747-23.424 87.424zM512 746.667c35.328 0 64-28.672 64-64s-28.672-64-64-64-64 28.672-64 64 28.672 64 64 64zM677.547 319.957h-70.4c-58.795 0-106.667-47.829-106.667-106.667 0-25.856 9.6-50.901 26.965-70.528 5.291-5.973 7.040-13.013 5.12-20.821-2.048-8.747-12.117-14.421-25.301-15.275-97.408 1.323-189.867 44.459-253.696 118.315-64.64 74.88-93.013 170.837-79.787 270.165 21.845 163.541 168.917 292.779 334.933 294.187h3.2c100.565 0 195.328-38.4 260.565-105.728 54.955-56.704 83.627-129.024 80.64-203.605-3.413-85.248-85.419-160.043-175.531-160.043zM833.707 743.040c-82.048 84.651-201.6 131.925-325.717 131.627h-0.043c-210.944-1.792-390.997-160.085-418.688-368.256-16.299-122.027 20.053-244.949 99.755-337.195 79.701-92.331 195.285-146.219 317.013-147.883h1.664c51.2 0 96.341 33.579 107.819 80.469 8.491 35.072-0.341 70.656-24.192 97.621-3.499 3.883-5.461 8.96-5.461 13.867 0 11.733 9.557 21.333 21.333 21.333h70.4c136.192 0 255.573 110.848 260.779 242.005 3.925 98.133-33.28 192.725-104.661 266.411z" />
<glyph unicode="&#xe94a;" glyph-name="icons-color-picker" d="M685.056 505.941l-115.029 115.029 81.579 81.536 114.944-114.944-81.493-81.621zM387.371 208l-126.976-11.52 11.264 126.080 238.037 238.080 115.029-115.029-237.355-237.611zM827.861 646.955l-116.907 116.907c-32.725 32.725-84.736 33.92-115.797 2.859l-85.461-85.419-52.907 52.907c-16.64 16.64-43.605 16.64-60.288 0-16.64-16.725-16.64-43.733 0-60.373l52.864-52.864-238.080-238.080c-13.867-13.867-22.485-32.299-24.32-51.797l-16.128-177.92c-1.109-12.587 3.371-25.045 12.331-34.005 8.064-8.064 18.944-12.501 30.165-12.501 1.28 0 2.56 0.043 3.84 0.171l177.92 16.128c19.541 1.792 37.973 10.453 51.84 24.32l238.080 238.080 52.821-52.864c8.363-8.363 19.2-12.501 30.165-12.501 10.923 0 21.845 4.139 30.165 12.501 16.64 16.64 16.64 43.648 0 60.331l-52.821 52.821 85.419 85.461c31.147 31.147 29.824 83.072-2.901 115.84z" />
<glyph unicode="&#xe94b;" glyph-name="icons-compass" d="M460.672 396.245l30.464 74.325 72.192 29.184-30.464-74.325-72.192-29.184zM669.141 605.099c-11.691 12.373-30.037 17.152-46.933 10.496l-179.712-72.619c-10.667-4.267-19.2-12.715-23.509-23.381l-74.453-181.675c-6.315-15.36-2.603-32 7.595-43.861 0.341-0.427 0.597-0.981 0.981-1.451 0.683-0.725 1.493-1.28 2.261-2.048 8.021-8.235 18.901-13.227 30.421-13.227 5.333 0 10.752 0.981 15.957 3.072l179.755 72.576c10.667 4.352 19.157 12.8 23.467 23.467l74.496 181.632c6.912 16.811 2.133 35.243-10.325 47.019zM512 106.667c-188.203 0-341.333 153.131-341.333 341.333s153.131 341.333 341.333 341.333 341.333-153.131 341.333-341.333-153.131-341.333-341.333-341.333zM512 874.667c-235.264 0-426.667-191.403-426.667-426.667s191.403-426.667 426.667-426.667 426.667 191.403 426.667 426.667-191.403 426.667-426.667 426.667z" />
<glyph unicode="&#xe94c;" glyph-name="icons-copy" d="M512 490.667c-23.509 0-42.667-19.157-42.667-42.667v-256c0-23.509 19.157-42.667 42.667-42.667h256c23.552 0 42.667 19.157 42.667 42.667v256c0 23.509-19.115 42.667-42.667 42.667h-256zM526.208 832c62.763 0 113.792-51.029 113.792-113.792v-142.208h128c70.571 0 128-57.429 128-128v-256c0-70.571-57.429-128-128-128h-256c-70.571 0-128 57.429-128 128v128h-142.208c-62.763 0-113.792 51.029-113.792 113.792v284.416c0 62.763 51.029 113.792 113.792 113.792h284.416zM526.208 746.667h-284.416c-15.701 0-28.459-12.757-28.459-28.459v-284.416c0-15.701 12.757-28.459 28.459-28.459h142.208v42.667c0 70.571 57.429 128 128 128h42.667v142.208c0 15.701-12.757 28.459-28.459 28.459z" />
<glyph unicode="&#xe94d;" glyph-name="icons-corner-down-left" d="M852.053 704.171c-0.043 23.509-19.2 42.496-42.667 42.496h-0.128c-23.552-0.085-42.581-19.285-42.496-42.837l0.853-213.333c0-11.392-4.309-22.144-12.373-30.208-8.021-8.107-18.688-12.587-30.080-12.629l-380.587-1.579 114.645 144.469c14.635 18.475 11.52 45.312-6.912 59.947s-45.269 11.477-59.947-6.912l-169.813-214.016c-12.373-15.659-12.245-37.76 0.256-53.333l171.52-212.608c8.448-10.453 20.779-15.872 33.237-15.872 9.387 0 18.901 3.115 26.795 9.472 18.304 14.763 21.205 41.643 6.4 59.989l-115.797 143.531 380.544 1.579c34.133 0.128 66.261 13.568 90.368 37.845 24.064 24.277 37.248 56.491 37.12 90.667l-0.896 213.333z" />
<glyph unicode="&#xe94e;" glyph-name="icons-corner-down-right" d="M843.947 431.957l-170.667 213.333c-14.677 18.475-41.557 21.419-59.904 6.699-18.432-14.72-21.419-41.557-6.699-59.947l115.2-144.085h-380.544c-23.467 0-42.667 19.2-42.667 42.667v213.376c0 23.637-19.072 42.667-42.667 42.667-23.509 0-42.667-19.029-42.667-42.667v-213.333c0-70.571 57.472-128 128-128h380.587l-115.2-143.957c-14.72-18.389-11.733-45.269 6.699-59.947 7.851-6.315 17.28-9.387 26.624-9.387 12.501 0 24.917 5.461 33.28 16l170.667 213.333c12.501 15.616 12.501 37.717 0 53.333z" />
<glyph unicode="&#xe94f;" glyph-name="icons-corner-left-down" d="M768 746.667h-213.333c-70.571 0-128-57.429-128-128v-380.544l-144 115.2c-18.347 14.677-45.312 11.733-59.989-6.656-14.72-18.432-11.733-45.269 6.656-59.989l213.333-170.667c7.808-6.229 17.237-9.344 26.667-9.344s18.859 3.115 26.667 9.344l213.333 170.667c18.389 14.72 21.376 41.557 6.656 59.989-14.677 18.389-41.557 21.376-59.989 6.656l-144-115.2v380.544c0 23.509 19.2 42.667 42.667 42.667h213.333c23.552 0 42.667 19.115 42.667 42.667s-19.115 42.667-42.667 42.667z" />
<glyph unicode="&#xe950;" glyph-name="icons-corner-left-up" d="M768 234.667h-213.333c-23.509 0-42.667 19.157-42.667 42.667v380.544l144-115.2c7.893-6.272 17.28-9.344 26.667-9.344 12.459 0 24.875 5.461 33.323 16 14.72 18.432 11.733 45.269-6.656 59.989l-213.333 170.667c-15.616 12.459-37.717 12.459-53.333 0l-213.333-170.667c-18.389-14.72-21.376-41.557-6.656-59.989 14.677-18.389 41.6-21.333 59.989-6.656l144 115.2v-380.544c0-70.571 57.429-128 128-128h213.333c23.552 0 42.667 19.115 42.667 42.667s-19.115 42.667-42.667 42.667z" />
<glyph unicode="&#xe951;" glyph-name="icons-corner-right-down" d="M801.28 346.624c-14.677 18.432-41.557 21.419-59.904 6.656l-144.043-115.2v380.587c0 70.571-57.387 128-128 128h-213.333c-23.552 0-42.667-19.072-42.667-42.667s19.115-42.667 42.667-42.667h213.333c23.552 0 42.667-19.157 42.667-42.667v-380.587l-144 115.2c-18.347 14.763-45.227 11.819-59.989-6.613-14.72-18.389-11.733-45.312 6.699-59.947l213.333-170.667c7.765-6.229 17.195-9.387 26.624-9.387 9.387 0 18.859 3.115 26.667 9.387l213.333 170.667c18.347 14.635 21.333 41.515 6.656 59.904z" />
<glyph unicode="&#xe952;" glyph-name="icons-corner-right-up" d="M794.667 609.28l-213.333 170.667c-15.616 12.501-37.717 12.501-53.333 0l-213.333-170.667c-18.389-14.677-21.333-41.515-6.613-59.904 14.677-18.389 41.557-21.376 59.904-6.699l144.043 115.2v-380.544c0-23.467-19.072-42.667-42.667-42.667h-213.333c-23.509 0-42.667-19.072-42.667-42.667 0-23.509 19.157-42.667 42.667-42.667h213.333c70.613 0 128 57.472 128 128v380.587l144.043-115.2c7.851-6.272 17.28-9.387 26.667-9.387 12.501 0 24.917 5.547 33.28 16.085 14.72 18.347 11.776 45.227-6.613 59.947z" />
<glyph unicode="&#xe953;" glyph-name="icons-corner-up-left" d="M682.667 533.333h-380.544l115.2 144c14.72 18.432 11.733 45.269-6.656 59.989-18.389 14.677-45.269 11.776-59.989-6.656l-170.667-213.333c-12.459-15.616-12.459-37.717 0-53.333l170.667-213.333c8.448-10.539 20.821-16 33.323-16 9.387 0 18.773 3.072 26.667 9.344 18.389 14.72 21.376 41.557 6.656 59.989l-115.2 144h380.544c23.509 0 42.667-19.157 42.667-42.667v-213.333c0-23.552 19.115-42.667 42.667-42.667s42.667 19.115 42.667 42.667v213.333c0 70.571-57.429 128-128 128z" />
<glyph unicode="&#xe954;" glyph-name="icons-corner-up-right" d="M843.989 517.291l-170.667 213.333c-14.805 18.432-41.6 21.461-59.989 6.699-18.347-14.72-21.333-41.557-6.656-59.947l115.243-144.085h-380.587c-70.613 0-128-57.387-128-128v-213.333c0-23.509 19.115-42.667 42.667-42.667s42.667 19.157 42.667 42.667v213.333c0 23.595 19.115 42.667 42.667 42.667h380.587l-115.2-144c-14.763-18.347-11.776-45.227 6.613-59.947 7.851-6.315 17.28-9.387 26.624-9.387 12.544 0 24.917 5.547 33.365 16.085l170.667 213.333c12.459 15.573 12.459 37.675 0 53.248z" />
<glyph unicode="&#xe955;" glyph-name="icons-credit-card" d="M469.333 405.333c23.467 0 42.667-19.2 42.667-42.667s-19.2-42.667-42.667-42.667h-170.667c-23.467 0-42.667 19.2-42.667 42.667s19.2 42.667 42.667 42.667zM725.333 405.333c23.467 0 42.667-19.2 42.667-42.667s-19.2-42.667-42.667-42.667h-85.333c-23.467 0-42.667 19.2-42.667 42.667s19.2 42.667 42.667 42.667zM853.333 277.333c0-23.509-19.115-42.667-42.667-42.667h-597.333c-23.552 0-42.667 19.157-42.667 42.667v213.333h682.667v-213.333zM170.667 618.667c0 23.509 19.115 42.667 42.667 42.667h597.333c23.552 0 42.667-19.157 42.667-42.667v-42.667h-682.667v42.667zM810.667 746.667h-597.333c-70.571 0-128-57.429-128-128v-341.333c0-70.571 57.429-128 128-128h597.333c70.571 0 128 57.429 128 128v341.333c0 70.571-57.429 128-128 128z" />
<glyph unicode="&#xe956;" glyph-name="icons-crop" d="M365.056 277.333c-13.056 0-23.723 10.624-23.723 23.723v317.611h317.653c13.056 0 23.68-10.624 23.68-23.723v-317.611h-317.611zM896 277.333h-128v317.611c0 60.16-48.896 109.056-109.013 109.056h-317.653v128c0 23.595-19.072 42.667-42.667 42.667-23.552 0-42.667-19.072-42.667-42.667v-128h-128c-23.552 0-42.667-19.072-42.667-42.667s19.115-42.667 42.667-42.667h128v-317.611c0-60.16 48.939-109.056 109.056-109.056h317.611v-128c0-23.595 19.115-42.667 42.667-42.667 23.595 0 42.667 19.072 42.667 42.667v128h128c23.595 0 42.667 19.072 42.667 42.667s-19.072 42.667-42.667 42.667z" />
<glyph unicode="&#xe957;" glyph-name="icons-cube" d="M797.44 278.912l-242.773-112.811v286.592l256 118.912v-274.56c0-7.424-5.035-14.336-13.227-18.091zM226.261 278.912c-8.064 3.712-13.013 10.667-12.928 18.389v274.261l256-118.912v-286.635l-243.072 112.853zM499.499 743.979c3.883 1.749 8.235 2.688 12.501 2.688s8.576-0.853 12.459-2.731l227.413-105.557-239.872-111.445-239.872 111.445 227.413 105.557zM881.365 650.283c-0.171 0.341-0.128 0.725-0.299 1.067-0.128 0.341-0.427 0.555-0.683 0.896-1.963 3.243-4.352 6.101-6.613 9.088-1.28 1.451-2.389 3.072-3.84 4.309-10.027 11.776-21.845 22.187-36.523 28.928l-273.152 126.891c-30.677 14.165-65.877 14.123-96.64 0l-272.896-126.848c-14.677-6.784-26.539-17.067-36.565-28.885-1.579-1.28-2.731-3.115-4.139-4.693-2.219-2.859-4.48-5.632-6.357-8.704-0.213-0.384-0.555-0.64-0.725-0.981-0.171-0.384-0.128-0.768-0.299-1.152-9.003-15.445-14.635-32.811-14.635-51.072v-301.525c-0.341-40.533 24.064-78.251 62.208-96.085l273.067-126.805c15.403-7.211 32-10.795 48.555-10.795s33.109 3.584 48.512 10.752l272.939 126.805c38.059 17.579 62.72 55.040 62.72 95.488v302.208c0 18.261-5.632 35.627-14.677 51.115z" />
<glyph unicode="&#xe958;" glyph-name="icons-download" d="M810.667 277.333c23.467 0 42.667-19.2 42.667-42.667v-85.333c0-21.79-16.555-39.902-37.709-42.378l-4.958-0.288h-597.333c-23.467 0-42.667 19.2-42.667 42.667v85.333c0 23.467 19.2 42.667 42.667 42.667s42.667-19.2 42.667-42.667v-42.667h512v42.667c0 23.467 19.2 42.667 42.667 42.667zM512 832c23.595 0 42.667-19.115 42.667-42.667v-341.333l102.4 76.8c18.859 14.208 45.611 10.325 59.733-8.533 14.165-18.859 10.325-45.611-8.533-59.733l-170.667-128c-7.552-5.675-16.597-8.533-25.6-8.533-8.576 0-17.152 2.603-24.533 7.765l-170.667 120.064c-19.285 13.568-23.936 40.192-10.368 59.435 13.568 19.285 40.149 23.936 59.435 10.368l103.594-72.951c-0.084 1.095-0.127 2.202-0.127 3.319v341.333c0 23.552 19.072 42.667 42.667 42.667z" />
<glyph unicode="&#xe959;" glyph-name="icons-droplet-off" d="M255.701 583.595l61.099-61.099c-60.971-93.483-51.115-221.013 29.568-303.189 44.288-45.141 103.125-69.973 165.632-69.973 48.853 0.043 95.147 15.573 134.272 43.691l61.056-61.013c-55.723-43.947-123.563-67.968-195.243-68.011-85.717 0-166.144 33.92-226.56 95.531-113.408 115.456-123.093 296.832-29.824 424.064zM140.501 819.499c16.683 16.683 43.648 16.683 60.331 0l682.667-682.667c16.683-16.683 16.683-43.648 0-60.331-8.32-8.32-19.243-12.501-30.165-12.501s-21.845 4.181-30.165 12.501l-682.667 682.667c-16.683 16.683-16.683 43.648 0 60.331zM511.872 832c11.435 0 22.4-4.651 30.421-12.8l196.224-200.021c92.245-93.995 115.968-231.68 71.253-348.331l-68.565 68.693c15.915 76.885-5.12 160.299-63.616 219.904l-165.717 168.96-78.976-80.64-60.331 60.331 108.8 111.061c8.021 8.192 18.987 12.843 30.464 12.843z" />
<glyph unicode="&#xe95a;" glyph-name="icons-droplet-on" d="M535.851 728.363l-166.827-167.509c-92.843-93.141-94.080-245.717-2.901-340.139 43.904-45.525 102.528-70.869 164.992-71.381h0.085c62.507-0.469 121.557 23.893 166.187 68.693 92.757 92.971 93.995 245.504 2.773 340.011l-164.309 170.325zM530.432 64c-85.632 0.725-165.76 35.328-225.707 97.451-123.307 127.659-121.6 333.781 3.712 459.52l197.675 198.443c8.107 8.107 19.115 12.672 30.592 12.587 11.477-0.128 22.4-4.864 30.293-13.056l194.56-201.685c123.264-127.701 121.6-333.867-3.712-459.477-61.013-61.184-141.696-94.464-227.328-93.781h-0.085z" />
<glyph unicode="&#xe95b;" glyph-name="icons-edit-edit-1" d="M683.477 504.363l-114.987 114.987 83.115 83.2 114.944-114.987-83.072-83.2zM387.371 208l-126.976-11.52 11.264 126.080 239.659 239.659 115.029-115.029-238.933-239.189zM827.947 646.912l-116.864 116.864c-31.616 31.573-85.931 33.024-115.883 2.987l-383.829-383.872c-13.909-13.867-22.528-32.299-24.32-51.797l-16.213-177.92c-1.067-12.587 3.413-25.045 12.373-34.005 8.064-8.064 18.944-12.501 30.165-12.501 1.28 0 2.56 0.043 3.84 0.171l177.92 16.213c19.584 1.749 37.973 10.325 51.84 24.192l383.872 383.872c31.061 31.147 29.739 83.115-2.901 115.797z" />
<glyph unicode="&#xe95c;" glyph-name="icons-edit-edit-2" d="M260.395 282.752l127.019 11.52 238.933 239.147-115.029 115.115-239.659-239.659-11.264-126.123zM568.448 705.621l115.029-114.944 83.072 83.2-114.944 114.944-83.115-83.2zM183.168 205.397c-8.96 8.96-13.44 21.461-12.373 34.091l16.213 177.92c1.792 19.499 10.411 37.888 24.32 51.755l383.829 383.829c29.952 30.123 84.267 28.587 115.883-2.901l116.821-116.907c32.683-32.683 34.005-84.651 2.944-115.797l-383.872-383.829c-13.867-13.909-32.256-22.485-51.797-24.32l-177.92-16.128c-1.28-0.128-2.56-0.128-3.883-0.128-11.221 0-22.101 4.437-30.165 12.416zM853.333 64.981c0-23.467-19.2-42.667-42.667-42.667h-597.333c-23.467 0-42.667 19.2-42.667 42.667 0 23.424 19.2 42.667 42.667 42.667h597.333c23.467 0 42.667-19.243 42.667-42.667z" />
<glyph unicode="&#xe95d;" glyph-name="icons-email" d="M810.667 192h-597.333c-23.509 0-42.667 19.115-42.667 42.667v416l315.733-236.8c7.595-5.717 16.597-8.533 25.6-8.533s18.005 2.816 25.6 8.533l315.733 236.8v-416c0-23.552-19.157-42.667-42.667-42.667zM782.208 704l-270.208-202.667-270.208 202.667h540.416zM810.667 789.333h-597.333c-70.571 0-128-57.429-128-128v-426.667c0-70.571 57.429-128 128-128h597.333c70.571 0 128 57.429 128 128v426.667c0 70.571-57.429 128-128 128z" />
<glyph unicode="&#xe95e;" glyph-name="icons-expand" d="M213.333 405.333c23.467 0 42.539-18.944 42.667-42.453l0.555-109.995 139.947 139.947c16.683 16.683 43.648 16.683 60.331 0s16.683-43.648 0-60.331l-140.459-140.459 110.293-0.043c23.595 0 42.667-19.115 42.667-42.709-0.043-23.552-19.115-42.624-42.667-42.624l-212.309 0.128c-23.467 0-42.496 18.987-42.624 42.453l-1.067 213.205c-0.128 23.552 18.901 42.752 42.453 42.88zM597.547 789.333l213.205-1.067c23.467-0.128 42.453-19.2 42.453-42.667l0.128-212.181c0-23.552-19.072-42.709-42.667-42.709-23.552 0-42.667 19.115-42.667 42.624l-0.085 110.293-140.416-140.416c-8.32-8.32-19.243-12.501-30.165-12.501-10.88 0-21.803 4.181-30.165 12.501-16.64 16.64-16.64 43.691 0 60.331l139.947 139.947-109.952 0.512c-23.595 0.128-42.667 19.371-42.496 42.88 0.128 23.467 19.2 42.453 42.667 42.453h0.213z" />
<glyph unicode="&#xe95f;" glyph-name="icons-external-link" d="M512 832c23.595 0 42.667-19.115 42.667-42.667s-19.072-42.667-42.667-42.667h-256c-23.552 0-42.667-19.157-42.667-42.667v-512c0-23.509 19.115-42.667 42.667-42.667h512c23.552 0 42.667 19.157 42.667 42.667v256c0 23.552 19.072 42.667 42.667 42.667s42.667-19.115 42.667-42.667v-256c0-70.571-57.429-128-128-128h-512c-70.571 0-128 57.429-128 128v512c0 70.571 57.429 128 128 128zM682.88 832l170.539-0.853c23.467-0.128 42.453-19.157 42.453-42.624l0.128-169.813c0-23.595-19.072-42.709-42.624-42.709-23.595 0-42.667 19.072-42.667 42.624l-0.085 67.669-268.459-268.459c-8.32-8.32-19.2-12.501-30.165-12.501-10.923 0-21.845 4.181-30.165 12.501-16.64 16.683-16.64 43.648 0 60.331l268.16 268.16-67.541 0.341c-23.595 0.128-42.581 19.328-42.453 42.88 0.128 23.509 19.2 42.453 42.667 42.453h0.213z" />
<glyph unicode="&#xe960;" glyph-name="icons-eye-eye" d="M512 384c-35.285 0-64 28.715-64 64s28.715 64 64 64c35.285 0 64-28.715 64-64s-28.715-64-64-64zM512 597.333c-82.347 0-149.333-66.987-149.333-149.333s66.987-149.333 149.333-149.333c82.347 0 149.333 66.987 149.333 149.333s-66.987 149.333-149.333 149.333zM521.374 234.769c-183.723-4.267-303.573 152.875-343.339 213.419 43.776 68.48 154.027 208.683 324.608 213.035 182.997 4.651 303.531-152.875 343.296-213.419-43.733-68.48-154.027-208.683-324.565-213.035zM933.022 469.222c-27.221 47.445-177.579 285.269-432.555 277.291-235.861-5.973-373.035-213.76-409.472-277.291-7.552-13.141-7.552-29.312 0-42.453 26.837-46.805 171.904-277.419 422.059-277.419 3.499 0 6.997 0.043 10.496 0.128 235.819 6.016 373.035 213.76 409.472 277.291 7.509 13.141 7.509 29.312 0 42.453z" />
<glyph unicode="&#xe961;" glyph-name="icons-eye-off-2" d="M759.855 388.48c72.747 60.459 123.307 146.859 135.808 246.229 2.944 23.339-13.611 44.672-37.035 47.616-23.040 3.157-44.715-13.611-47.616-36.992-18.731-148.992-147.285-261.333-299.008-261.333s-280.277 112.341-299.008 261.333c-2.901 23.381-24.661 39.979-47.659 36.992-23.381-2.944-39.936-24.277-36.992-47.616 12.501-99.371 63.061-185.771 135.808-246.229l-98.645-98.645c-16.597-16.597-16.597-43.733 0-60.331 16.555-16.597 43.733-16.597 60.331 0l111.061 111.061c40.704-20.565 85.376-34.133 132.437-39.296v-151.936c0-23.467 19.2-42.667 42.667-42.667s42.667 19.2 42.667 42.667v151.936c47.019 5.163 91.733 18.731 132.395 39.296l111.104-111.061c16.597-16.597 43.733-16.597 60.331 0s16.597 43.733 0 60.331l-98.645 98.645z" />
<glyph unicode="&#xe962;" glyph-name="icons-eye-off" d="M933.035 426.752c-17.707-30.848-59.349-95.573-124.288-154.837l-60.203 60.203c45.227 40.576 77.952 85.205 97.408 115.669-39.765 60.587-160.213 218.069-343.296 213.419-25.6-0.64-49.621-4.651-72.533-10.667l-67.413 67.413c41.515 16.341 87.211 27.307 137.771 28.587 254.933 7.936 405.333-229.888 432.555-277.333 7.509-13.141 7.509-29.312 0-42.453zM593.835 245.461l67.413-67.413c-41.429-16.384-87.168-27.307-137.685-28.587l-10.496-0.128c-250.155 0-395.221 230.613-422.059 277.419-7.552 13.141-7.552 29.312 0 42.453 17.664 30.848 59.307 95.616 124.245 154.88l60.16-60.245c-45.227-40.533-77.867-85.205-97.365-115.627 39.765-60.587 159.659-217.728 343.339-213.461 25.6 0.64 49.621 4.693 72.448 10.709zM512 384c-35.285 0-64 28.672-64 64 0 1.067 0.427 2.048 0.512 3.157l66.688-66.688c-1.109 0-2.133-0.427-3.2-0.427zM200.832 819.499c-16.64 16.64-43.648 16.64-60.331 0-16.64-16.64-16.64-43.691 0-60.331l240.213-240.213c-11.733-21.76-18.048-45.867-18.048-70.955 0-82.347 66.987-149.333 149.333-149.333 25.173 0 49.28 6.272 70.955 18.048l240.213-240.213c8.363-8.363 19.2-12.501 30.165-12.501 10.923 0 21.845 4.139 30.165 12.501 16.64 16.64 16.64 43.648 0 60.331l-682.667 682.667z" />
<glyph unicode="&#xe963;" glyph-name="icons-file-add" d="M597.333 405.333h-42.667v42.667c0 23.552-19.072 42.667-42.667 42.667s-42.667-19.115-42.667-42.667v-42.667h-42.667c-23.595 0-42.667-19.115-42.667-42.667s19.072-42.667 42.667-42.667h42.667v-42.667c0-23.552 19.072-42.667 42.667-42.667s42.667 19.115 42.667 42.667v42.667h42.667c23.595 0 42.667 19.115 42.667 42.667s-19.072 42.667-42.667 42.667zM744.277 106.667h-464.597c-13.013 0-23.68 9.557-23.68 21.333v640c0 11.776 10.667 21.333 23.68 21.333h232.32v-134.4c0-67.072 51.925-121.6 115.797-121.6h140.203v-405.333c0-11.776-10.624-21.333-23.723-21.333zM597.333 747.605l116.992-128.939h-86.528c-16.811 0-30.464 16.256-30.464 36.267v92.672zM842.24 604.672l-232.277 256c-8.107 8.917-19.541 13.995-31.573 13.995h-298.667c-60.203 0-109.056-47.872-109.056-106.667v-640c0-58.795 48.896-106.667 109.013-106.667h464.64c60.032 0 109.013 47.872 109.013 106.667v448c0 10.624-3.968 20.821-11.093 28.672z" />
<glyph unicode="&#xe964;" glyph-name="icons-file-file" d="M744.277 106.667h-464.597c-13.013 0-23.68 9.557-23.68 21.333v640c0 11.776 10.667 21.333 23.68 21.333h189.653v-177.067c0-67.072 51.925-121.6 115.797-121.6h182.869v-362.667c0-11.776-10.667-21.333-23.723-21.333zM753.024 576h-167.893c-16.811 0-30.464 16.256-30.464 36.267v177.067h4.779l193.579-213.333zM842.24 604.672l-232.277 256c-8.064 8.917-19.541 13.995-31.573 13.995h-298.667c-60.203 0-109.056-47.872-109.056-106.667v-640c0-58.795 48.896-106.667 109.013-106.667h464.64c60.032 0 109.013 47.872 109.013 106.667v448c0 10.624-3.968 20.821-11.093 28.672z" />
<glyph unicode="&#xe965;" glyph-name="icons-file-remove" d="M597.333 405.333h-170.667c-23.595 0-42.667-19.115-42.667-42.667s19.072-42.667 42.667-42.667h170.667c23.595 0 42.667 19.115 42.667 42.667s-19.072 42.667-42.667 42.667zM744.277 106.667h-464.597c-13.013 0-23.68 9.557-23.68 21.333v640c0 11.776 10.667 21.333 23.68 21.333h232.32v-134.4c0-67.072 51.925-121.6 115.797-121.6h140.203v-405.333c0-11.776-10.624-21.333-23.723-21.333zM597.333 747.605l116.992-128.939h-86.528c-16.811 0-30.464 16.256-30.464 36.267v92.672zM842.24 604.672l-232.277 256c-8.107 8.917-19.541 13.995-31.573 13.995h-298.667c-60.203 0-109.056-47.872-109.056-106.667v-640c0-58.795 48.896-106.667 109.013-106.667h464.64c60.032 0 109.013 47.872 109.013 106.667v448c0 10.624-3.968 20.821-11.093 28.672z" />
<glyph unicode="&#xe966;" glyph-name="icons-file-text" d="M640 277.333c23.595 0 42.667-19.115 42.667-42.667s-19.072-42.667-42.667-42.667h-256c-23.552 0-42.667 19.115-42.667 42.667s19.115 42.667 42.667 42.667zM512 448c23.552 0 42.667-19.115 42.667-42.667s-19.115-42.667-42.667-42.667h-128c-23.552 0-42.667 19.115-42.667 42.667s19.115 42.667 42.667 42.667zM744.277 106.667h-464.597c-13.013 0-23.68 9.557-23.68 21.333v640c0 11.776 10.667 21.333 23.68 21.333h232.32v-134.4c0-67.072 51.925-121.6 115.797-121.6h140.203v-405.333c0-11.776-10.624-21.333-23.723-21.333zM597.333 747.605l116.992-128.939h-86.528c-16.811 0-30.464 16.256-30.464 36.267v92.672zM842.24 604.672l-232.277 256c-8.107 8.917-19.541 13.995-31.573 13.995h-298.667c-60.203 0-109.056-47.872-109.056-106.667v-640c0-58.795 48.896-106.667 109.013-106.667h464.64c60.032 0 109.013 47.872 109.013 106.667v448c0 10.624-3.968 20.821-11.093 28.672z" />
<glyph unicode="&#xe967;" glyph-name="icons-film" d="M810.667 181.077c0-17.493-14.251-31.744-31.744-31.744h-53.589v85.333h85.333v-53.589zM213.333 181.077v53.589h85.333v-85.333h-53.589c-17.493 0-31.744 14.251-31.744 31.744zM245.077 746.667h53.589v-85.333h-85.333v53.589c0 17.493 14.251 31.744 31.744 31.744zM810.667 405.333v-85.333h-85.333v85.333h85.333zM778.923 746.667c17.493 0 31.744-14.251 31.744-31.744v-53.589h-85.333v85.333h53.589zM640 746.667v-597.333h-256v597.333h256zM810.667 576v-85.333h-85.333v85.333h85.333zM298.667 405.333v-85.333h-85.333v85.333h85.333zM298.667 576v-85.333h-85.333v85.333h85.333zM778.923 832h-533.845c-64.555 0-117.077-52.565-117.077-117.077v-533.845c0-64.555 52.523-117.077 117.077-117.077h533.845c64.555 0 117.077 52.523 117.077 117.077v533.845c0 64.512-52.523 117.077-117.077 117.077z" />
<glyph unicode="&#xe968;" glyph-name="icons-fire" d="M319.787 553.941c-86.699-93.824-84.864-242.517 5.547-334.635 44.075-45.141 102.699-69.973 165.163-70.059h0.213c62.592 0 121.429 24.875 165.76 70.059 91.989 93.739 91.819 246.272-0.384 339.925l-127.403 130.261c-12.885-105.899-52.608-198.827-123.307-198.827-21.717 0-57.045 9.643-85.589 63.317zM490.709 63.915h-0.299c-85.589 0.085-165.888 34.048-226.091 95.659-124.331 126.72-124.501 332.971-0.384 459.477l41.941 42.411c10.837 10.795 26.581 14.976 41.472 11.093 14.805-3.968 26.325-15.659 30.165-30.507 9.813-37.931 21.504-56.533 27.947-63.659 15.147 16 42.539 80.469 42.539 189.568 0 6.272 0 12.203-0.341 18.133-0.811 12.544 4.011 24.875 13.141 33.579 16.939 16.085 44.075 16.085 60.331-0.597l195.84-200.107c124.587-126.421 124.8-332.629 0.427-459.435-60.544-61.653-140.971-95.531-226.688-95.531z" />
<glyph unicode="&#xe969;" glyph-name="icons-flag" d="M768 337.664c-16.896-7.552-50.133-17.664-106.667-17.664-47.957 0-89.643 16.341-133.76 33.621-49.579 19.413-100.864 39.509-164.907 39.509-45.099 0-80.043-5.419-106.667-12.715v348.501c16.896 7.552 50.219 17.749 106.667 17.749 47.957 0 89.643-16.341 133.76-33.621 49.579-19.413 100.864-39.509 164.907-39.509 40.021 0 75.776 4.309 106.667 12.8v-348.672zM822.101 760.32c-19.712 14.251-45.227 18.347-68.224 10.795-24.576-7.979-56.576-12.245-92.544-12.245-47.957 0-89.643 16.341-133.76 33.621-49.579 19.456-100.864 39.509-164.907 39.509-123.179 0-170.88-40.619-179.2-48.811-8.192-7.979-12.8-18.987-12.8-30.421v-646.101c0-23.595 19.072-42.667 42.667-42.667s42.667 19.072 42.667 42.667v183.381c16.853 7.509 50.048 17.749 106.667 17.749 47.957 0 89.643-16.341 133.76-33.621 49.579-19.413 100.864-39.509 164.907-39.509 77.184 0 124.715 16.128 151.083 29.653 25.259 13.099 40.917 38.528 40.917 66.389v368.768c0 23.893-11.648 46.635-31.232 60.843z" />
<glyph unicode="&#xe96a;" glyph-name="icons-flash-off" d="M284.672 554.667l61.44-61.525-52.907-79.275h132.267l121.003-121.003-11.179-103.253 45.867 68.565 61.525-61.44-133.12-199.125c-8.107-12.117-21.504-18.944-35.456-18.944-4.864 0-9.813 0.853-14.549 2.56-18.475 6.699-29.995 25.173-27.861 44.672l32.811 302.635h-251.179c-15.787 0-30.208 8.661-37.632 22.528-7.424 13.909-6.571 30.763 2.133 43.819l106.88 159.787zM140.501 819.499c16.683 16.683 43.648 16.683 60.331 0l682.667-682.667c16.683-16.683 16.683-43.648 0-60.331-8.32-8.32-19.243-12.501-30.165-12.501s-21.845 4.181-30.165 12.501l-682.667 682.667c-16.683 16.683-16.683 43.648 0 60.331zM514.475 898.389c10.88 16.384 31.573 23.125 50.005 16.384 18.475-6.699 29.995-25.173 27.861-44.672l-32.811-302.635h251.136c15.787 0 30.208-8.661 37.632-22.528 7.424-13.909 6.571-30.763-2.133-43.819l-106.88-159.787-61.44 61.525 52.949 79.275h-132.267l-121.003 121.003 11.179 103.253-45.824-68.523-61.525 61.44z" />
<glyph unicode="&#xe96b;" glyph-name="icons-flash-on" d="M293.163 413.867h218.88c12.075 0 23.637-5.12 31.701-14.165 8.107-8.96 11.947-21.035 10.667-33.067l-19.157-177.067 195.627 292.565h-218.88c-12.117 0-23.68 5.163-31.744 14.165-8.107 9.003-11.947 21.035-10.667 33.067l19.2 177.067-195.669-292.565zM474.069-21.333c-4.864 0-9.771 0.853-14.592 2.56-18.432 6.741-29.952 25.173-27.819 44.672l32.853 302.635h-251.179c-15.744 0-30.208 8.661-37.632 22.528-7.424 13.909-6.571 30.763 2.176 43.861l336.64 503.467c10.837 16.341 31.488 23.083 49.963 16.341 18.475-6.699 29.995-25.173 27.861-44.672l-32.811-302.592h251.136c15.787 0 30.208-8.704 37.632-22.571 7.424-13.909 6.571-30.72-2.133-43.819l-336.64-503.467c-8.064-12.117-21.547-18.944-35.413-18.944z" />
<glyph unicode="&#xe96c;" glyph-name="icons-flip-flip-1" d="M737.835 840.832c16.683 16.683 43.648 16.683 60.331 0l128-128c8.32-8.32 12.501-19.243 12.501-30.165s-4.181-21.845-12.501-30.165c-16.683-16.683-43.648-16.683-60.331 0l-55.168 55.168v-511.829c0-84.48-67.541-153.173-150.571-153.173h-105.429c-23.595 0-42.667 19.072-42.667 42.667s19.072 42.667 42.667 42.667h105.429c35.968 0 65.237 30.421 65.237 67.84v511.829l-55.168-55.168c-16.683-16.683-43.648-16.683-60.331 0s-16.683 43.648 0 60.331zM469.333 853.333c23.595 0 42.667-19.072 42.667-42.667s-19.072-42.667-42.667-42.667h-105.429c-35.925 0-65.237-30.421-65.237-67.84v-511.829l55.168 55.168c16.683 16.64 43.648 16.64 60.331 0 8.32-8.32 12.501-19.2 12.501-30.165 0-10.923-4.181-21.845-12.501-30.165l-128-128c-16.683-16.64-43.648-16.64-60.331 0l-128 128c-16.683 16.64-16.683 43.648 0 60.331 16.683 16.64 43.648 16.64 60.331 0l55.168-55.168v511.829c0 84.48 67.541 153.173 150.571 153.173z" />
<glyph unicode="&#xe96d;" glyph-name="icons-flip-flip-2" d="M119.168 673.835c-16.64 16.683-16.64 43.648 0 60.331l128 128c8.32 8.32 19.243 12.501 30.165 12.501s21.845-4.181 30.165-12.501c16.683-16.683 16.683-43.648 0-60.331l-55.168-55.168h511.829c84.48 0 153.173-67.541 153.173-150.571v-105.429c0-23.595-19.072-42.667-42.667-42.667s-42.667 19.072-42.667 42.667v105.429c0 35.968-30.421 65.237-67.84 65.237h-511.829l55.168-55.168c16.683-16.683 16.683-43.648 0-60.331-16.64-16.683-43.648-16.683-60.331 0zM106.667 405.333c0 23.595 19.072 42.667 42.667 42.667s42.667-19.072 42.667-42.667v-105.429c0-35.925 30.421-65.237 67.84-65.237h511.829l-55.168 55.168c-16.64 16.683-16.64 43.648 0 60.331 8.32 8.32 19.243 12.501 30.165 12.501s21.845-4.181 30.165-12.501l128-128c16.683-16.683 16.683-43.648 0-60.331l-128-128c-16.64-16.683-43.648-16.683-60.331 0-16.64 16.683-16.64 43.648 0 60.331l55.168 55.168h-511.829c-84.437 0-153.173 67.541-153.173 150.571z" />
<glyph unicode="&#xe96e;" glyph-name="icons-folder-add" d="M597.333 405.333h-42.667v42.667c0 23.467-19.2 42.667-42.667 42.667s-42.667-19.2-42.667-42.667v-42.667h-42.667c-23.467 0-42.667-19.2-42.667-42.667s19.2-42.667 42.667-42.667h42.667v-42.667c0-23.467 19.2-42.667 42.667-42.667s42.667 19.2 42.667 42.667v42.667h42.667c23.467 0 42.667 19.2 42.667 42.667s-19.2 42.667-42.667 42.667zM853.333 189.099c0-10.155-9.557-18.432-21.333-18.432h-640c-11.776 0-21.333 8.277-21.333 18.432v517.845c0 10.155 9.557 18.347 21.333 18.347h176.043l110.933-135.552c8.107-9.941 20.224-15.701 33.024-15.701h320c11.776 0 21.333-8.235 21.333-18.432v-366.507zM832 659.371h-299.776l-110.891 135.637c-8.107 9.941-20.267 15.659-33.024 15.659h-196.309c-58.795 0-106.667-46.507-106.667-103.723v-517.845c0-57.259 47.872-103.765 106.667-103.765h640c58.795 0 106.667 46.507 106.667 103.765v366.507c0 57.259-47.872 103.765-106.667 103.765z" />
<glyph unicode="&#xe96f;" glyph-name="icons-folder-folder" d="M170.667 373.12v-184.021c0-10.155 9.557-18.432 21.333-18.432h640c11.776 0 21.333 8.277 21.333 18.432v366.507c0 10.197-9.557 18.432-21.333 18.432h-320c-12.8 0-24.917 5.76-33.024 15.701l-110.933 135.595h-176.043c-11.776 0-21.333-8.235-21.333-18.389v-333.824zM832 85.333h-640c-58.795 0-106.667 46.507-106.667 103.765v517.845c0 57.173 47.872 103.68 106.667 103.68h196.309c12.757 0 24.917-5.675 33.024-15.616l110.891-135.68h299.776c58.795 0 106.667-46.507 106.667-103.723v-366.507c0-57.216-47.872-103.765-106.667-103.765z" />
<glyph unicode="&#xe970;" glyph-name="icons-folder-remove" d="M597.333 405.333h-170.667c-23.467 0-42.667-19.2-42.667-42.667s19.2-42.667 42.667-42.667h170.667c23.467 0 42.667 19.2 42.667 42.667s-19.2 42.667-42.667 42.667zM853.333 189.099c0-10.155-9.557-18.432-21.333-18.432h-640c-11.776 0-21.333 8.277-21.333 18.432v517.845c0 10.155 9.557 18.347 21.333 18.347h176.043l110.933-135.552c8.107-9.941 20.224-15.701 33.024-15.701h320c11.776 0 21.333-8.235 21.333-18.432v-366.507zM832 659.371h-299.776l-110.891 135.637c-8.107 9.941-20.267 15.659-33.024 15.659h-196.309c-58.795 0-106.667-46.507-106.667-103.723v-517.845c0-57.259 47.872-103.765 106.667-103.765h640c58.795 0 106.667 46.507 106.667 103.765v366.507c0 57.259-47.872 103.765-106.667 103.765z" />
<glyph unicode="&#xe971;" glyph-name="icons-funnel" d="M464.085 215.168l86.443-65.408v194.261c0 7.083 1.792 14.037 5.12 20.267l183.467 339.712h-455.68l175.872-340.395c3.157-6.059 4.779-12.8 4.779-19.584v-128.853zM593.195 21.333c-9.088 0-18.176 2.901-25.728 8.661l-171.776 129.92c-10.667 8.064-16.939 20.651-16.939 34.005v139.691l-203.307 393.472c-6.869 13.227-6.315 29.056 1.451 41.771 7.723 12.715 21.547 20.48 36.437 20.48h597.333c15.019 0 28.928-7.893 36.651-20.821 7.68-12.885 8.021-28.885 0.896-42.112l-212.352-393.173v-269.227c0-16.171-9.131-30.976-23.637-38.187-6.016-2.987-12.544-4.48-19.029-4.48z" />
<glyph unicode="&#xe972;" glyph-name="icons-gift" d="M746.667 320v-170.667h-192v170.667h192zM469.333 320v-170.667h-192v170.667h192zM213.333 567.467c0 3.541 0.555 6.4 1.109 8.533h254.891v-170.667h-254.891c-0.555 2.133-1.109 4.992-1.109 8.533v153.6zM298.667 704c0 23.552 21.888 42.667 48.768 42.667 53.632 0 86.485-46.507 104.576-85.333h-104.576c-26.88 0-48.768 19.115-48.768 42.667zM676.565 746.667c26.88 0 48.768-19.115 48.768-42.667s-21.888-42.667-48.768-42.667h-104.832c17.92 38.827 50.688 85.333 104.832 85.333zM810.667 567.467v-153.6c0-3.541-0.555-6.4-1.109-8.533h-254.891v170.667h254.891c0.555-2.133 1.109-4.992 1.109-8.533zM819.2 661.333h-16.768c5.035 13.397 8.235 27.605 8.235 42.667 0 70.571-60.16 128-134.101 128-82.005 0-133.461-51.157-164.565-102.272-31.104 51.115-82.56 102.272-164.565 102.272-73.941 0-134.101-57.429-134.101-128 0-15.061 3.243-29.269 8.235-42.667h-16.768c-43.051 0-76.8-41.259-76.8-93.867v-153.6c0-47.232 27.307-85.035 64-92.331v-186.411c0-39.211 34.688-71.125 77.312-71.125h485.333c42.667 0 77.355 31.915 77.355 71.125v186.411c36.693 7.296 64 45.099 64 92.331v153.6c0 52.608-33.749 93.867-76.8 93.867z" />
<glyph unicode="&#xe973;" glyph-name="icons-github" d="M692.907 21.333c-23.552 0-42.667 19.072-42.667 42.667v110.891c2.005 28.288-6.485 52.907-23.168 70.784-11.051 11.776-14.464 28.757-8.917 43.861 5.547 15.147 19.115 25.856 35.157 27.691 103.851 12.032 200.021 47.701 200.021 225.749 0 34.133-9.899 67.029-28.587 95.019-17.152 25.515-23.381 56.619-17.664 87.595 3.755 20.181 3.541 40.704-0.512 60.544-17.237-5.12-46.763-17.28-89.301-46.891-10.453-7.253-23.723-9.429-35.925-6.016-76.971 21.632-158.293 21.632-235.349 0-12.245-3.413-25.429-1.237-35.84 6.016-42.155 29.312-71.509 41.515-89.429 46.549-4.011-19.669-4.181-40.021-0.427-60.075 5.632-30.805-0.811-62.251-18.219-88.619-18.517-28.117-28.16-60.971-28.032-95.104 0-166.144 80.213-210.475 200.533-225.963 15.872-2.048 29.269-12.8 34.731-27.861 5.419-15.061 1.963-31.872-8.96-43.563-16.512-17.707-25.003-42.069-23.339-66.859l0.043-33.621c0.085-1.707 0.085-3.413 0-5.12l0.043-75.008c0-23.595-19.072-42.667-42.667-42.667-23.552 0-42.667 19.072-42.667 42.667v24.363c-114.56-14.933-179.84 46.464-225.109 89.131-18.773 17.621-36.437 34.304-49.365 37.675-22.827 5.931-36.523 29.227-30.592 52.011 5.973 22.784 29.227 36.693 52.053 30.592 34.048-8.875 59.477-32.811 86.4-58.155 43.605-41.088 84.992-80 166.613-64.853v0.128c-1.579 22.571 1.792 45.696 9.6 67.584-87.637 21.845-212.651 85.547-212.651 299.307-0.256 50.859 14.336 100.096 42.112 142.293 5.205 7.893 7.168 17.152 5.547 26.155-8.533 46.208-3.669 93.653 14.251 137.003 4.864 11.776 14.72 20.779 26.88 24.533 14.123 4.352 66.176 12.672 164.779-51.328 79.829 19.157 162.987 19.157 242.773 0 98.645 64 150.656 55.723 164.779 51.328 12.16-3.755 22.016-12.757 26.88-24.533 17.963-43.435 22.869-90.837 14.293-137.173-1.664-8.917 0-17.664 4.608-24.619 28.16-42.112 43.093-91.349 43.093-142.464 0-216.064-124.757-278.997-212.48-300.075 7.808-22.571 11.093-46.848 9.216-71.296l0.128-107.605c0-23.595-19.115-42.667-42.667-42.667z" />
<glyph unicode="&#xe974;" glyph-name="icons-globe-globe-1" d="M623.659 125.781c44.757 63.915 91.307 157.909 100.608 279.552h126.080c-16.341-130.219-106.197-237.653-226.688-279.552zM173.611 405.333h127.659c8.789-122.112 54.741-215.723 100.096-279.936-121.045 41.685-211.328 149.333-227.755 279.936zM402.688 771.029c-44.885-63.915-91.861-158.208-101.248-280.363h-127.829c16.469 131.072 107.392 239.061 229.077 280.363zM387.371 490.667c13.056 139.605 84.48 236.8 125.739 281.728 42.667-45.696 112.981-141.995 125.141-281.728h-250.88zM387.413 405.333h250.965c-13.056-139.819-84.651-237.013-125.867-281.941-44.672 47.36-113.195 142.336-125.099 281.941zM850.347 490.667h-125.952c-8.747 121.557-54.187 214.869-99.328 278.997 119.808-42.24 209.024-149.291 225.28-278.997zM938.667 448c0 234.837-190.763 425.899-425.472 426.581l-0.555 0.043-0.64 0.043c-235.264 0-426.667-191.445-426.667-426.667 0-235.264 191.403-426.667 426.667-426.667l0.64 0.043 0.213-0.043 0.341 0.085c234.709 0.64 425.472 191.744 425.472 426.581z" />
<glyph unicode="&#xe975;" glyph-name="icons-globe-globe-2" d="M720.597 178.432c-7.339 18.475-17.749 34.56-26.88 48.384-4.608 6.912-9.387 13.952-13.483 21.205-16.64 28.843-10.88 40.533 16.043 85.632l4.352 7.381c21.76 36.693 22.997 71.979 24.107 103.040 0.512 15.275 1.024 29.653 3.968 43.179 6.827 31.232 72.875 39.552 113.792 44.459 6.827-26.88 10.837-54.784 10.837-83.712 0-109.653-52.139-207.061-132.736-269.568zM211.712 285.867c27.136-6.912 56.533-11.691 86.443-11.691 46.080 0 93.141 11.264 133.845 43.093 73.216 57.301 73.216 130.517 73.216 189.397 0 38.059 0 70.827 15.872 100.011 8.533 15.616 26.709 26.453 47.744 39.040 12.885 7.68 26.24 15.659 39.040 25.728 27.435 21.461 47.787 49.067 60.459 79.616 59.733-30.933 109.227-78.848 141.909-137.515-60.928-8.448-147.413-28.416-164.864-108.075-4.608-21.077-5.333-40.96-5.888-58.453-0.896-24.875-1.579-44.544-12.245-62.549l-4.267-7.168c-27.605-46.208-58.88-98.603-16.725-171.861 5.077-8.875 10.752-17.408 16.341-25.899 14.677-22.016 21.888-34.176 21.931-46.123-40.789-17.195-85.589-26.752-132.523-26.752-129.579 0-242.475 72.619-300.288 179.2zM512 789.333c26.283 0 51.627-3.243 76.245-8.875-7.253-15.872-18.347-30.336-33.024-41.813-9.301-7.339-19.755-13.44-30.123-19.627-27.776-16.555-59.221-35.328-78.933-71.424-26.283-48.213-26.283-97.451-26.283-140.885 0-57.813-1.877-91.989-40.448-122.155-58.453-45.781-147.797-20.224-203.093 2.987-3.541 19.755-5.675 39.893-5.675 60.459 0 188.16 153.131 341.333 341.333 341.333zM512 874.667c-235.264 0-426.667-191.403-426.667-426.667 0-235.221 191.403-426.667 426.667-426.667s426.667 191.445 426.667 426.667c0 235.264-191.403 426.667-426.667 426.667z" />
<glyph unicode="&#xe976;" glyph-name="icons-grid" d="M640 149.333v170.667h170.667l0.043-170.667h-170.709zM810.667 405.333h-170.667c-47.061 0-85.333-38.272-85.333-85.333v-170.667c0-47.061 38.272-85.333 85.333-85.333h170.667c47.061 0 85.333 38.272 85.333 85.333v170.667c0 47.061-38.272 85.333-85.333 85.333zM213.333 149.333v170.667h170.667l0.043-170.667h-170.709zM384 405.333h-170.667c-47.061 0-85.333-38.272-85.333-85.333v-170.667c0-47.061 38.272-85.333 85.333-85.333h170.667c47.061 0 85.333 38.272 85.333 85.333v170.667c0 47.061-38.272 85.333-85.333 85.333zM640 576v170.667h170.667l0.043-170.667h-170.709zM810.667 832h-170.667c-47.061 0-85.333-38.272-85.333-85.333v-170.667c0-47.061 38.272-85.333 85.333-85.333h170.667c47.061 0 85.333 38.272 85.333 85.333v170.667c0 47.061-38.272 85.333-85.333 85.333zM213.333 576v170.667h170.667l0.043-170.667h-170.709zM384 832h-170.667c-47.061 0-85.333-38.272-85.333-85.333v-170.667c0-47.061 38.272-85.333 85.333-85.333h170.667c47.061 0 85.333 38.272 85.333 85.333v170.667c0 47.061-38.272 85.333-85.333 85.333z" />
<glyph unicode="&#xe977;" glyph-name="icons-hard-drive" d="M682.667 320c23.467 0 42.667-19.2 42.667-42.667s-19.2-42.667-42.667-42.667h-170.667c-23.467 0-42.667 19.2-42.667 42.667s19.2 42.667 42.667 42.667zM341.333 320c23.467 0 42.667-19.2 42.667-42.667s-19.2-42.667-42.667-42.667-42.667 19.2-42.667 42.667 19.2 42.667 42.667 42.667zM768 149.333h-512c-23.509 0-42.667 19.115-42.667 42.667v213.333h597.333v-213.333c0-23.552-19.157-42.667-42.667-42.667zM355.925 723.072c7.253 14.549 21.888 23.595 38.144 23.595h235.861c16.256 0 30.891-9.045 38.144-23.595l116.224-232.405h-544.597l116.224 232.405zM886.997 476.075l-142.592 285.184c-21.803 43.605-65.664 70.741-114.475 70.741h-235.861c-48.811 0-92.672-27.136-114.475-70.741l-142.592-285.184c-5.888-11.776-9.003-25.003-9.003-38.144v-245.931c0-70.571 57.429-128 128-128h512c70.571 0 128 57.429 128 128v245.931c0 13.141-3.115 26.368-9.003 38.144z" />
<glyph unicode="&#xe978;" glyph-name="icons-hash" d="M413.781 362.667l31.147 170.667h165.291l-31.104-170.667h-165.333zM853.333 362.667h-183.552l31.147 170.667h152.405c23.467 0 42.667 19.2 42.667 42.667s-19.2 42.667-42.667 42.667h-136.96l29.611 162.603c4.267 23.381-12.032 45.952-36.224 50.048-24.192 4.139-47.445-11.648-51.712-35.072l-32.341-177.579h-165.333l29.611 162.603c4.267 23.381-12.032 45.952-36.224 50.048-24.192 4.139-47.445-11.648-51.712-35.072l-32.341-177.579h-199.040c-23.467 0-42.667-19.2-42.667-42.667s19.2-42.667 42.667-42.667h183.552l-31.104-170.667h-152.448c-23.467 0-42.667-19.2-42.667-42.667s19.2-42.667 42.667-42.667h136.96l-29.653-162.603c-4.224-23.381 12.075-45.952 36.267-50.048 24.149-4.139 47.445 11.648 51.669 35.072l32.341 177.579h165.333l-29.611-162.603c-4.224-23.381 12.075-45.952 36.267-50.048 24.149-4.139 47.445 11.648 51.669 35.072l32.341 177.579h199.083c23.467 0 42.667 19.2 42.667 42.667s-19.2 42.667-42.667 42.667z" />
<glyph unicode="&#xe979;" glyph-name="icons-headphones" d="M768 149.333c-47.061 0-85.333 38.272-85.333 85.333s38.272 85.333 85.333 85.333 85.333-38.272 85.333-85.333-38.272-85.333-85.333-85.333zM256 320c47.061 0 85.333-38.272 85.333-85.333s-38.272-85.333-85.333-85.333-85.333 38.272-85.333 85.333 38.272 85.333 85.333 85.333zM512 874.667c-235.264 0-426.667-198.4-426.667-442.283v-197.717c0-94.123 76.544-170.667 170.667-170.667s170.667 76.544 170.667 170.667-76.544 170.667-170.667 170.667c-31.232 0-60.117-9.045-85.333-23.765v50.816c0 196.821 153.131 356.949 341.333 356.949s341.333-160.128 341.333-356.949v-50.816c-25.216 14.72-54.101 23.765-85.333 23.765-94.123 0-170.667-76.544-170.667-170.667s76.544-170.667 170.667-170.667 170.667 76.544 170.667 170.667v197.717c0 243.883-191.403 442.283-426.667 442.283z" />
<glyph unicode="&#xe97a;" glyph-name="icons-heart" d="M308.053 704c-36.864 0-71.424-14.251-97.28-40.149-53.675-53.76-53.675-141.269 0-195.115l301.227-301.696 301.227 301.696c53.717 53.845 53.717 141.355 0 195.115-51.712 51.84-142.848 51.755-194.56 0l-76.459-76.587c-16.043-16.085-44.373-16.085-60.416 0l-76.459 76.629c-25.856 25.856-60.373 40.107-97.28 40.107zM512 64c-11.307 0-22.187 4.48-30.165 12.544l-331.435 331.947c-86.869 87.040-86.869 228.651 0 315.691 41.984 41.984 97.92 65.152 157.653 65.152s115.712-23.168 157.653-65.152l46.293-46.379 46.293 46.336c41.984 42.027 97.92 65.195 157.653 65.195 59.648 0 115.627-23.168 157.611-65.152 86.912-87.040 86.912-228.651 0-315.691l-331.392-331.989c-8.021-8.021-18.859-12.501-30.208-12.501z" />
<glyph unicode="&#xe97b;" glyph-name="icons-height" d="M426.667 192c23.467 0 42.667-19.2 42.667-42.667s-19.2-42.667-42.667-42.667h-85.333c-23.467 0-42.667 19.2-42.667 42.667s19.2 42.667 42.667 42.667zM738.347 777.387c16.811 16.043 43.392 15.957 59.819-0.555l128-128c16.64-16.64 16.64-43.691 0-60.331-8.32-8.363-19.2-12.501-30.165-12.501-10.923 0-21.845 4.139-30.165 12.501l-55.168 55.168v-393.813l55.68 53.76c16.981 16.341 43.989 15.872 60.331-1.067 16.384-16.981 15.915-43.947-1.024-60.331l-128-123.605c-8.32-7.936-18.987-11.947-29.653-11.947-10.923 0-21.845 4.139-30.165 12.501l-128 128c-16.64 16.64-16.64 43.648 0 60.331 16.64 16.64 43.648 16.64 60.331 0l55.168-55.168v393.813l-55.68-53.76c-16.939-16.384-43.947-15.872-60.331 1.067s-15.915 43.947 1.024 60.331zM426.667 490.667c23.467 0 42.667-19.2 42.667-42.667s-19.2-42.667-42.667-42.667h-170.667c-23.467 0-42.667 19.2-42.667 42.667s19.2 42.667 42.667 42.667zM426.667 789.333c23.467 0 42.667-19.2 42.667-42.667s-19.2-42.667-42.667-42.667h-298.667c-23.467 0-42.667 19.2-42.667 42.667s19.2 42.667 42.667 42.667z" />
<glyph unicode="&#xe97c;" glyph-name="icons-home" d="M511.923 771.422l298.752-306.859-0.427-357.376h-127.573v298.667c0 23.595-19.115 42.667-42.667 42.667h-256c-23.595 0-42.667-19.072-42.667-42.667v-298.667h-128l0.256 359.125 298.325 305.109zM597.342 363.187v-256h-170.667v256h170.667zM871.433 525.961l-328.917 336.384c-16.085 16.427-44.928 16.427-61.013 0l-328.96-336.427c-15.573-16-24.533-38.357-24.533-61.355v-357.376c0-47.061 36.139-85.333 80.555-85.333h606.848c44.416 0 80.597 38.272 80.597 85.333v357.376c0 22.997-8.96 45.355-24.576 61.397v0z" />
<glyph unicode="&#xe97d;" glyph-name="icons-image" d="M341.333 533.333c35.328 0 64 28.672 64 64s-28.672 64-64 64-64-28.672-64-64 28.672-64 64-64zM768 149.333h-488.064l298.88 249.387c10.496 8.917 29.525 8.875 39.808 0.043l192.043-163.84v-42.923c0-23.552-19.115-42.667-42.667-42.667zM256 746.667h512c23.552 0 42.667-19.115 42.667-42.667v-356.864l-136.661 116.565c-42.24 35.925-108.331 35.925-150.187 0.256l-310.485-259.072v499.115c0 23.552 19.115 42.667 42.667 42.667zM768 832h-512c-70.571 0-128-57.429-128-128v-512c0-70.571 57.429-128 128-128h512c70.571 0 128 57.429 128 128v512c0 70.571-57.429 128-128 128z" />
<glyph unicode="&#xe97e;" glyph-name="icons-inbox" d="M768 149.333h-512c-23.509 0-42.667 19.115-42.667 42.667v213.333h85.333v-128c0-23.595 19.115-42.667 42.667-42.667h341.333c23.552 0 42.667 19.072 42.667 42.667v128h85.333v-213.333c0-23.552-19.157-42.667-42.667-42.667zM355.925 723.072c7.253 14.549 21.888 23.595 38.144 23.595h235.861c16.256 0 30.891-9.045 38.144-23.595l116.224-232.405h-101.632c-23.552 0-42.667-19.072-42.667-42.667v-128h-256v128c0 23.595-19.115 42.667-42.667 42.667h-101.632l116.224 232.405zM886.997 476.075l-142.592 285.184c-21.803 43.605-65.664 70.741-114.475 70.741h-235.861c-48.811 0-92.672-27.136-114.475-70.741l-142.592-285.184c-5.888-11.776-9.003-25.003-9.003-38.144v-245.931c0-70.571 57.429-128 128-128h512c70.571 0 128 57.429 128 128v245.931c0 13.141-3.115 26.368-9.003 38.144z" />
<glyph unicode="&#xe97f;" glyph-name="icons-info" d="M512 533.333c23.552 0 42.667-19.115 42.667-42.667v-213.333c0-23.552-19.115-42.667-42.667-42.667s-42.667 19.115-42.667 42.667v213.333c0 23.552 19.115 42.667 42.667 42.667zM512 661.333c23.552 0 42.667-19.115 42.667-42.667s-19.115-42.667-42.667-42.667-42.667 19.115-42.667 42.667 19.115 42.667 42.667 42.667zM512 106.667c-188.203 0-341.333 153.131-341.333 341.333s153.131 341.333 341.333 341.333 341.333-153.131 341.333-341.333-153.131-341.333-341.333-341.333zM512 874.667c-235.648 0-426.667-191.019-426.667-426.667s191.019-426.667 426.667-426.667c235.605 0 426.667 191.019 426.667 426.667s-191.061 426.667-426.667 426.667z" />
</font>
</defs>
</svg>
