<?xml version="1.0" encoding="utf-8"?>
<!-- Generator: Adobe Illustrator 24.0.2, SVG Export Plug-In . SVG Version: 6.00 Build 0)  -->
<svg version="1.1" id="Layer_1" xmlns="http://www.w3.org/2000/svg" xmlns:xlink="http://www.w3.org/1999/xlink" x="0px" y="0px"
	 viewBox="0 0 1820.2 2048" style="enable-background:new 0 0 1820.2 2048;" xml:space="preserve">
<style type="text/css">
	.st0{fill:#294F74;}
</style>
<path class="st0" d="M105.7,0l-2.6,591c0,2.9-0.5,5.8-1.5,8.6l0,0c-4.2,11.4-11.2,21.5-20.4,29.3c0,0,0,0,0,0l-41.2,28.3
	c-3.2,2.2-7.1,3.7-9.7,6.5c-0.6,0.6-1.2,1.1-1.8,1.6l-3.6,2.9l-2.9,2.4c-0.4,0.3-0.7,0.6-1.1,0.8c-4.9,3-8.9,7.4-11.5,12.6l0,0
	C3.2,696.1,0,709.6,0,723.3L0.2,2048c0,0,0,0,0,0h1820c0,0,0,0,0,0V0c0,0,0,0,0,0L105.7,0C105.7,0,105.7,0,105.7,0z"/>
</svg>
