<?xml version="1.0" encoding="utf-8"?>
<!-- Generator: Adobe Illustrator 24.0.2, SVG Export Plug-In . SVG Version: 6.00 Build 0)  -->
<svg version="1.1" id="Layer_1" xmlns="http://www.w3.org/2000/svg" xmlns:xlink="http://www.w3.org/1999/xlink" x="0px" y="0px"
	 viewBox="0 0 105.7 710.4" style="enable-background:new 0 0 105.7 710.4;" xml:space="preserve">
<style type="text/css">
	.st0{fill:#FFFFFF;}
</style>
<path class="st0" d="M20.8,671.3c0.4-0.2,0.8-0.5,1.1-0.8l2.9-2.4l3.6-2.9c0.6-0.5,1.2-1,1.8-1.6c2.7-2.7,6.6-4.3,9.7-6.5l41.2-28.3
	c0,0,0,0,0,0c9.2-7.8,16.3-17.9,20.4-29.3c1-2.7,1.5-5.6,1.5-8.6l2.6-591c0,0,0,0,0,0H0v710.4h0.9c1.4-9.2,4.2-18.2,8.4-26.5
	C11.9,678.7,15.9,674.4,20.8,671.3z"/>
</svg>
