<?xml version="1.0" encoding="utf-8"?>
<!-- Generator: Adobe Illustrator 24.0.2, SVG Export Plug-In . SVG Version: 6.00 Build 0)  -->
<svg version="1.1" id="Layer_1" xmlns="http://www.w3.org/2000/svg" xmlns:xlink="http://www.w3.org/1999/xlink" x="0px" y="0px"
	 viewBox="0 0 254 70" style="enable-background:new 0 0 254 70;" xml:space="preserve">
<style type="text/css">
	.st0{fill:#FFFFFF;}
</style>
<path class="st0" d="M0.6,1L0.6,1c11.4,3.4,22,9.2,31.1,17l7.2,6.2c0,0,0,0,0,0l24,25c0,0,0,0,0,0l9.9,7.5
	c5.4,4.1,11.3,7.7,17.5,10.6c0.7,0.4,3.2,0.8,6,1.2c7.2,1.1,14.4,1.6,21.6,1.6h135.5c0.2,0,0.4-0.2,0.4-0.4V0.6
	c0-0.2-0.2-0.4-0.4-0.4H0.7C0.2,0.2,0.1,0.9,0.6,1z"/>
</svg>
