<svg xmlns="http://www.w3.org/2000/svg" xmlns:xlink="http://www.w3.org/1999/xlink" width="80" height="72" viewBox="0 0 80 72">
    <defs>
        <filter id="qx47kk45oa">
            <feColorMatrix in="SourceGraphic" values="0 0 0 0 1.000000 0 0 0 0 1.000000 0 0 0 0 1.000000 0 0 0 1.000000 0"/>
        </filter>
        <path id="narjrgix8b" d="M0 0.122L15.257 0.122 15.257 6.426 0 6.426z"/>
    </defs>
    <g fill="none" fill-rule="evenodd">
        <g>
            <g filter="url(#qx47kk45oa)" transform="translate(-744 -451) translate(744 451)">
                <path fill="#231F20" d="M46.081 62.208c-.7.29-1.19.501-1.688.698-.384.151-.766.32-1.165.42-2.606.651-5.109.224-7.569-.723-.307-.118-.88-.177-.996-.019-.21.286-.255.766-.214 1.148.07.645.56.846 1.16 1.03.944.288 1.923.744 1.937 1.93.014 1.175.662 1.576 1.654 1.66.742.063 1.51.147 2.235.032 1.373-.218 2.114-1.057 2.275-2.444.088-.754.287-1.292 1.12-1.573.772-.26 1.311-.868 1.251-2.159M26.953 38.876c.268 4.64 1.734 8.755 5.518 11.807.387.312.716.742.963 1.18.97 1.715 1.7 3.524 2.168 5.451.408 1.684 1.456 2.896 3.248 3.086 1.036.11 2.126-.032 3.161-.227 1.79-.336 2.176-.639 2.146-2.388-.055-3.256 1.867-5.496 3.657-7.83 1.473-1.922 3.537-3.39 4.404-5.779.32-.882.755-1.724 1.038-2.616 1.206-3.797.62-7.547-1.617-10.613-2.453-3.365-6.328-4.42-10.43-4.03-3.775.36-7.117 1.908-10.183 4.134-2.675 1.942-4.573 4.214-4.073 7.825m30.055-.316c-.03 3.04-.866 5.815-2.457 8.306-1.15 1.802-2.528 3.476-3.926 5.104-1.663 1.935-2.47 4.144-2.604 6.654-.029.55-.196 1.093-.229 1.644-.038.641-.138 1.327.036 1.921.453 1.543.062 2.85-.799 4.118-.469.691-.934 1.406-1.259 2.171-.98 2.312-3.443 3.66-6.04 3.406-.788-.076-1.566-.252-2.352-.345-1.614-.192-2.575-1.116-3.102-2.613-.198-.565-.445-1.166-.837-1.598-1.633-1.802-1.75-3.909-1.193-6.075.27-1.044.24-2.003.122-3.038-.28-2.486-1.41-4.632-2.535-6.787-.17-.326-.416-.632-.686-.885-2.119-1.99-2.915-4.628-3.673-7.307-.58-2.049-.809-4.11-.819-6.244-.01-2.195.86-3.91 2.338-5.379 4.144-4.115 9.06-6.7 14.96-6.929 3.532-.137 6.822.845 9.78 2.946 2.504 1.78 3.71 4.276 4.458 7.093.335 1.262.55 2.557.817 3.837M57.877 21.277c-.755-.372-1.391-.577-1.89-.959-.644-.495-.406-1.49.39-1.985 3.728-2.315 7.015-5.108 9.614-8.684.342-.47 1.017-.836 1.599-.958.735-.155 1.344.297 1.678 1.01.345.736-.011 1.233-.543 1.715-2.604 2.358-5.203 4.722-7.782 7.108-.478.442-.813 1.04-1.296 1.474-.526.472-1.147.837-1.77 1.28M79.093 53.434c-.448.59-.669 1.125-1.06 1.326-.317.16-.903.036-1.259-.161-2.089-1.16-4.109-2.451-6.227-3.555-1.777-.925-3.649-1.674-5.496-2.463-.7-.3-1.37-.538-1.676-1.358-.31-.838-.117-1.472.553-1.983.691-.526 1.266-.446 1.997.134 1.094.868 2.313 1.604 3.554 2.255 2.65 1.389 5.371 2.64 8.006 4.057.627.337 1.026 1.096 1.608 1.748M40.204 0c1.275.173 1.866.821 2.075 1.953.695 3.767 1.467 7.52 2.214 11.277.037.183.127.354.173.536.316 1.244.086 1.908-.717 2.084-.955.21-2.136-.53-2.308-1.484-.549-3.036-1.038-6.082-1.64-9.107-.178-.892-.688-1.714-.985-2.589-.183-.54-.507-1.247-.306-1.647.238-.472.974-.693 1.494-1.023"/>
                <g transform="translate(0 39.915)">
                    <mask id="ep02ch7gfc" fill="#fff">
                        <use xlink:href="#narjrgix8b"/>
                    </mask>
                    <path fill="#231F20" d="M1.735 6.426C.778 6.386.113 5.816.01 4.896c-.088-.783.419-1.415 1.364-1.635 3.14-.733 6.287-1.436 9.422-2.19.768-.185 1.518-.481 2.24-.804.749-.332 1.37-.06 1.73.487.327.49.546 1.194.48 1.766-.076.666-.64 1.035-1.417 1.102-3.508.3-6.923 1.012-10.188 2.384-.59.248-1.27.285-1.906.42" mask="url(#ep02ch7gfc)"/>
                </g>
                <path fill="#231F20" d="M12.764 65.334c-1.38-.042-2.082-1.513-1.472-2.558.228-.39.567-.788.955-1.001 3.198-1.76 5.354-4.595 7.638-7.303.03-.035.053-.076.08-.115.888-1.213 1.542-1.454 2.249-.826.862.766.845 2.06-.052 2.963-1.681 1.69-3.375 3.367-5.053 5.06-1.08 1.09-2.112 2.232-3.231 3.28-.344.322-.905.412-1.114.5M64.724 35.141c-1.105-.004-2.091-.73-2.33-1.558-.194-.67.33-1.209 1.276-1.26 1.359-.075 2.722-.08 4.078-.188 3.163-.252 6.197-1.004 8.987-2.564.977-.546 1.625.164 2.284.591.282.183.413.816.376 1.223-.062.667-.547 1.006-1.237 1.141-2.893.567-5.774 1.194-8.665 1.766-1.654.328-3.321.593-4.77.85M56.814 54.964c.67.603 1.309 1.005 1.72 1.572 2.329 3.209 5.11 5.98 8.079 8.585.369.323.519.896.77 1.353-.588.31-1.151.774-1.774.875-.4.065-.99-.305-1.32-.648-2.504-2.591-4.961-5.228-7.445-7.84-.352-.368-.794-.65-1.158-1.008-.425-.421-1.072-.894-.615-1.533.37-.52 1.039-.828 1.743-1.356M16.554 28.812c-.023 1.396-.927 1.962-1.945 1.542-.818-.338-1.56-.857-2.356-1.256-2.722-1.362-5.448-2.717-8.184-4.05-1.008-.492-1.305-1.11-.921-2.14.3-.808.779-.986 1.533-.536 3.426 2.045 6.993 3.782 10.756 5.136.557.2.89 1.026 1.117 1.304M20.084 5.837c.579.735 1.078 1.206 1.38 1.78 1.065 2.032 2.022 4.12 3.101 6.143.593 1.113 1.41 2.107 1.996 3.223.223.426.254 1.119.066 1.559-.393.917-1.387.994-2.052.236-.24-.274-.425-.621-.552-.966-1.111-3.02-2.835-5.692-4.67-8.303-.491-.7-1.018-1.433-.545-2.311.239-.444.704-.766 1.276-1.361M39.065 58.055c-.269-.433-.609-.822-.775-1.276-.548-1.497-1.032-3.016-1.54-4.528-.089-.265-.15-.544-.265-.798-1.658-3.664-3.332-7.32-4.979-10.99-.263-.586-.512-1.21-.592-1.84-.187-1.463-.108-1.5 1.258-2.034.331-.13.637-.374.896-.626.928-.9 1.58-.756 1.975.52.29.94.442 1.922.728 2.863.217.712.49 1.419.842 2.073.367.683 1.65 1.134 2.34.928.805-.24 1.31-1.095 1.257-2.106-.077-1.495-.208-2.991-.192-4.485.012-1.157.45-1.496 1.558-1.524 1.305-.033 1.886.329 1.996 1.438.1 1.017.052 2.05.048 3.075-.002.608-.096 1.22-.055 1.823.055.805.368 1.485 1.297 1.582.873.092 1.644-.186 1.951-1.05.438-1.232.78-2.503 1.11-3.772.201-.77.348-1.513 1.417-1.32.964.173 1.628.95 1.45 1.9-.423 2.26-1.109 4.445-2.22 6.473-1.35 2.465-2.715 4.922-4.09 7.372-.473.84-.976 1.676-2.164 2.084.385-3.25 2.468-5.7 3.095-8.594-1.04-.507-1.964-1.023-2.943-1.396-.319-.122-.818.053-1.169.225-1.046.51-2.099.744-3.268.507-.36-.073-1.033.02-1.112.218-.167.416-.197 1.03 0 1.425 1.57 3.184 2.328 6.61 3.09 10.036.194.87.091.999-.944 1.797"/>
            </g>
        </g>
    </g>
</svg>
