<svg xmlns="http://www.w3.org/2000/svg" xmlns:xlink="http://www.w3.org/1999/xlink" width="224" height="102" viewBox="0 0 224 102">
    <defs>
        <filter id="zby5z9k7va">
            <feColorMatrix in="SourceGraphic" values="0 0 0 0 1.000000 0 0 0 0 1.000000 0 0 0 0 1.000000 0 0 0 1.000000 0"/>
        </filter>
        <path id="au4f4w6u2b" d="M0 102L223.803 102 223.803 0.064 0 0.064z"/>
    </defs>
    <g fill="none" fill-rule="evenodd">
        <g>
            <g>
                <g filter="url(#zby5z9k7va)" transform="translate(-124 -2670) translate(0 2292) translate(0 323)">
                    <g>
                        <path fill="#6D6E70" d="M7.879 83.934L7.879 89.663 2.661 89.663 2.661 83.934 0 83.934 0 97.86 2.661 97.86 2.661 91.983 7.879 91.983 7.879 97.86 10.541 97.86 10.541 83.934z" transform="translate(124 55)"/>
                        <g transform="translate(124 55)">
                            <path fill="#6D6E70" d="M15.475 91.585h3.223v-.5c0-.955-.29-1.615-1.537-1.615-1.248 0-1.686.66-1.686 1.614v.501zm1.976 4.254c.976 0 1.996-.143 3.098-.477l.394 1.908c-1.143.437-2.516.644-3.72.644-3.182 0-4.283-1.475-4.283-3.904V91.34c0-2.139.956-3.944 4.199-3.944 3.245 0 3.971 1.885 3.971 4.063v2.163h-5.635v.516c0 1.225.438 1.702 1.976 1.702zM28.622 89.717c-.976.437-1.767.89-2.68 1.475v6.515h-2.537V87.602h2.141l.166 1.121c.562-.374 1.767-1.081 2.661-1.328l.25 2.322zM35.55 89.717c-.976.437-1.767.89-2.681 1.475v6.515h-2.536V87.602h2.141l.166 1.121c.562-.374 1.767-1.081 2.661-1.328l.25 2.322zM42.168 93.887h-1.871c-.833 0-1.062.226-1.062.998 0 .703.23 1.017 1.02 1.017.75 0 1.434-.25 1.913-.52v-1.495zm2.537 3.82h-2.08l-.187-.684c-.914.597-1.996.89-3.015.89-1.85 0-2.64-1.263-2.64-3.009 0-2.054.895-2.842 2.952-2.842h2.433v-1.057c0-1.121-.311-1.515-1.933-1.515-.916 0-1.914.124-2.809.31l-.31-1.928c.956-.29 2.348-.477 3.472-.477 3.18 0 4.117 1.121 4.117 3.65v6.662zM53.402 97.707V90.65c0-.536-.23-.807-.81-.807-.626 0-1.728.374-2.642.85v7.013h-2.536V87.602h1.932l.251.85c1.267-.62 2.869-1.057 4.054-1.057.976 0 1.58.394 1.912 1.078 1.227-.624 2.849-1.078 4.076-1.078 1.683 0 2.287 1.181 2.287 2.99v7.322H59.39V90.65c0-.536-.23-.807-.811-.807-.625 0-1.85.394-2.641.85v7.013h-2.536z"/>
                            <mask id="6xuriwt6xc" fill="#fff">
                                <use xlink:href="#au4f4w6u2b"/>
                            </mask>
                            <path fill="#6D6E70" d="M64.744 97.707h2.536V87.602h-2.536v10.105zm0-11.536h2.536v-2.926h-2.536v2.926zM72.272 91.585h3.223v-.5c0-.955-.291-1.615-1.538-1.615s-1.685.66-1.685 1.614v.501zm1.976 4.254c.978 0 1.996-.143 3.097-.477l.395 1.908c-1.144.437-2.514.644-3.721.644-3.182 0-4.283-1.475-4.283-3.904V91.34c0-2.139.956-3.944 4.2-3.944s3.971 1.885 3.971 4.063v2.163h-5.635v.516c0 1.225.438 1.702 1.976 1.702zM86.19 97.707V90.65c0-.536-.23-.807-.811-.807-.626 0-1.727.374-2.642.85v7.013h-2.535V87.602h1.932l.25.85c1.268-.62 2.87-1.057 4.055-1.057 1.683 0 2.286 1.181 2.286 2.99v7.322H86.19zM96.924 97.516c-.54.23-1.58.397-2.225.397-1.85 0-2.785-.874-2.785-2.679v-5.62h-1.518v-2.012h1.518V85.09l2.536-.35v2.862h2.6l-.168 2.011H94.45v5.291c0 .537.25.895.914.895.375 0 .833-.088 1.27-.21l.29 1.927zM103.894 93.887h-1.87c-.833 0-1.062.226-1.062.998 0 .703.229 1.017 1.02 1.017.749 0 1.434-.25 1.912-.52v-1.495zm2.538 3.82h-2.08l-.187-.684c-.914.597-1.996.89-3.016.89-1.849 0-2.64-1.263-2.64-3.009 0-2.054.895-2.842 2.953-2.842h2.432v-1.057c0-1.121-.31-1.515-1.932-1.515-.917 0-1.914.124-2.81.31l-.31-1.928c.956-.29 2.349-.477 3.472-.477 3.181 0 4.118 1.121 4.118 3.65v6.662zM112.278 97.913c-1.08 0-2.556-.25-3.492-.58l.355-1.932c.852.25 1.974.438 3.014.438 1.123 0 1.286-.25 1.286-1.018 0-.62-.123-.934-1.765-1.328-2.474-.6-2.765-1.224-2.765-3.172 0-2.035.895-2.926 3.781-2.926.937 0 2.164.124 3.036.35l-.247 2.012c-.769-.144-1.996-.287-2.789-.287-1.1 0-1.286.247-1.286.87 0 .808.063.872 1.434 1.225 2.828.744 3.1 1.117 3.1 3.193 0 1.951-.606 3.155-3.662 3.155" mask="url(#6xuriwt6xc)"/>
                            <path fill="#274F78" d="M118.334 97.707L118.334 83.889 121.453 83.889 121.453 94.948 126.943 94.948 126.943 97.707zM133.811 91.025c0-.704-.207-1.284-1.247-1.284s-1.374.58-1.374 1.284v.433h2.621v-.433zM131.19 93.7v.294c0 1.16.458 1.471 1.828 1.471.937 0 2.183-.167 3.08-.437l.434 2.241c-.912.335-2.39.644-3.805.644-3.282 0-4.53-1.621-4.53-4.11v-2.36c0-2.18.977-4.048 4.343-4.048 3.37 0 4.1 1.992 4.1 4.19V93.7h-5.45zM143.691 91.772v-.954c0-.664-.35-1.061-1.35-1.061-.996 0-1.351.397-1.351 1.061v.954c0 .684.375.998 1.35.998.976 0 1.351-.314 1.351-.998zm-5.486-1.077c.04-2.035 1.164-3.3 4.135-3.3.666 0 1.228.08 1.726.207h3.163v1.412l-1.02.373c.167.394.25.85.27 1.308v1.224c0 1.928-1.35 3.212-4.139 3.212h-.31c-.207.127-.439.27-.439.565 0 .222.148.389.335.413 1.35.143 1.765.183 2.514.246 1.705.147 2.454.728 2.454 2.473 0 2.425-1.518 3.172-4.657 3.172-.996 0-2.701-.167-4.032-.517l.434-2.178c1.207.286 2.435.413 3.327.413 1.562 0 2.183-.063 2.183-.727 0-.394-.187-.497-.789-.56-1.143-.104-1.33-.124-2.577-.247-1.375-.147-2.163-.437-2.163-1.829 0-.807.374-1.347.872-1.844-.872-.517-1.287-1.391-1.287-2.592v-1.224zM153.782 94.074h-1.434c-.645 0-.896.167-.896.727 0 .56.23.787.812.787.622 0 1.06-.147 1.518-.354v-1.16zm.538 3.633l-.207-.644c-1.163.644-2.203.85-2.888.85-1.873 0-2.642-1.35-2.642-3.068 0-2.036.936-2.846 3.016-2.846h2.183v-.768c0-1.037-.187-1.387-1.788-1.387-.897 0-1.789.103-2.745.286l-.395-2.238c.956-.29 2.474-.497 3.637-.497 3.514 0 4.283 1.058 4.283 3.856v6.456h-2.454zM159.276 97.707L159.276 83.476 162.272 83.059 162.272 97.707zM170.073 91.025c0-.704-.208-1.284-1.248-1.284s-1.374.58-1.374 1.284v.433h2.622v-.433zM167.45 93.7v.294c0 1.16.458 1.471 1.828 1.471.937 0 2.184-.167 3.08-.437l.434 2.241c-.912.335-2.39.644-3.804.644-3.283 0-4.53-1.621-4.53-4.11v-2.36c0-2.18.976-4.048 4.343-4.048 3.37 0 4.1 1.992 4.1 4.19V93.7h-5.451zM178.247 97.913c-1.099 0-2.68-.27-3.677-.604l.478-2.218c.833.247 1.932.457 3.056.457.892 0 1.04-.25 1.04-.85 0-.644-.02-.728-1.642-1.121-2.454-.6-2.685-1.268-2.685-3.152 0-2.14.833-3.03 3.868-3.03.77 0 2.184.104 3.076.334l-.267 2.322c-.896-.167-1.996-.294-2.788-.294-.873 0-1.08.23-1.08.687 0 .624.083.704 1.287.974 2.892.644 3.099 1.264 3.099 3.28 0 2.07-.873 3.215-3.765 3.215M184.096 97.707L187.092 97.707 187.092 94.26 184.096 94.26zM192.167 93.847c0 1.038.438 1.514 1.642 1.514.772 0 1.354-.083 2.08-.25l.373 2.492c-1.015.227-1.744.31-2.453.31-3.283 0-4.634-1.224-4.634-4.11v-2.301c0-2.882 1.35-4.107 4.634-4.107.709 0 1.438.08 2.453.31l-.374 2.489c-.621-.143-1.494-.246-2.08-.246-1.203 0-1.641.476-1.641 1.51v2.39zM203.82 93.907v-2.509c0-.954-.502-1.494-1.582-1.494-1.079 0-1.581.54-1.581 1.494v2.509c0 .954.502 1.494 1.581 1.494 1.08 0 1.582-.54 1.582-1.494m-6.155-.08v-2.345c0-2.075.976-4.087 4.573-4.087 3.598 0 4.574 2.012 4.574 4.087v2.345c0 2.075-.976 4.086-4.574 4.086-3.597 0-4.573-2.01-4.573-4.086M214.903 97.707v-6.683c0-.457-.207-.727-.725-.727-.542 0-1.538.374-2.183.727v6.683h-2.996V87.602h2.227l.31.767c1.248-.6 2.87-.974 4.033-.974.896 0 1.497.35 1.852.974 1.143-.56 2.661-.974 4.052-.974 1.729 0 2.33 1.288 2.33 3.236v7.076h-2.996v-6.683c0-.457-.207-.727-.725-.727-.542 0-1.537.374-2.183.727v6.683h-2.996zM146.982.064h-70.16C69.922.064 64.33 5.645 64.33 12.53c0 6.883 5.593 12.464 12.491 12.464h.765c6.53 0 11.824-5.283 11.824-11.8h-7c0 2.66-2.16 4.814-4.824 4.814h-.772c-3.028 0-5.482-2.449-5.482-5.472 0-3.019 2.454-5.47 5.482-5.47h70.16c3.028 0 5.481 2.451 5.481 5.47 0 3.023-2.453 5.472-5.481 5.472h-.757c-2.666 0-4.824-2.155-4.824-4.814h-7c0 6.517 5.294 11.8 11.824 11.8h.765c6.896 0 12.49-5.58 12.49-12.464 0-6.885-5.594-12.466-12.49-12.466" mask="url(#6xuriwt6xc)"/>
                            <path fill="#274F78" d="M108.392 30.504L115.409 30.504 115.409 13.204 108.392 13.204z" mask="url(#6xuriwt6xc)"/>
                            <path fill="#6D6E70" d="M128.381 13.204L128.381 54.807 121.405 54.807 121.405 37.506 102.396 37.506 102.396 54.807 95.42 54.807 95.42 13.204 102.396 13.204 102.396 30.504 121.405 30.504 121.405 13.204z" mask="url(#6xuriwt6xc)"/>
                            <path fill="#274F78" d="M115.402 43.471L108.4 43.471 108.4 68.402 128.397 68.402 128.397 61.414 115.402 61.414z" mask="url(#6xuriwt6xc)"/>
                            <path fill="#6D6E70" d="M133.787 56.111l11.725 4.099c.25.087.278.433.04.552l-3.323 1.71 3.494 3.49-2.363 2.353-3.581-3.395-1.713 3.316c-.124.238-.47.214-.558-.04L133.4 56.493c-.088-.239.143-.47.386-.382M132.229 55.551L130.237 53.969 130.592 53.523 132.584 55.106zM132.4 58.623c.144.128.3.243.463.335l-1.701 1.963-.43-.373 1.669-1.925zM137.668 53.416l-1.582 1.82c-.12-.15-.251-.29-.399-.405l1.55-1.788.43.373z" mask="url(#6xuriwt6xc)"/>
                        </g>
                    </g>
                </g>
            </g>
        </g>
    </g>
</svg>
