<svg xmlns="http://www.w3.org/2000/svg" xmlns:xlink="http://www.w3.org/1999/xlink" width="259" height="118" viewBox="0 0 259 118">
    <defs>
        <path id="1e3ej5lgca" d="M0 118L258.772 118 258.772 0.074 0 0.074z"/>
    </defs>
    <g fill="none" fill-rule="evenodd">
        <g>
            <g>
                <g>
                    <path fill="#6D6E70" d="M9.111 97.1L9.111 103.728 3.077 103.728 3.077 97.1 0 97.1 0 113.21 3.077 113.21 3.077 106.411 9.111 106.411 9.111 113.21 12.188 113.21 12.188 97.1z" transform="translate(-195 -115) translate(164 115) translate(31)"/>
                    <g transform="translate(-195 -115) translate(164 115) translate(31)">
                        <path fill="#6D6E70" d="M17.893 105.952h3.727v-.58c0-1.104-.336-1.867-1.778-1.867s-1.949.763-1.949 1.867v.58zm2.285 4.92c1.129 0 2.308-.165 3.582-.552l.455 2.208c-1.322.505-2.908.745-4.302.745-3.678 0-4.952-1.706-4.952-4.516v-3.09c0-2.475 1.106-4.563 4.855-4.563 3.752 0 4.593 2.18 4.593 4.7v2.502h-6.516v.598c0 1.416.507 1.968 2.285 1.968zM33.094 103.79c-1.128.506-2.043 1.03-3.1 1.706v7.537h-2.932v-11.69h2.476l.191 1.297c.65-.432 2.043-1.25 3.078-1.536l.287 2.686zM41.105 103.79c-1.129.506-2.043 1.03-3.1 1.706v7.537h-2.932v-11.69h2.476l.191 1.297c.65-.432 2.043-1.25 3.077-1.536l.288 2.686zM48.756 108.614h-2.163c-.962 0-1.227.262-1.227 1.155 0 .814.265 1.177 1.18 1.177.865 0 1.657-.29 2.21-.603v-1.73zm2.934 4.42h-2.404l-.217-.791c-1.057.69-2.308 1.03-3.487 1.03-2.137 0-3.051-1.463-3.051-3.482 0-2.377 1.034-3.288 3.413-3.288h2.812v-1.223c0-1.297-.36-1.752-2.234-1.752-1.06 0-2.213.143-3.248.359l-.359-2.23c1.106-.336 2.716-.553 4.015-.553 3.678 0 4.76 1.297 4.76 4.222v7.707zM61.746 113.033v-8.162c0-.62-.265-.934-.937-.934-.724 0-1.997.433-3.054.984v8.112h-2.933v-11.69h2.235l.29.985c1.465-.718 3.317-1.224 4.687-1.224 1.128 0 1.826.456 2.21 1.247 1.42-.722 3.295-1.247 4.713-1.247 1.947 0 2.644 1.366 2.644 3.459v8.47H68.67v-8.162c0-.62-.265-.934-.938-.934-.723 0-2.14.455-3.054.984v8.112h-2.932z"/>
                        <mask id="luqxt8k4bb" fill="#fff">
                            <use xlink:href="#1e3ej5lgca"/>
                        </mask>
                        <path fill="#6D6E70" d="M74.86 113.033h2.933v-11.69H74.86v11.69zm0-13.345h2.933v-3.384H74.86v3.384zM83.564 105.952h3.727v-.58c0-1.104-.336-1.867-1.778-1.867s-1.949.763-1.949 1.867v.58zm2.285 4.92c1.13 0 2.308-.165 3.581-.552l.457 2.208c-1.323.505-2.907.745-4.303.745-3.678 0-4.952-1.706-4.952-4.516v-3.09c0-2.475 1.106-4.563 4.855-4.563 3.752 0 4.593 2.18 4.593 4.7v2.502h-6.516v.598c0 1.416.507 1.968 2.285 1.968zM99.656 113.033v-8.162c0-.62-.264-.934-.937-.934-.723 0-1.997.433-3.054.984v8.112h-2.932v-11.69h2.234l.29.985c1.465-.718 3.317-1.224 4.688-1.224 1.946 0 2.644 1.366 2.644 3.459v8.47h-2.933zM112.068 112.813c-.624.267-1.826.46-2.572.46-2.14 0-3.22-1.012-3.22-3.1v-6.503h-1.755v-2.326h1.755v-2.906l2.932-.405v3.31h3.005l-.193 2.327h-2.812v6.121c0 .621.288 1.035 1.057 1.035.433 0 .963-.101 1.467-.243l.336 2.23zM120.127 108.614h-2.162c-.963 0-1.228.262-1.228 1.155 0 .814.265 1.177 1.18 1.177.865 0 1.658-.29 2.21-.603v-1.73zm2.934 4.42h-2.404l-.216-.791c-1.058.69-2.308 1.03-3.487 1.03-2.138 0-3.052-1.463-3.052-3.482 0-2.377 1.034-3.288 3.413-3.288h2.812v-1.223c0-1.297-.359-1.752-2.234-1.752-1.06 0-2.213.143-3.247.359l-.36-2.23c1.106-.336 2.716-.553 4.015-.553 3.678 0 4.76 1.297 4.76 4.222v7.707zM129.821 113.272c-1.248 0-2.955-.289-4.037-.67l.41-2.236c.986.29 2.283.506 3.485.506 1.299 0 1.487-.29 1.487-1.177 0-.718-.142-1.081-2.04-1.536-2.86-.694-3.197-1.417-3.197-3.67 0-2.354 1.034-3.385 4.371-3.385 1.083 0 2.502.143 3.51.405l-.285 2.327c-.89-.166-2.308-.331-3.225-.331-1.27 0-1.487.285-1.487 1.007 0 .934.073 1.007 1.658 1.416 3.27.86 3.584 1.293 3.584 3.693 0 2.258-.7 3.651-4.234 3.651" mask="url(#luqxt8k4bb)"/>
                        <path fill="#274F78" d="M136.823 113.033L136.823 97.048 140.43 97.048 140.43 109.842 146.778 109.842 146.778 113.033zM154.719 105.303c0-.814-.24-1.485-1.442-1.485s-1.589.671-1.589 1.485v.501h3.03v-.501zm-3.03 3.095v.34c0 1.343.529 1.702 2.113 1.702 1.083 0 2.524-.193 3.561-.506l.502 2.593c-1.055.387-2.764.745-4.399.745-3.795 0-5.237-1.876-5.237-4.754v-2.732c0-2.52 1.128-4.682 5.02-4.682 3.898 0 4.74 2.304 4.74 4.848v2.446h-6.3zM166.143 106.168v-1.104c0-.768-.406-1.228-1.562-1.228-1.151 0-1.561.46-1.561 1.228v1.104c0 .79.433 1.154 1.561 1.154 1.129 0 1.562-.363 1.562-1.154zm-6.343-1.247c.046-2.354 1.345-3.817 4.781-3.817.77 0 1.419.093 1.995.24h3.657v1.632l-1.18.432c.195.456.291.984.314 1.513v1.417c0 2.23-1.561 3.715-4.786 3.715h-.359c-.24.148-.507.313-.507.654 0 .257.17.45.387.478 1.562.165 2.04.211 2.907.285 1.971.17 2.837.841 2.837 2.86 0 2.805-1.755 3.67-5.385 3.67-1.151 0-3.123-.193-4.661-.598l.502-2.52c1.395.331 2.814.478 3.846.478 1.806 0 2.525-.073 2.525-.841 0-.455-.217-.575-.913-.649-1.321-.12-1.538-.142-2.98-.285-1.59-.17-2.501-.505-2.501-2.115 0-.934.433-1.56 1.009-2.134-1.01-.598-1.488-1.61-1.488-2.998v-1.417zM177.81 108.83h-1.658c-.746 0-1.036.193-1.036.842 0 .648.267.91.94.91.718 0 1.225-.17 1.755-.409v-1.343zm.623 4.203l-.24-.745c-1.345.745-2.547.984-3.34.984-2.165 0-3.054-1.563-3.054-3.55 0-2.354 1.083-3.292 3.487-3.292h2.525v-.888c0-1.2-.217-1.605-2.069-1.605-1.036 0-2.068.12-3.173.331l-.456-2.589c1.105-.335 2.86-.575 4.205-.575 4.063 0 4.952 1.224 4.952 4.461v7.468h-2.837zM184.163 113.033L184.163 96.57 187.627 96.088 187.627 113.033zM196.646 105.303c0-.814-.24-1.485-1.442-1.485s-1.589.671-1.589 1.485v.501h3.031v-.501zm-3.03 3.095v.34c0 1.343.53 1.702 2.113 1.702 1.083 0 2.525-.193 3.561-.506l.502 2.593c-1.054.387-2.763.745-4.398.745-3.796 0-5.238-1.876-5.238-4.754v-2.732c0-2.52 1.128-4.682 5.02-4.682 3.898 0 4.74 2.304 4.74 4.848v2.446h-6.3zM206.098 113.272c-1.27 0-3.1-.312-4.251-.698l.553-2.567c.962.286 2.234.53 3.533.53 1.032 0 1.202-.29 1.202-.985 0-.745-.023-.841-1.898-1.296-2.837-.695-3.105-1.467-3.105-3.647 0-2.474.963-3.505 4.473-3.505.89 0 2.525.12 3.556.387l-.309 2.686c-1.036-.194-2.307-.34-3.224-.34-1.009 0-1.248.266-1.248.795 0 .722.097.814 1.488 1.126 3.344.745 3.583 1.463 3.583 3.794 0 2.396-1.008 3.72-4.353 3.72M212.861 113.033L216.325 113.033 216.325 109.046 212.861 109.046zM222.193 108.568c0 1.2.507 1.752 1.898 1.752.894 0 1.566-.096 2.405-.29l.432 2.884c-1.174.262-2.017.358-2.837.358-3.796 0-5.357-1.416-5.357-4.754v-2.663c0-3.334 1.561-4.75 5.357-4.75.82 0 1.663.092 2.837.358l-.432 2.88c-.719-.167-1.728-.286-2.405-.286-1.391 0-1.898.552-1.898 1.747v2.764zM235.667 108.637v-2.902c0-1.103-.58-1.729-1.829-1.729-1.248 0-1.829.626-1.829 1.73v2.901c0 1.104.581 1.73 1.829 1.73s1.829-.626 1.829-1.73m-7.117-.092v-2.713c0-2.4 1.128-4.728 5.288-4.728s5.288 2.327 5.288 4.728v2.713c0 2.4-1.128 4.727-5.288 4.727s-5.288-2.326-5.288-4.727M248.482 113.033v-7.73c0-.529-.24-.841-.839-.841-.626 0-1.778.432-2.524.84v7.731h-3.464v-11.69h2.575l.36.888c1.441-.694 3.316-1.127 4.661-1.127 1.036 0 1.732.405 2.142 1.127 1.322-.648 3.077-1.127 4.685-1.127 1.999 0 2.694 1.49 2.694 3.744v8.185h-3.464v-7.73c0-.529-.239-.841-.838-.841-.626 0-1.778.432-2.524.84v7.731h-3.464zM169.948.074H88.825c-7.976 0-14.443 6.457-14.443 14.422 0 7.962 6.467 14.419 14.443 14.419h.884c7.55 0 13.672-6.112 13.672-13.651h-8.093c0 3.076-2.5 5.569-5.579 5.569h-.893c-3.501 0-6.339-2.833-6.339-6.33 0-3.493 2.838-6.328 6.339-6.328h81.122c3.501 0 6.339 2.835 6.339 6.328 0 3.497-2.838 6.33-6.339 6.33h-.875c-3.082 0-5.578-2.493-5.578-5.57h-8.094c0 7.54 6.123 13.652 13.672 13.652h.885c7.973 0 14.44-6.457 14.44-14.419 0-7.965-6.467-14.422-14.44-14.422" mask="url(#luqxt8k4bb)"/>
                        <path fill="#274F78" d="M125.328 35.289L133.442 35.289 133.442 15.275 125.328 15.275z" mask="url(#luqxt8k4bb)"/>
                        <path fill="#6D6E70" d="M148.44 15.275L148.44 63.405 140.375 63.405 140.375 43.389 118.395 43.389 118.395 63.405 110.33 63.405 110.33 15.275 118.395 15.275 118.395 35.289 140.375 35.289 140.375 15.275z" mask="url(#luqxt8k4bb)"/>
                        <path fill="#274F78" d="M133.433 50.289L125.337 50.289 125.337 79.132 148.459 79.132 148.459 71.048 133.433 71.048z" mask="url(#luqxt8k4bb)"/>
                        <path fill="#6D6E70" d="M154.691 64.913l13.557 4.741c.29.101.322.502.046.64l-3.842 1.977 4.04 4.038-2.732 2.722-4.14-3.927-1.982 3.835c-.142.276-.543.248-.644-.046l-4.75-13.538c-.1-.277.166-.543.447-.442M152.89 64.265L150.587 62.435 150.997 61.919 153.3 63.75zM153.088 67.82c.166.146.346.28.535.386l-1.967 2.272-.498-.433 1.93-2.226zM159.178 61.795l-1.829 2.106c-.138-.175-.29-.335-.46-.469l1.791-2.069.498.432z" mask="url(#luqxt8k4bb)"/>
                    </g>
                </g>
            </g>
        </g>
    </g>
</svg>
