<svg xmlns="http://www.w3.org/2000/svg" xmlns:xlink="http://www.w3.org/1999/xlink" width="326" height="31" viewBox="0 0 326 31">
    <defs>
        <path id="99xi87vgja" d="M0 31L325.95 31 325.95 0.202 0 0.202z"/>
    </defs>
    <g fill="none" fill-rule="evenodd">
        <g>
            <g>
                <path fill="#6D6E70" d="M69.279 23.544L69.279 16.589 63.244 16.589 63.244 23.544 60.166 23.544 60.166 7.063 63.244 7.063 63.244 13.844 69.279 13.844 69.279 7.063 72.357 7.063 72.357 23.544z" transform="translate(-50 -37) translate(50 37)"/>
                <g transform="translate(-50 -37) translate(50 37)">
                    <path fill="#6D6E70" d="M78.355 16.244h3.83v-.592c0-1.129-.346-1.909-1.828-1.909-1.482 0-2.002.78-2.002 1.909v.592zm2.348 5.03c1.16 0 2.372-.169 3.681-.564l.469 2.257c-1.359.517-2.99.762-4.422.762-3.78 0-5.09-1.744-5.09-4.617v-3.16c0-2.529 1.136-4.663 4.99-4.663 3.857 0 4.72 2.228 4.72 4.805v2.557h-6.696v.611c0 1.448.52 2.013 2.348 2.013zM93.98 14.034c-1.16.517-2.1 1.054-3.187 1.745v7.705h-3.014v-11.95h2.545l.197 1.325c.667-.442 2.1-1.279 3.163-1.57l.295 2.745zM102.213 14.034c-1.16.517-2.1 1.054-3.186 1.745v7.705h-3.014v-11.95h2.545l.197 1.325c.667-.442 2.1-1.279 3.162-1.57l.296 2.745zM110.078 18.966h-2.223c-.99 0-1.262.268-1.262 1.18 0 .833.272 1.204 1.212 1.204.89 0 1.705-.296 2.273-.616v-1.768zm3.016 4.518h-2.472l-.222-.808c-1.087.705-2.372 1.052-3.584 1.052-2.198 0-3.137-1.494-3.137-3.558 0-2.43 1.063-3.362 3.508-3.362h2.891v-1.25c0-1.326-.37-1.792-2.297-1.792-1.089 0-2.275.146-3.338.367l-.369-2.28c1.136-.343 2.791-.564 4.127-.564 3.78 0 4.893 1.326 4.893 4.316v7.88zM123.43 23.484V15.14c0-.634-.272-.954-.963-.954-.744 0-2.053.442-3.14 1.006v8.293h-3.014v-11.95h2.297l.298 1.005c1.506-.733 3.41-1.25 4.818-1.25 1.16 0 1.877.465 2.272 1.274 1.459-.738 3.386-1.274 4.844-1.274 2 0 2.718 1.396 2.718 3.535v8.66h-3.014V15.14c0-.634-.272-.954-.963-.954-.743 0-2.2.465-3.14 1.006v8.293h-3.013z"/>
                    <mask id="04wfc1txmb" fill="#fff">
                        <use xlink:href="#99xi87vgja"/>
                    </mask>
                    <path fill="#6D6E70" d="M136.91 23.484h3.014v-11.95h-3.014v11.95zm0-13.643h3.014V6.38h-3.014v3.46zM145.857 16.244h3.83v-.592c0-1.129-.346-1.909-1.828-1.909-1.482 0-2.002.78-2.002 1.909v.592zm2.348 5.03c1.162 0 2.372-.169 3.681-.564l.47 2.257c-1.36.517-2.989.762-4.423.762-3.781 0-5.09-1.744-5.09-4.617v-3.16c0-2.529 1.136-4.663 4.99-4.663 3.857 0 4.721 2.228 4.721 4.805v2.557h-6.697v.611c0 1.448.52 2.013 2.348 2.013zM162.397 23.484V15.14c0-.634-.272-.954-.963-.954-.743 0-2.053.442-3.14 1.006v8.293h-3.013v-11.95h2.296l.299 1.005c1.505-.733 3.409-1.25 4.818-1.25 2 0 2.717 1.396 2.717 3.535v8.66h-3.014zM175.155 23.259c-.641.272-1.877.47-2.644.47-2.2 0-3.31-1.035-3.31-3.169v-6.648h-1.804v-2.379h1.804v-2.97l3.014-.415v3.385h3.09l-.2 2.38h-2.89v6.257c0 .634.296 1.058 1.087 1.058.445 0 .99-.104 1.508-.25l.345 2.28zM183.44 18.966h-2.224c-.99 0-1.262.268-1.262 1.18 0 .833.273 1.204 1.212 1.204.89 0 1.705-.296 2.273-.616v-1.768zm3.015 4.518h-2.471l-.223-.808c-1.087.705-2.372 1.052-3.584 1.052-2.197 0-3.137-1.494-3.137-3.558 0-2.43 1.063-3.362 3.509-3.362h2.89v-1.25c0-1.326-.37-1.792-2.296-1.792-1.09 0-2.276.146-3.338.367l-.37-2.28c1.137-.343 2.792-.564 4.127-.564 3.78 0 4.893 1.326 4.893 4.316v7.88zM193.403 23.729c-1.283 0-3.037-.296-4.15-.687l.422-2.284c1.013.296 2.346.517 3.582.517 1.335 0 1.529-.296 1.529-1.204 0-.733-.147-1.105-2.098-1.57-2.94-.71-3.285-1.448-3.285-3.752 0-2.407 1.063-3.46 4.493-3.46 1.112 0 2.57.145 3.608.414l-.294 2.378c-.914-.169-2.372-.338-3.314-.338-1.307 0-1.53.291-1.53 1.03 0 .954.076 1.03 1.705 1.447 3.362.88 3.684 1.322 3.684 3.776 0 2.308-.72 3.733-4.352 3.733" mask="url(#04wfc1txmb)"/>
                    <path fill="#274F78" d="M200.6 23.484L200.6 7.142 204.307 7.142 204.307 20.222 210.832 20.222 210.832 23.484zM218.995 15.581c0-.832-.246-1.518-1.482-1.518s-1.633.686-1.633 1.518v.513h3.115v-.513zm-3.115 3.164v.348c0 1.373.544 1.74 2.173 1.74 1.113 0 2.594-.198 3.66-.518l.516 2.652c-1.084.395-2.84.761-4.522.761-3.901 0-5.383-1.917-5.383-4.86v-2.793c0-2.577 1.16-4.786 5.16-4.786 4.006 0 4.873 2.355 4.873 4.955v2.501h-6.477zM230.737 16.465v-1.128c0-.786-.416-1.255-1.605-1.255-1.183 0-1.605.47-1.605 1.255v1.128c0 .809.445 1.18 1.605 1.18s1.605-.371 1.605-1.18zm-6.52-1.274c.048-2.407 1.383-3.902 4.915-3.902.791 0 1.459.094 2.05.244h3.76v1.67l-1.212.441c.199.466.298 1.006.322 1.547v1.448c0 2.28-1.605 3.799-4.92 3.799h-.369c-.246.15-.521.32-.521.667 0 .264.175.461.398.49 1.605.169 2.097.215 2.987.29 2.027.175 2.917.861 2.917 2.925 0 2.868-1.804 3.752-5.535 3.752-1.184 0-3.21-.198-4.791-.611l.515-2.577c1.435.339 2.894.489 3.954.489 1.856 0 2.595-.075 2.595-.86 0-.466-.223-.588-.938-.663-1.358-.122-1.58-.146-3.063-.292-1.634-.174-2.571-.517-2.571-2.162 0-.955.445-1.594 1.037-2.182-1.037-.61-1.53-1.645-1.53-3.065v-1.448zM242.73 19.187h-1.704c-.767 0-1.065.198-1.065.86 0 .663.274.932.966.932.739 0 1.26-.175 1.804-.42v-1.372zm.64 4.297l-.247-.762c-1.382.762-2.617 1.006-3.432 1.006-2.225 0-3.14-1.598-3.14-3.629 0-2.407 1.113-3.366 3.585-3.366h2.595v-.907c0-1.227-.223-1.641-2.126-1.641-1.066 0-2.126.122-3.262.338l-.47-2.646c1.137-.344 2.94-.588 4.323-.588 4.177 0 5.09 1.25 5.09 4.56v7.635h-2.916zM249.26 23.484L249.26 6.653 252.82 6.16 252.82 23.484zM262.091 15.581c0-.832-.246-1.518-1.482-1.518-1.235 0-1.633.686-1.633 1.518v.513h3.115v-.513zm-3.115 3.164v.348c0 1.373.545 1.74 2.173 1.74 1.113 0 2.595-.198 3.66-.518l.516 2.652c-1.084.395-2.84.761-4.521.761-3.902 0-5.384-1.917-5.384-4.86v-2.793c0-2.577 1.16-4.786 5.161-4.786 4.005 0 4.872 2.355 4.872 4.955v2.501h-6.477zM271.807 23.729c-1.306 0-3.186-.32-4.37-.715l.568-2.623c.99.291 2.296.54 3.632.54 1.06 0 1.235-.296 1.235-1.006 0-.761-.023-.86-1.95-1.325-2.917-.71-3.192-1.5-3.192-3.729 0-2.53.99-3.582 4.598-3.582.914 0 2.595.122 3.655.395l-.317 2.745c-1.065-.197-2.372-.348-3.314-.348-1.037 0-1.284.273-1.284.814 0 .738.1.832 1.53 1.152 3.438.761 3.683 1.495 3.683 3.878 0 2.45-1.037 3.804-4.474 3.804M278.758 23.484L282.319 23.484 282.319 19.408 278.758 19.408zM288.35 18.92c0 1.226.521 1.79 1.951 1.79.919 0 1.61-.098 2.472-.296l.445 2.948c-1.208.268-2.074.367-2.917.367-3.901 0-5.506-1.448-5.506-4.861v-2.723c0-3.408 1.605-4.856 5.506-4.856.843 0 1.71.094 2.917.366l-.445 2.944c-.739-.17-1.776-.292-2.472-.292-1.43 0-1.95.564-1.95 1.787v2.825zM302.2 18.99v-2.967c0-1.128-.597-1.767-1.88-1.767s-1.88.639-1.88 1.767v2.967c0 1.128.597 1.767 1.88 1.767s1.88-.64 1.88-1.767m-7.315-.094v-2.774c0-2.454 1.16-4.833 5.435-4.833 4.276 0 5.436 2.379 5.436 4.833v2.774c0 2.454-1.16 4.833-5.436 4.833-4.275 0-5.435-2.38-5.435-4.833M315.372 23.484v-7.903c0-.54-.246-.86-.862-.86-.643 0-1.827.442-2.594.86v7.903h-3.56v-11.95h2.646l.37.907c1.481-.71 3.408-1.152 4.791-1.152 1.065 0 1.78.414 2.201 1.152 1.36-.663 3.163-1.152 4.816-1.152 2.055 0 2.77 1.523 2.77 3.827v8.368h-3.561v-7.903c0-.54-.246-.86-.862-.86-.644 0-1.827.442-2.595.86v7.903h-3.56zM37.432.202H5.657C2.533.202 0 2.717 0 5.82c0 3.102 2.533 5.617 5.657 5.617h.347c2.957 0 5.355-2.38 5.355-5.318h-3.17c0 1.198-.98 2.17-2.185 2.17h-.35c-1.372 0-2.483-1.104-2.483-2.467 0-1.36 1.111-2.465 2.483-2.465h31.774c1.371 0 2.483 1.105 2.483 2.465 0 1.363-1.112 2.466-2.483 2.466h-.343c-1.207 0-2.185-.97-2.185-2.169h-3.17c0 2.937 2.398 5.318 5.355 5.318h.347c3.123 0 5.656-2.515 5.656-5.617 0-3.103-2.533-5.618-5.656-5.618" mask="url(#04wfc1txmb)"/>
                    <path fill="#274F78" d="M19.955 13.92L23.133 13.92 23.133 6.123 19.955 6.123z" mask="url(#04wfc1txmb)"/>
                    <path fill="#6D6E70" d="M29.008 6.123L29.008 24.873 25.848 24.873 25.848 17.076 17.239 17.076 17.239 24.873 14.08 24.873 14.08 6.123 17.239 6.123 17.239 13.92 25.848 13.92 25.848 6.123z" mask="url(#04wfc1txmb)"/>
                    <path fill="#274F78" d="M23.129 19.764L19.958 19.764 19.958 31 29.015 31 29.015 27.851 23.129 27.851z" mask="url(#04wfc1txmb)"/>
                    <path fill="#6D6E70" d="M31.456 25.46l5.31 1.848c.114.04.126.195.018.249l-1.505.77 1.582 1.573-1.07 1.06-1.622-1.53-.775 1.495c-.056.107-.213.097-.253-.018l-1.86-5.274c-.04-.108.065-.212.175-.172M30.75 25.208L29.848 24.495 30.009 24.295 30.911 25.008zM30.828 26.593c.065.057.135.11.21.15l-.771.885-.195-.168.756-.867zM33.213 24.246l-.716.82c-.054-.068-.114-.13-.18-.182l.701-.806.195.168z" mask="url(#04wfc1txmb)"/>
                </g>
            </g>
        </g>
    </g>
</svg>
