<?xml version="1.0" encoding="utf-8"?>
<!-- Generator: Adobe Illustrator 24.0.2, SVG Export Plug-In . SVG Version: 6.00 Build 0)  -->
<svg version="1.1" id="Layer_1" xmlns="http://www.w3.org/2000/svg" xmlns:xlink="http://www.w3.org/1999/xlink" x="0px" y="0px"
	 viewBox="0 0 651 65" style="enable-background:new 0 0 651 65;" xml:space="preserve">
<style type="text/css">
	.st0{fill-rule:evenodd;clip-rule:evenodd;fill:#FFFFFF;}
	.st1{fill-rule:evenodd;clip-rule:evenodd;fill:#6D6E70;}
	.st2{filter:url(#Adobe_OpacityMaskFilter);}
	.st3{mask:url(#_x30_4wfc1txmb_12_);fill-rule:evenodd;clip-rule:evenodd;fill:#6D6E70;}
	.st4{filter:url(#Adobe_OpacityMaskFilter_1_);}
	.st5{mask:url(#_x30_4wfc1txmb_11_);fill-rule:evenodd;clip-rule:evenodd;fill:#274F78;}
	.st6{filter:url(#Adobe_OpacityMaskFilter_2_);}
	.st7{mask:url(#_x30_4wfc1txmb_10_);fill-rule:evenodd;clip-rule:evenodd;fill:#274F78;}
	.st8{filter:url(#Adobe_OpacityMaskFilter_3_);}
	.st9{mask:url(#_x30_4wfc1txmb_9_);fill-rule:evenodd;clip-rule:evenodd;fill:#6D6E70;}
	.st10{filter:url(#Adobe_OpacityMaskFilter_4_);}
	.st11{mask:url(#_x30_4wfc1txmb_8_);fill-rule:evenodd;clip-rule:evenodd;fill:#274F78;}
	.st12{filter:url(#Adobe_OpacityMaskFilter_5_);}
	.st13{mask:url(#_x30_4wfc1txmb_7_);fill-rule:evenodd;clip-rule:evenodd;fill:#6D6E70;}
</style>
<g>
	<g>
		<g>
			<path class="st0" d="M0.1,0.3H207c9.8,0,19,4.8,24.6,12.8l18.3,26.1c5.6,8,14.8,12.8,24.6,12.8H320v13H0.1V0.3z"/>
		</g>
	</g>
</g>
<rect x="305" y="52" class="st0" width="346" height="13"/>
<g>
	<g>
		<g>
			<path class="st1" d="M65,40.2v-4.7h-4v4.7h-2.1v-11H61v4.5h4v-4.5h2.1v11H65z"/>
			<g transform="translate(-50 -37) translate(50 37)">
				<path class="st1" d="M71.1,35.3h2.6v-0.4c0-0.8-0.2-1.3-1.2-1.3s-1.3,0.5-1.3,1.3V35.3z M72.6,38.7c0.8,0,1.6-0.1,2.5-0.4
					l0.3,1.5c-0.9,0.3-2,0.5-3,0.5c-2.5,0-3.4-1.2-3.4-3.1v-2.1c0-1.7,0.8-3.1,3.3-3.1c2.6,0,3.2,1.5,3.2,3.2V37h-4.5v0.4
					C71.1,38.3,71.4,38.7,72.6,38.7L72.6,38.7z M81.5,33.9c-0.8,0.3-1.4,0.7-2.1,1.2v5.2h-2v-8h1.7l0.1,0.9c0.4-0.3,1.4-0.9,2.1-1.1
					L81.5,33.9L81.5,33.9z M87,33.9c-0.8,0.3-1.4,0.7-2.1,1.2v5.2h-2v-8h1.7l0.1,0.9c0.4-0.3,1.4-0.9,2.1-1.1
					C86.8,32,87,33.9,87,33.9z M92.3,37.2h-1.5c-0.7,0-0.8,0.2-0.8,0.8c0,0.6,0.2,0.8,0.8,0.8c0.6,0,1.1-0.2,1.5-0.4
					C92.3,38.3,92.3,37.2,92.3,37.2z M94.3,40.2h-1.7l-0.1-0.5c-0.7,0.5-1.6,0.7-2.4,0.7c-1.5,0-2.1-1-2.1-2.4
					c0-1.6,0.7-2.2,2.3-2.2h1.9v-0.8c0-0.9-0.2-1.2-1.5-1.2c-0.7,0-1.5,0.1-2.2,0.2l-0.2-1.5C89,32.2,90.1,32,91,32
					c2.5,0,3.3,0.9,3.3,2.9V40.2L94.3,40.2z M101.2,40.2v-5.6c0-0.4-0.2-0.6-0.6-0.6c-0.5,0-1.4,0.3-2.1,0.7v5.5h-2v-8H98l0.2,0.7
					c1-0.5,2.3-0.8,3.2-0.8c0.8,0,1.3,0.3,1.5,0.9c1-0.5,2.3-0.9,3.2-0.9c1.3,0,1.8,0.9,1.8,2.4v5.8h-2v-5.6c0-0.4-0.2-0.6-0.6-0.6
					c-0.5,0-1.5,0.3-2.1,0.7v5.5L101.2,40.2L101.2,40.2z"/>
				<defs>
					<filter id="Adobe_OpacityMaskFilter" filterUnits="userSpaceOnUse" x="110.2" y="28.7" width="40.7" height="11.6">
						<feColorMatrix  type="matrix" values="1 0 0 0 0  0 1 0 0 0  0 0 1 0 0  0 0 0 1 0"/>
					</filter>
				</defs>
				<mask maskUnits="userSpaceOnUse" x="110.2" y="28.7" width="40.7" height="11.6" id="_x30_4wfc1txmb_12_">
					<g class="st2">
						<path id="_x39_9xi87vgja_12_" class="st0" d="M18.6,45.2h218.1V24.6H18.6V45.2z"/>
					</g>
				</mask>
				<path class="st3" d="M110.2,40.2h2v-8h-2V40.2z M110.2,31.1h2v-2.3h-2V31.1L110.2,31.1z M116.2,35.3h2.6v-0.4
					c0-0.8-0.2-1.3-1.2-1.3c-1,0-1.3,0.5-1.3,1.3V35.3z M117.8,38.7c0.8,0,1.6-0.1,2.5-0.4l0.3,1.5c-0.9,0.3-2,0.5-3,0.5
					c-2.5,0-3.4-1.2-3.4-3.1v-2.1c0-1.7,0.8-3.1,3.3-3.1c2.6,0,3.2,1.5,3.2,3.2V37h-4.5v0.4C116.2,38.3,116.6,38.7,117.8,38.7
					L117.8,38.7z M127.3,40.2v-5.6c0-0.4-0.2-0.6-0.6-0.6c-0.5,0-1.4,0.3-2.1,0.7v5.5h-2v-8h1.5l0.2,0.7c1-0.5,2.3-0.8,3.2-0.8
					c1.3,0,1.8,0.9,1.8,2.4v5.8L127.3,40.2L127.3,40.2z M135.8,40c-0.4,0.2-1.3,0.3-1.8,0.3c-1.5,0-2.2-0.7-2.2-2.1v-4.4h-1.2v-1.6
					h1.2v-2l2-0.3v2.3h2.1l-0.1,1.6h-1.9V38c0,0.4,0.2,0.7,0.7,0.7c0.3,0,0.7-0.1,1-0.2L135.8,40L135.8,40z M141.4,37.2h-1.5
					c-0.7,0-0.8,0.2-0.8,0.8c0,0.6,0.2,0.8,0.8,0.8c0.6,0,1.1-0.2,1.5-0.4L141.4,37.2L141.4,37.2z M143.4,40.2h-1.7l-0.1-0.5
					c-0.7,0.5-1.6,0.7-2.4,0.7c-1.5,0-2.1-1-2.1-2.4c0-1.6,0.7-2.2,2.3-2.2h1.9v-0.8c0-0.9-0.2-1.2-1.5-1.2c-0.7,0-1.5,0.1-2.2,0.2
					l-0.2-1.5c0.8-0.2,1.9-0.4,2.8-0.4c2.5,0,3.3,0.9,3.3,2.9L143.4,40.2L143.4,40.2z M148,40.4c-0.9,0-2-0.2-2.8-0.5l0.3-1.5
					c0.7,0.2,1.6,0.3,2.4,0.3c0.9,0,1-0.2,1-0.8c0-0.5-0.1-0.7-1.4-1.1c-2-0.5-2.2-1-2.2-2.5c0-1.6,0.7-2.3,3-2.3
					c0.7,0,1.7,0.1,2.4,0.3l-0.2,1.6c-0.6-0.1-1.6-0.2-2.2-0.2c-0.9,0-1,0.2-1,0.7c0,0.6,0.1,0.7,1.1,1c2.2,0.6,2.5,0.9,2.5,2.5
					C151,39.4,150.5,40.4,148,40.4"/>
				<defs>
					<filter id="Adobe_OpacityMaskFilter_1_" filterUnits="userSpaceOnUse" x="18.6" y="24.6" width="218.1" height="19">
						<feColorMatrix  type="matrix" values="1 0 0 0 0  0 1 0 0 0  0 0 1 0 0  0 0 0 1 0"/>
					</filter>
				</defs>
				<mask maskUnits="userSpaceOnUse" x="18.6" y="24.6" width="218.1" height="19" id="_x30_4wfc1txmb_11_">
					<g class="st4">
						<path id="_x39_9xi87vgja_11_" class="st0" d="M18.6,45.2h218.1V24.6H18.6V45.2z"/>
					</g>
				</mask>
				<path class="st5" d="M152.9,40.2V29.3h2.5V38h4.4v2.2H152.9z M165.2,34.9c0-0.6-0.2-1-1-1c-0.8,0-1.1,0.5-1.1,1v0.3h2.1
					L165.2,34.9L165.2,34.9z M163.1,37v0.2c0,0.9,0.4,1.2,1.5,1.2c0.7,0,1.7-0.1,2.4-0.3l0.3,1.8c-0.7,0.3-1.9,0.5-3,0.5
					c-2.6,0-3.6-1.3-3.6-3.3v-1.9c0-1.7,0.8-3.2,3.5-3.2c2.7,0,3.3,1.6,3.3,3.3V37H163.1L163.1,37z M173,35.5v-0.8
					c0-0.5-0.3-0.8-1.1-0.8c-0.8,0-1.1,0.3-1.1,0.8v0.8c0,0.5,0.3,0.8,1.1,0.8C172.7,36.3,173,36,173,35.5z M168.7,34.6
					c0-1.6,0.9-2.6,3.3-2.6c0.5,0,1,0.1,1.4,0.2h2.5v1.1l-0.8,0.3c0.1,0.3,0.2,0.7,0.2,1v1c0,1.5-1.1,2.5-3.3,2.5h-0.2
					c-0.2,0.1-0.3,0.2-0.3,0.4c0,0.2,0.1,0.3,0.3,0.3c1.1,0.1,1.4,0.1,2,0.2c1.4,0.1,2,0.6,2,2c0,1.9-1.2,2.5-3.7,2.5
					c-0.8,0-2.1-0.1-3.2-0.4l0.3-1.7c1,0.2,1.9,0.3,2.6,0.3c1.2,0,1.7-0.1,1.7-0.6c0-0.3-0.1-0.4-0.6-0.4c-0.9-0.1-1.1-0.1-2-0.2
					c-1.1-0.1-1.7-0.3-1.7-1.4c0-0.6,0.3-1.1,0.7-1.5c-0.7-0.4-1-1.1-1-2.1L168.7,34.6L168.7,34.6z M181,37.3h-1.1
					c-0.5,0-0.7,0.1-0.7,0.6c0,0.4,0.2,0.6,0.6,0.6c0.5,0,0.8-0.1,1.2-0.3L181,37.3L181,37.3z M181.5,40.2l-0.2-0.5
					c-0.9,0.5-1.8,0.7-2.3,0.7c-1.5,0-2.1-1.1-2.1-2.4c0-1.6,0.7-2.3,2.4-2.3h1.7v-0.6c0-0.8-0.1-1.1-1.4-1.1
					c-0.7,0-1.4,0.1-2.2,0.2l-0.3-1.8c0.8-0.2,2-0.4,2.9-0.4c2.8,0,3.4,0.8,3.4,3.1v5.1C183.4,40.2,181.5,40.2,181.5,40.2z
					 M185.4,40.2V28.9l2.4-0.3v11.6H185.4z M194,34.9c0-0.6-0.2-1-1-1c-0.8,0-1.1,0.5-1.1,1v0.3h2.1C194,35.2,194,34.9,194,34.9z
					 M191.9,37v0.2c0,0.9,0.4,1.2,1.5,1.2c0.7,0,1.7-0.1,2.4-0.3l0.3,1.8c-0.7,0.3-1.9,0.5-3,0.5c-2.6,0-3.6-1.3-3.6-3.3v-1.9
					c0-1.7,0.8-3.2,3.5-3.2c2.7,0,3.3,1.6,3.3,3.3V37H191.9L191.9,37z M200.5,40.4c-0.9,0-2.1-0.2-2.9-0.5l0.4-1.8
					c0.7,0.2,1.5,0.4,2.4,0.4c0.7,0,0.8-0.2,0.8-0.7c0-0.5,0-0.6-1.3-0.9c-2-0.5-2.1-1-2.1-2.5c0-1.7,0.7-2.4,3.1-2.4
					c0.6,0,1.7,0.1,2.4,0.3l-0.2,1.8c-0.7-0.1-1.6-0.2-2.2-0.2c-0.7,0-0.9,0.2-0.9,0.5c0,0.5,0.1,0.6,1,0.8c2.3,0.5,2.5,1,2.5,2.6
					C203.5,39.4,202.8,40.4,200.5,40.4 M205.2,40.2h2.4v-2.7h-2.4V40.2z M211.6,37.1c0,0.8,0.3,1.2,1.3,1.2c0.6,0,1.1-0.1,1.7-0.2
					l0.3,2c-0.8,0.2-1.4,0.2-2,0.2c-2.6,0-3.7-1-3.7-3.3v-1.8c0-2.3,1.1-3.2,3.7-3.2c0.6,0,1.1,0.1,2,0.2l-0.3,2
					c-0.5-0.1-1.2-0.2-1.7-0.2c-1,0-1.3,0.4-1.3,1.2L211.6,37.1L211.6,37.1z M220.8,37.2v-2c0-0.8-0.4-1.2-1.3-1.2
					c-0.9,0-1.3,0.4-1.3,1.2v2c0,0.8,0.4,1.2,1.3,1.2C220.4,38.4,220.8,37.9,220.8,37.2 M215.9,37.1v-1.9c0-1.6,0.8-3.2,3.6-3.2
					c2.9,0,3.6,1.6,3.6,3.2v1.9c0,1.6-0.8,3.2-3.6,3.2C216.7,40.4,215.9,38.8,215.9,37.1 M229.7,40.2v-5.3c0-0.4-0.2-0.6-0.6-0.6
					c-0.4,0-1.2,0.3-1.7,0.6v5.3H225v-8h1.8l0.2,0.6c1-0.5,2.3-0.8,3.2-0.8c0.7,0,1.2,0.3,1.5,0.8c0.9-0.4,2.1-0.8,3.2-0.8
					c1.4,0,1.9,1,1.9,2.6v5.6h-2.4v-5.3c0-0.4-0.2-0.6-0.6-0.6c-0.4,0-1.2,0.3-1.7,0.6v5.3H229.7L229.7,40.2z M43.7,24.6H22.4
					c-2.1,0-3.8,1.7-3.8,3.8c0,2.1,1.7,3.8,3.8,3.8h0.2c2,0,3.6-1.6,3.6-3.6h-2.1c0,0.8-0.7,1.5-1.5,1.5h-0.2
					c-0.9,0-1.7-0.7-1.7-1.7c0-0.9,0.7-1.6,1.7-1.6h21.3c0.9,0,1.7,0.7,1.7,1.6c0,0.9-0.7,1.7-1.7,1.7h-0.2c-0.8,0-1.5-0.6-1.5-1.5
					h-2.1c0,2,1.6,3.6,3.6,3.6h0.2c2.1,0,3.8-1.7,3.8-3.8C47.5,26.3,45.8,24.6,43.7,24.6"/>
				<defs>
					<filter id="Adobe_OpacityMaskFilter_2_" filterUnits="userSpaceOnUse" x="32" y="28.6" width="2.1" height="5.2">
						<feColorMatrix  type="matrix" values="1 0 0 0 0  0 1 0 0 0  0 0 1 0 0  0 0 0 1 0"/>
					</filter>
				</defs>
				<mask maskUnits="userSpaceOnUse" x="32" y="28.6" width="2.1" height="5.2" id="_x30_4wfc1txmb_10_">
					<g class="st6">
						<path id="_x39_9xi87vgja_10_" class="st0" d="M18.6,45.2h218.1V24.6H18.6V45.2z"/>
					</g>
				</mask>
				<path class="st7" d="M32,33.8h2.1v-5.2H32V33.8z"/>
				<defs>
					<filter id="Adobe_OpacityMaskFilter_3_" filterUnits="userSpaceOnUse" x="28.1" y="28.6" width="10" height="12.5">
						<feColorMatrix  type="matrix" values="1 0 0 0 0  0 1 0 0 0  0 0 1 0 0  0 0 0 1 0"/>
					</filter>
				</defs>
				<mask maskUnits="userSpaceOnUse" x="28.1" y="28.6" width="10" height="12.5" id="_x30_4wfc1txmb_9_">
					<g class="st8">
						<path id="_x39_9xi87vgja_9_" class="st0" d="M18.6,45.2h218.1V24.6H18.6V45.2z"/>
					</g>
				</mask>
				<path class="st9" d="M38,28.6v12.5h-2.1v-5.2h-5.8v5.2h-2.1V28.6h2.1v5.2h5.8v-5.2H38z"/>
				<defs>
					<filter id="Adobe_OpacityMaskFilter_4_" filterUnits="userSpaceOnUse" x="32" y="37.7" width="6.1" height="7.5">
						<feColorMatrix  type="matrix" values="1 0 0 0 0  0 1 0 0 0  0 0 1 0 0  0 0 0 1 0"/>
					</filter>
				</defs>
				<mask maskUnits="userSpaceOnUse" x="32" y="37.7" width="6.1" height="7.5" id="_x30_4wfc1txmb_8_">
					<g class="st10">
						<path id="_x39_9xi87vgja_8_" class="st0" d="M18.6,45.2h218.1V24.6H18.6V45.2z"/>
					</g>
				</mask>
				<path class="st11" d="M34.1,37.7H32v7.5H38v-2.1h-3.9V37.7z"/>
				<defs>
					<filter id="Adobe_OpacityMaskFilter_5_" filterUnits="userSpaceOnUse" x="38.6" y="40.6" width="4.7" height="4.6">
						<feColorMatrix  type="matrix" values="1 0 0 0 0  0 1 0 0 0  0 0 1 0 0  0 0 0 1 0"/>
					</filter>
				</defs>
				<mask maskUnits="userSpaceOnUse" x="38.6" y="40.6" width="4.7" height="4.6" id="_x30_4wfc1txmb_7_">
					<g class="st12">
						<path id="_x39_9xi87vgja_7_" class="st0" d="M18.6,45.2h218.1V24.6H18.6V45.2z"/>
					</g>
				</mask>
				<path class="st13" d="M39.7,41.5l3.6,1.2c0.1,0,0.1,0.1,0,0.2l-1,0.5l1.1,1.1l-0.7,0.7l-1.1-1l-0.5,1c0,0.1-0.1,0.1-0.2,0
					l-1.2-3.5C39.5,41.6,39.6,41.5,39.7,41.5 M39.2,41.3l-0.6-0.5l0.1-0.1l0.6,0.5L39.2,41.3z M39.3,42.3c0,0,0.1,0.1,0.1,0.1
					L38.9,43l-0.1-0.1L39.3,42.3z M40.9,40.7l-0.5,0.5c0,0-0.1-0.1-0.1-0.1l0.5-0.5L40.9,40.7z"/>
			</g>
		</g>
	</g>
</g>
</svg>
