<?xml version="1.0" encoding="utf-8"?>
<!-- Generator: Adobe Illustrator 24.0.2, SVG Export Plug-In . SVG Version: 6.00 Build 0)  -->
<svg version="1.1" id="Layer_1" xmlns="http://www.w3.org/2000/svg" xmlns:xlink="http://www.w3.org/1999/xlink" x="0px" y="0px"
	 viewBox="0 0 377 83.4" style="enable-background:new 0 0 377 83.4;" xml:space="preserve">
<style type="text/css">
	.st0{display:none;filter:url(#c0hyst8qja);}
	.st1{display:inline;fill-rule:evenodd;clip-rule:evenodd;}
	.st2{fill-rule:evenodd;clip-rule:evenodd;fill:#323232;}
</style>
<filter  filterUnits="objectBoundingBox" height="146.3%" id="c0hyst8qja" width="110.1%" x="-5%" y="-20.7%">
	<feMorphology  in="SourceAlpha" operator="dilate" radius="1" result="shadowSpreadOuter1"></feMorphology>
	<feOffset  dy="2" in="shadowSpreadOuter1" result="shadowOffsetOuter1"></feOffset>
	<feGaussianBlur  in="shadowOffsetOuter1" result="shadowBlurOuter1" stdDeviation="5"></feGaussianBlur>
	<feColorMatrix  in="shadowBlurOuter1" values="0 0 0 0 0.760275136 0 0 0 0 0.760275136 0 0 0 0 0.760275136 0 0 0 0.211593094 0">
		</feColorMatrix>
</filter>
<g>
	<g>
		<g>
			<g transform="translate(-147 -418) translate(159 350) translate(0 78)">
				<g class="st0">
					<path id="t4ydrygstb_2_" class="st1" d="M0.8-10h351.4c4.5,0,6.1,0.5,7.7,1.3c1.6,0.9,2.9,2.1,3.8,3.8c0.9,1.6,1.3,3.2,1.3,7.7
						V31l-16.6,19.5c-7.5,8.8-10.5,11.6-14.3,14.2c-3.8,2.7-7.7,4.5-12.2,5.6c-4.5,1.2-8.5,1.6-20.1,1.6H51.3
						c-11.6,0-15.7-0.5-20.1-1.6c-4.5-1.2-8.4-3-12.2-5.6c-3.8-2.7-6.8-5.4-14.3-14.2L-12,31V2.8c0-4.5,0.5-6.1,1.3-7.7
						c0.9-1.6,2.1-2.9,3.8-3.8C-5.3-9.5-3.6-10,0.8-10L0.8-10z"/>
				</g>
				<g>
					<path id="t4ydrygstb_1_" class="st2" d="M0.8-10h351.4c4.5,0,6.1,0.5,7.7,1.3c1.6,0.9,2.9,2.1,3.8,3.8c0.9,1.6,1.3,3.2,1.3,7.7
						V31l-16.6,19.5c-7.5,8.8-10.5,11.6-14.3,14.2c-3.8,2.7-7.7,4.5-12.2,5.6c-4.5,1.2-8.5,1.6-20.1,1.6H51.3
						c-11.6,0-15.7-0.5-20.1-1.6c-4.5-1.2-8.4-3-12.2-5.6c-3.8-2.7-6.8-5.4-14.3-14.2L-12,31V2.8c0-4.5,0.5-6.1,1.3-7.7
						c0.9-1.6,2.1-2.9,3.8-3.8C-5.3-9.5-3.6-10,0.8-10L0.8-10z"/>
				</g>
			</g>
		</g>
	</g>
</g>
</svg>
